<svg id="Capa_1" enable-background="new 0 0 512.644 512.644" height="512" viewBox="0 0 512.644 512.644" width="512" xmlns="http://www.w3.org/2000/svg"><g><path d="m466.845 287.113c-3.162-2.672-7.896-2.274-10.568.891s-2.274 7.896.891 10.569c25.471 21.512 40.079 52.945 40.079 86.237 0 62.217-50.617 112.833-112.834 112.833s-112.833-50.617-112.833-112.833 50.616-112.833 112.833-112.833c16.571 0 32.542 3.516 47.47 10.449 3.757 1.744 8.217.113 9.961-3.643 1.745-3.756.114-8.216-3.643-9.961-16.921-7.859-35.018-11.844-53.788-11.844-55.209 0-102.352 35.182-120.197 84.302-1.453-1.939-3.347-3.54-5.571-4.611l-5.16-2.484c-2.706-1.303-5.692-1.744-8.602-1.36v-21.318c20.645-16.112 34.768-39.581 39.082-65.764 18.389-.705 33.134-15.876 33.134-34.435 0-8.127-2.834-15.6-7.556-21.5l2.212-61.849c1.267-33.798-10.958-65.826-34.421-90.186-23.464-24.358-55.011-37.773-88.833-37.773-25.597 0-50.145 7.77-70.988 22.469-3.385 2.387-4.194 7.067-1.807 10.452s7.065 4.196 10.451 1.807c18.301-12.906 39.859-19.728 62.344-19.728 29.708 0 57.42 11.784 78.029 33.18 20.61 21.397 31.348 49.53 30.234 79.231l-1.849 51.701c-3.006-1.151-6.212-1.889-9.551-2.153v-47.156c0-13.04-5.945-25.054-16.313-32.963-10.366-7.91-23.524-10.471-36.103-7.026l-37.792 10.35c-4.062 1.112-8.371 1.182-12.469.204l-38.8-9.273c-12.42-2.969-25.299-.134-35.324 7.778-10.027 7.913-15.777 19.776-15.777 32.548v45.527c-3.76.28-7.356 1.159-10.687 2.554l-1.863-52.103c-.972-25.929 7.394-51.356 23.556-71.598 2.584-3.237 2.056-7.957-1.182-10.541-3.237-2.585-7.956-2.056-10.541 1.181-18.402 23.05-27.929 52-26.823 81.506l2.257 63.111c-4.146 5.69-6.601 12.687-6.601 20.251 0 18.588 14.793 33.778 33.222 34.437 1.326 8.227 3.631 16.274 6.914 24.057 1.609 3.817 6.008 5.605 9.825 3.995 3.816-1.61 5.605-6.009 3.995-9.825-4.693-11.126-7.073-22.878-7.073-34.928v-97.625c0-8.152 3.67-15.723 10.069-20.773 6.398-5.049 14.614-6.859 22.546-4.965l38.8 9.273c6.541 1.564 13.428 1.452 19.918-.326l37.792-10.35c8.023-2.197 16.424-.564 23.041 4.485 6.616 5.048 10.411 12.716 10.411 21.038v98.946c0 37.989-24.055 72.045-59.857 84.746l-.74.262c-13.704 4.863-28.786 4.831-42.468-.087-14.045-5.047-26.72-13.598-36.655-24.728-2.758-3.09-7.5-3.359-10.59-.6-3.09 2.758-3.358 7.5-.6 10.589 4.208 4.714 8.842 9.025 13.815 12.894v20.999c-2.911-.384-5.897.058-8.603 1.36l-5.16 2.485c-3.869 1.863-6.787 5.294-8.005 9.412-.521 1.76-.693 3.581-.567 5.378l-35.128 14.332c-45.81 18.69-75.409 62.736-75.409 112.211v26.949c0 4.142 3.357 7.5 7.5 7.5s7.5-3.358 7.5-7.5v-26.949c0-43.352 25.937-81.946 66.075-98.323l4.06-1.656v54.309c0 3.567 2.513 6.641 6.009 7.35l10.147 2.059-3.167 27.44c-.233 2.022.365 4.052 1.658 5.625l28.716 34.909c1.482 1.803 3.631 2.736 5.796 2.735 1.677 0 3.364-.56 4.761-1.708 3.199-2.631 3.659-7.357 1.027-10.557l-26.692-32.449 3.592-31.117c.447-3.869-2.142-7.436-5.959-8.21l-10.888-2.209v-54.298l16.686-6.808 16.498 27.091-.446 33.189c-.01.71.082 1.419.271 2.104l22.033 79.475c.921 3.321 3.937 5.498 7.224 5.498.663 0 1.337-.089 2.008-.274 3.991-1.107 6.33-5.24 5.224-9.231l-.3-1.082 3.924-64.531 5.04-14.887h20.764l5.04 14.887s2.472 41.137 3.918 64.554l-.294 1.06c-1.106 3.992 1.232 8.125 5.224 9.231.671.186 1.345.274 2.008.274 3.286 0 6.303-2.177 7.224-5.498l22.033-79.475c.189-.685.281-1.394.271-2.104l-.446-33.189 12.888-21.163c-.488 4.53-.745 9.128-.745 13.786 0 15.613 2.819 30.579 7.965 44.422-2.565 1.445-4.126 4.319-3.771 7.389l3.592 31.117-26.692 32.449c-2.632 3.199-2.172 7.925 1.027 10.557 1.396 1.148 3.083 1.708 4.761 1.708 2.165 0 4.313-.933 5.796-2.735l28.716-34.909c1.293-1.572 1.892-3.603 1.658-5.625l-1.559-13.509c22.946 34.321 62.046 56.97 106.34 56.97 70.488 0 127.834-57.346 127.834-127.833.002-37.718-16.546-73.327-45.399-97.696zm-164.746-75.804c0 9.817-7.311 17.938-16.77 19.259.01-.607.036-1.211.036-1.819v-36.694c9.441 1.337 16.734 9.45 16.734 19.254zm-226.195 0c0-9.856 7.369-18.006 16.884-19.277v37.013c0 .515.012 1.029.019 1.544-9.525-1.263-16.903-9.417-16.903-19.28zm86.322 116.478c8.519 3.062 17.473 4.592 26.43 4.592 8.849 0 17.699-1.495 26.126-4.485l.74-.262c4.993-1.771 9.784-3.908 14.361-6.357v17.488l-40.807 18.041-40.807-18.041v-17.193c4.49 2.402 9.152 4.49 13.957 6.217zm45.268 66.265c.57 1.564.449 3.306-.335 4.776l-4.595 8.619h-26.977l-4.596-8.619c-.783-1.47-.905-3.211-.334-4.776l4.109-11.256 14.309-8.947 14.309 8.947zm-81.608-43.717c.031-.104.09-.132.129-.151l5.16-2.485c.033-.016.069-.024.105-.024.034 0 .069.007.102.021h-.001l41.726 18.447-27.295 17.067-19.899-32.677c-.024-.036-.058-.093-.027-.198zm33.229 83.168c-.22.649-.35 1.326-.386 2.01l-1.182 22.411-9.265-33.418.345-25.682c.736-.272 1.458-.595 2.14-1.021l4.574-2.86c-.202 3.763.609 7.554 2.414 10.942l5.664 10.625c.278.522.603 1.006.951 1.469zm61.49 24.422-1.182-22.411c-.036-.685-.166-1.361-.386-2.01l-5.256-15.524c.349-.463.673-.948.951-1.47l5.663-10.625c1.806-3.387 2.617-7.178 2.415-10.941l4.573 2.859c.682.426 1.404.75 2.141 1.022l.345 25.682zm31.636-107.392-19.9 32.678-27.295-17.067 41.725-18.447c.066-.029.142-.029.206.003l5.16 2.484c.039.019.099.047.13.152.03.104-.004.161-.026.197z"/><path d="m349.137 384.811c0 19.451 15.824 35.275 35.275 35.275s35.276-15.825 35.276-35.275-15.825-35.275-35.276-35.275-35.275 15.824-35.275 35.275zm55.552 0c0 11.18-9.096 20.275-20.276 20.275s-20.275-9.096-20.275-20.275 9.096-20.275 20.275-20.275c11.18-.001 20.276 9.095 20.276 20.275z"/><path d="m285.18 377.087c-3.333 4.62-3.333 10.828-.001 15.446 10.974 15.215 50.559 64.857 99.233 64.857s88.261-49.642 99.235-64.858c3.33-4.619 3.33-10.825 0-15.443-.001 0-.001 0-.001-.001-10.974-15.215-50.56-64.857-99.234-64.857s-88.259 49.642-99.232 64.856zm156.812 7.724c0 31.75-25.83 57.58-57.58 57.58-31.749 0-57.579-25.83-57.579-57.58s25.83-57.58 57.579-57.58c31.75 0 57.58 25.83 57.58 57.58zm-143.88 0c2.813-3.824 8.54-11.219 16.391-19.465-1.733 6.197-2.669 12.722-2.669 19.465 0 6.734.925 13.256 2.651 19.446-7.843-8.239-13.562-15.625-16.373-19.446zm172.602 0c-2.815 3.827-8.548 11.227-16.408 19.477 1.735-6.202 2.687-12.728 2.687-19.477 0-6.73-.925-13.247-2.65-19.434 7.843 8.232 13.56 15.612 16.371 19.434z"/><path d="m143.298 260.088c5.396 3.509 11.511 5.192 17.579 5.192 10.285 0 20.433-4.836 26.7-13.81l.924-1.323.924 1.323c6.268 8.974 16.414 13.81 26.7 13.81 6.067 0 12.184-1.683 17.579-5.192l12.324-6.297c3.561-1.819 5.712-5.574 5.48-9.566s-2.802-7.473-6.548-8.868l-6.585-2.454-5.029-5.532c-7.437-8.18-19.168-10.541-29.187-5.879l-15.659 7.285-15.658-7.284c-10.02-4.663-21.75-2.302-29.188 5.878l-5.029 5.532-6.584 2.453c-3.747 1.396-6.317 4.876-6.549 8.868s1.92 7.747 5.48 9.566zm67.19-24.995c4.04-1.88 8.764-.926 11.76 2.369l6.254 6.879c.336.369.706.702 1.105.996l-3.099 1.583c-.266.135-.521.286-.769.452-7.837 5.263-18.612 3.247-24.018-4.492l-1.955-2.8zm-61.987 9.248 6.254-6.879c2.997-3.296 7.724-4.246 11.761-2.368l10.72 4.987-1.955 2.799c-5.406 7.739-16.179 9.755-24.018 4.492-.247-.166-.503-.317-.769-.452l-3.099-1.583c.4-.294.77-.627 1.106-.996z"/></g></svg>