<svg id="Capa_1" enable-background="new 0 0 512.989 512.989" height="512" viewBox="0 0 512.989 512.989" width="512" xmlns="http://www.w3.org/2000/svg"><g><path d="m180.577 190.348v-11.657h16.233v11.657c0 9.559 7.777 17.335 17.335 17.335h28.616c9.559 0 17.335-7.777 17.335-17.335v-19.157c0-9.559-7.777-17.336-17.335-17.336h-28.616c-6.87 0-12.802 4.027-15.605 9.836h-19.694c-2.804-5.809-8.735-9.836-15.605-9.836h-28.616c-9.559 0-17.336 7.777-17.336 17.336v19.157c0 9.559 7.777 17.335 17.336 17.335h28.616c9.559.001 17.336-7.776 17.336-17.335zm31.233-19.157c0-1.288 1.048-2.336 2.335-2.336h28.616c1.288 0 2.335 1.048 2.335 2.336v19.157c0 1.288-1.048 2.335-2.335 2.335h-28.616c-1.288 0-2.335-1.048-2.335-2.335zm-79.52 19.157v-19.157c0-1.288 1.048-2.336 2.336-2.336h28.616c1.288 0 2.335 1.048 2.335 2.336v19.157c0 1.288-1.048 2.335-2.335 2.335h-28.616c-1.289.001-2.336-1.047-2.336-2.335z"/><path d="m23.455 420.786c-3.704-1.853-8.211-.355-10.064 3.35-8.387 16.759-12.821 35.505-12.821 54.213v26.949c0 4.142 3.358 7.5 7.5 7.5s7.5-3.358 7.5-7.5v-26.949c0-16.389 3.885-32.814 11.235-47.499 1.854-3.704.354-8.21-3.35-10.064z"/><path d="m455.665 278.896c-3.441-2.305-8.1-1.386-10.406 2.055s-1.386 8.1 2.055 10.406c31.374 21.026 50.104 56.091 50.104 93.799 0 62.217-50.617 112.833-112.833 112.833s-112.833-50.617-112.833-112.833 50.617-112.833 112.833-112.833c12.257 0 24.315 1.956 35.839 5.813 3.931 1.314 8.178-.804 9.493-4.731 1.314-3.928-.804-8.178-4.731-9.493-13.062-4.372-26.722-6.589-40.601-6.589-55.928 0-103.576 36.104-120.877 86.228l-8.542-3.117c-3.445-1.255-7.088-.89-10.111.687v-29.268c25.028-19.534 40.482-49.879 40.482-82.76v-1.981c18.203-.907 32.734-16 32.734-34.425 0-12.4-6.584-23.289-16.438-29.362l3.302-40.873c2.54-31.444-8.271-62.777-29.661-85.964s-51.75-36.488-83.297-36.488h-6.635c-32.102 0-62.826 13.703-84.294 37.594-2.769 3.081-2.515 7.823.566 10.592 3.08 2.768 7.822 2.516 10.591-.566 18.629-20.73 45.286-32.62 73.137-32.62h6.635c27.773 0 53.44 11.243 72.272 31.657s27.971 46.902 25.735 74.585l-3 37.142c-.545-.053-1.094-.096-1.646-.124v-3.996c0-3.229-1.144-6.369-3.221-8.841-12.832-15.272-21.311-33.752-24.525-53.466l-.002-.014c-.648-3.915-3.528-7.139-7.344-8.216-40.592-11.469-81.818-11.469-122.536 0-3.828 1.079-6.715 4.315-7.354 8.236l-.038.228c-3.189 19.562-11.587 37.944-24.289 53.164l-.077.092c-2.059 2.466-3.192 5.594-3.192 8.806v4.004c-.814.037-1.62.107-2.418.2l-3.006-37.214c-1.335-16.532 1.529-33.199 8.285-48.199 1.701-3.777.018-8.217-3.759-9.918-3.776-1.701-8.217-.019-9.918 3.759-7.792 17.303-11.098 36.518-9.559 55.566l3.333 41.256c-9.52 6.141-15.841 16.832-15.841 28.979 0 18.475 14.611 33.597 32.884 34.429v2.276c0 32.842 15.46 63.21 40.482 82.755v28.975c-3.024-1.577-6.667-1.943-10.112-.686l-35.644 13.005c-4.813 1.756-8.025 6.261-8.235 11.282l-3.472 1.416c-16.36 6.675-30.773 16.623-42.84 29.568-2.824 3.03-2.658 7.776.373 10.6 1.445 1.347 3.281 2.014 5.112 2.014 2.008 0 4.011-.802 5.488-2.386 10.336-11.089 22.641-19.66 36.577-25.502l3.627 42.16c.532 6.184 5.614 10.847 11.821 10.847h16.962l-1.356 17.74c-.317 4.134 1.495 8.058 4.846 10.498l68.244 49.686c1.317.958 2.866 1.437 4.415 1.437 1.592 0 3.183-.506 4.52-1.515.101-.076.183-.168.279-.249.001.008-.001.019.001.027l67.858-49.385c3.351-2.439 5.164-6.363 4.848-10.497l-1.356-17.741h.831c19.088 46.621 64.945 79.551 118.357 79.551 70.488 0 127.833-57.346 127.833-127.833-.001-42.722-21.217-82.446-56.755-106.262zm-266.416 204.648-45.129-122.869c12.058 11.635 28.287 18.248 45.128 18.248 16.842 0 33.07-6.612 45.129-18.248zm114.022-290.858c0 10.149-7.81 18.499-17.734 19.381v-38.762c9.925.881 17.734 9.231 17.734 19.381zm-228.195 0c0-10.2 7.889-18.577 17.884-19.388v38.777c-9.995-.812-17.884-9.189-17.884-19.389zm32.884 36.704v-74.682c13.702-16.506 22.959-36.268 26.878-57.329 36.129-9.66 72.659-9.661 108.676-.002 3.961 21.086 13.266 40.847 27.023 57.344v74.37c0 37.99-24.055 72.047-59.86 84.75l-.738.262c-13.704 4.862-28.786 4.831-42.468-.087-35.595-12.793-59.511-46.802-59.511-84.626zm54.438 98.742c8.518 3.062 17.472 4.592 26.429 4.592 8.849 0 17.701-1.495 26.129-4.485l.737-.262c4.993-1.771 9.785-3.909 14.362-6.357v21.772l-3.985 4.344c-9.578 10.438-22.654 16.188-36.822 16.188-14.167 0-27.244-5.749-36.821-16.188l-3.985-4.343v-21.48c4.454 2.384 9.108 4.476 13.956 6.219zm-35.565 122.446 1.481-19.372c.25-3.284-.89-6.552-3.128-8.968-2.238-2.415-5.41-3.8-8.703-3.8h-17.468l-4.435-51.547 31.608-11.533 47.503 129.335zm126.478-28.339c-2.238 2.416-3.378 5.685-3.126 8.967l1.48 19.372-46.858 34.115 47.503-129.335 7.347 2.681c-1.896 8.744-2.904 17.814-2.904 27.117 0 11.526 1.542 22.697 4.416 33.327-2.986.215-5.813 1.548-7.858 3.756z"/><path d="m454.287 418.961c1.444 2.176 3.827 3.355 6.257 3.355 1.424 0 2.864-.405 4.139-1.251l5.475-3.632c5.067-3.361 9.176-7.712 12.212-12.931 2.083-3.581.869-8.171-2.711-10.254-3.58-2.082-8.171-.869-10.254 2.711-1.869 3.213-4.405 5.896-7.538 7.974l-5.475 3.632c-3.453 2.29-4.395 6.945-2.105 10.396z"/><path d="m437.331 421.211-7.646 5.072c-2.544 1.688-5.235 3.261-7.997 4.674-3.688 1.886-5.148 6.405-3.262 10.093 1.327 2.594 3.957 4.086 6.683 4.086 1.149 0 2.316-.265 3.41-.824 3.263-1.669 6.446-3.53 9.459-5.529l7.646-5.072c3.452-2.29 4.394-6.944 2.104-10.396-2.292-3.452-6.946-4.395-10.397-2.104z"/><path d="m312.78 408.565-5.475-3.632c-3.132-2.078-5.668-4.761-7.539-7.974-2.083-3.581-6.675-4.793-10.254-2.71-3.58 2.083-4.793 6.674-2.71 10.254 3.037 5.219 7.146 9.569 12.211 12.93l5.475 3.632c1.275.846 2.715 1.251 4.139 1.251 2.43 0 4.813-1.179 6.257-3.355 2.29-3.452 1.348-8.106-2.104-10.396z"/><path d="m339.485 426.283-7.645-5.071c-3.45-2.29-8.105-1.349-10.396 2.104-2.29 3.452-1.348 8.106 2.104 10.396l7.645 5.072c3.017 2.001 6.199 3.862 9.46 5.529 1.093.56 2.26.824 3.409.824 2.727 0 5.356-1.492 6.683-4.086 1.886-3.688.426-8.207-3.262-10.092-2.759-1.414-5.45-2.986-7.998-4.676z"/><path d="m396.877 438.943c-8.171 1.24-16.591 1.222-24.71-.03-4.1-.627-7.924 2.177-8.555 6.27-.631 4.094 2.176 7.924 6.27 8.555 4.859.749 9.825 1.128 14.759 1.128 4.83 0 9.704-.368 14.486-1.093 4.096-.621 6.912-4.444 6.291-8.54-.623-4.095-4.449-6.914-8.541-6.29z"/><path d="m387.252 327.389-2.854 1.473c-3.272-.771-6.771.74-8.383 3.861-1.901 3.68-.458 8.205 3.222 10.105 3.382 1.747 7.423 1.748 10.805.001l4.09-2.11c9.882-5.101 21.969-1.958 28.115 7.31l15.165 22.866-12.26-3.115c-6.427-1.632-13.288-1.021-19.321 1.723l-8.194 3.725c-8.259 3.754-17.731 3.754-25.99 0l-8.194-3.725c-6.034-2.743-12.896-3.354-19.322-1.723l-12.261 3.115 3.896-5.875c2.289-3.452 1.347-8.106-2.105-10.396-3.453-2.29-8.107-1.347-10.396 2.105l-12.278 18.513c-3.588 5.413-2.105 12.736 3.305 16.324l32.182 21.351c11.593 7.691 24.88 11.537 38.167 11.537s26.574-3.845 38.167-11.537l32.18-21.35c2.622-1.739 4.41-4.395 5.034-7.479.624-3.083.01-6.226-1.729-8.847l-23.546-35.503c-10.383-15.656-30.802-20.964-47.495-12.349zm27.263 73.028c-18.149 12.04-41.602 12.039-59.75 0l-21.649-14.363 14.707-3.737c3.133-.796 6.478-.498 9.42.84l8.194 3.725c6.102 2.774 12.651 4.161 19.202 4.16 6.549 0 13.101-1.387 19.202-4.16l8.195-3.725c2.942-1.337 6.288-1.634 9.419-.84l14.707 3.737z"/><path d="m329.321 345.295c3.326 2.249 6.058 4.906 8.121 7.898 2.299 3.336 6.105 5.366 10.179 5.432.068.001.136.001.203.001 4.005 0 7.791-1.901 10.161-5.113 2.067-2.803 4.919-5.433 8.718-8.041 3.488-2.394 5.52-6.351 5.435-10.585-.086-4.282-2.306-8.202-5.938-10.486-3.149-1.98-5.664-4.37-7.688-7.308-2.378-3.449-6.285-5.507-10.455-5.507-.006 0-.012 0-.018 0-4.141.006-8.012 2.052-10.356 5.474-1.796 2.621-4.357 4.92-7.831 7.028-3.689 2.24-5.955 6.154-6.06 10.472-.106 4.311 1.961 8.324 5.529 10.735zm18.75-17.138c2.123 2.613 4.568 4.955 7.311 7.001-2.9 2.223-5.379 4.532-7.49 6.977-2.105-2.611-4.544-5.008-7.291-7.167 2.916-2.066 5.389-4.32 7.47-6.811z"/></g></svg>