<svg id="Capa_1" enable-background="new 0 0 512.514 512.514" height="512" viewBox="0 0 512.514 512.514" width="512" xmlns="http://www.w3.org/2000/svg"><g><path d="m47.744 391.061c-2.885-2.972-7.633-3.042-10.605-.157-23.391 22.706-36.806 54.405-36.806 86.969v25.949c0 4.142 3.358 7.5 7.5 7.5s7.5-3.358 7.5-7.5v-25.949c0-28.532 11.756-56.309 32.254-76.207 2.972-2.884 3.043-7.632.157-10.605z"/><path d="m120.579 447.276h-61.778c-7.015 0-12.723 5.708-12.723 12.723v23.038c0 7.015 5.708 12.723 12.723 12.723h61.777c7.015 0 12.723-5.708 12.723-12.723v-23.038c0-7.016-5.707-12.723-12.722-12.723zm-2.278 33.483h-57.222v-18.483h57.223v18.483z"/><path d="m445.245 272.258c-3.646-1.978-8.195-.626-10.17 3.014-1.976 3.641-.626 8.193 3.014 10.169 36.45 19.783 59.093 57.809 59.093 99.239 0 62.217-50.617 112.833-112.834 112.833s-112.834-50.616-112.834-112.833 50.616-112.833 112.833-112.833c8.687 0 17.347.993 25.739 2.95 4.024.942 8.066-1.566 9.007-5.6s-1.566-8.067-5.601-9.007c-9.507-2.218-19.313-3.342-29.146-3.342-58.127 0-107.311 39-122.775 92.206l-16.754-6.836v-30.841c20.644-16.112 34.767-39.58 39.081-65.762 18.389-.704 33.135-15.876 33.135-34.435 0-8.9-3.391-17.023-8.949-23.145l11.747-56.43c3.118-3.797 5.452-8.234 6.843-13.128 4.413-15.534-1.765-31.812-15.373-40.506l-20.361-13.009c-4.994-14.601-14.8-27.252-27.718-35.723-13.183-8.645-29.065-12.583-44.757-11.1l-33.631-13.038c-23.25-9.012-49.435-5.957-70.049 8.171-3.417 2.342-4.288 7.01-1.946 10.427s7.009 4.288 10.427 1.946c16.527-11.328 37.517-13.78 56.146-6.558l33.915 13.146c1.998.775 4.179 1.073 6.313.861 25.432-2.516 49.585 13.32 57.418 37.654.822 2.552 2.519 4.752 4.776 6.195l21.392 13.667c7.984 5.101 11.609 14.652 9.02 23.767-1.608 5.664-5.365 10.292-10.577 13.031-5.213 2.74-11.155 3.209-16.732 1.322-4.3-1.455-8.933-1.793-13.396-.977l-23.029 4.206c-2.995.546-6.105.334-8.997-.614-12.594-4.13-26.153-2.299-37.2 5.025-8.771 5.816-19.933 6.25-29.128 1.135l-13.828-7.691c-11.549-6.424-25.176-7.209-37.387-2.154l-28.049 11.612c-11.602 4.806-25.145.749-32.197-9.645-7.381-10.877-5.62-25.757 4.098-34.611l28.989-26.413c.91-.83 1.603-1.871 2.015-3.031l3.671-10.324c1.025-2.883 2.283-5.721 3.74-8.435 1.96-3.649.59-8.196-3.059-10.156s-8.196-.591-10.156 3.059c-1.814 3.378-3.382 6.914-4.659 10.506l-3.042 8.555-27.604 25.151c-15.195 13.845-17.949 37.112-6.407 54.122 3.366 4.961 7.684 8.988 12.566 11.99l7.909 37.995c-5.557 6.122-8.949 14.245-8.949 23.145 0 18.593 14.799 33.785 33.235 34.438 4.261 26.279 18.418 49.874 39.131 66.053v30.548l-57.463 23.445c-3.647 1.488-7.359 3.231-11.033 5.181-3.659 1.941-5.051 6.481-3.11 10.14 1.347 2.539 3.945 3.986 6.631 3.986 1.186 0 2.389-.282 3.509-.876 3.232-1.715 6.485-3.243 9.67-4.542l55.009-22.444 42.584 67.042c2.188 3.443 5.929 5.499 10.008 5.499 4.08 0 7.821-2.056 10.009-5.499l42.585-67.042 16.611 6.777c-1.113 6.771-1.701 13.716-1.701 20.797 0 70.488 57.346 127.833 127.833 127.833 70.488 0 127.834-57.346 127.834-127.833.001-46.938-25.647-90.016-66.935-112.425zm-159.982-41.82c.011-.608.036-1.213.036-1.822v-36.691c9.442 1.336 16.734 9.449 16.734 19.254.001 9.817-7.31 17.938-16.77 19.259zm16.798-87.067-7.397 35.536c-2.951-1.11-6.094-1.821-9.364-2.079v-32.549c5.612 1.033 11.32.72 16.761-.908zm-218.207 12.898c2.956 0 5.929-.327 8.868-.972v21.52c-3.323.248-6.517.963-9.513 2.09l-4.789-23.003c1.798.236 3.612.365 5.434.365zm-8.015 54.91c0-9.857 7.369-18.006 16.884-19.277v37.013c0 .517.023 1.03.031 1.546-9.53-1.258-16.915-9.415-16.915-19.282zm31.883 17.736v-79.122l19.985-8.274c7.956-3.293 16.834-2.782 24.358 1.403l13.829 7.691c14.116 7.852 31.247 7.185 44.708-1.741 7.197-4.773 16.032-5.965 24.235-3.274 5.261 1.725 10.919 2.113 16.367 1.117l19.095-3.488v85.388c0 37.99-24.055 72.047-59.859 84.75l-.738.262c-13.704 4.861-28.785 4.831-42.468-.087-35.596-12.793-59.512-46.801-59.512-84.625zm81.289 183.014-40.953-64.473c.09-.53.147-1.068.147-1.619v-24.399c4.454 2.385 9.108 4.477 13.956 6.22 8.518 3.062 17.472 4.592 26.429 4.592 8.849 0 17.701-1.495 26.129-4.485l.737-.262c4.993-1.771 9.785-3.909 14.362-6.357v24.691c0 .551.057 1.089.147 1.619z"/><path d="m442.228 304.927c-4.143 0-7.5 3.358-7.5 7.5v7.618c0 4.667 1.921 9.207 5.27 12.458l9.237 8.963c11.235 10.903 11.857 28.583 1.417 40.251-10.454 11.682-28.107 13.009-40.192 3.017-3.335-2.758-5.248-6.822-5.248-11.15v-.114c0-4.142-3.357-7.5-7.5-7.5s-7.5 3.358-7.5 7.5v.114c0 8.815 3.896 17.093 10.689 22.71 8.243 6.817 18.194 10.158 28.096 10.158 1.333 0 2.664-.071 3.991-.192v15.079c-3.748.253-7.527.15-11.234-.309-.897-.111-1.806-.245-2.701-.398-4.08-.703-7.96 2.042-8.66 6.125-.699 4.083 2.042 7.959 6.125 8.66 1.124.193 2.267.361 3.393.5 3.002.373 6.061.561 9.091.561 1.325 0 2.657-.045 3.987-.117v.809c0 6.33 2.465 12.282 6.941 16.758l3.981 3.982c1.465 1.465 3.384 2.197 5.304 2.197 1.919 0 3.838-.732 5.303-2.196 2.93-2.928 2.93-7.677.001-10.606l-3.981-3.983c-1.644-1.644-2.549-3.828-2.549-6.152v-35.047c5.103-2.448 9.826-5.914 13.842-10.402 15.828-17.687 14.884-44.489-2.148-61.019l-9.236-8.963c-.455-.442-.717-1.06-.717-1.694v-7.618c-.002-4.142-3.359-7.5-7.502-7.5z"/><path d="m435.658 375.736c4.143 0 7.5-3.358 7.5-7.5v-1.625c0-4.142-3.357-7.5-7.5-7.5s-7.5 3.358-7.5 7.5v1.625c0 4.142 3.357 7.5 7.5 7.5z"/><path d="m325.538 366.61v1.625c0 4.142 3.357 7.5 7.5 7.5s7.5-3.358 7.5-7.5v-1.625c0-4.142-3.357-7.5-7.5-7.5s-7.5 3.358-7.5 7.5z"/><path d="m459.75 412.809c-3.531 2.165-4.639 6.783-2.474 10.314 1.415 2.309 3.878 3.581 6.4 3.581 1.337 0 2.69-.357 3.913-1.107 6.149-3.77 11.732-8.437 16.596-13.871 2.763-3.087 2.499-7.828-.588-10.59-3.086-2.763-7.828-2.499-10.59.587-3.891 4.348-8.351 8.078-13.257 11.086z"/><path d="m308.946 412.809c-4.904-3.007-9.365-6.737-13.257-11.086-2.762-3.086-7.504-3.35-10.59-.587-3.087 2.762-3.351 7.503-.588 10.59 4.864 5.435 10.447 10.102 16.595 13.871 1.223.75 2.576 1.107 3.913 1.107 2.522 0 4.985-1.273 6.4-3.581 2.166-3.531 1.058-8.149-2.473-10.314z"/><path d="m375.09 427.433c3.218-1.759 6.329-3.773 9.259-5.99 2.942 2.226 6.044 4.234 9.254 5.989 1.143.625 2.376.921 3.592.921 2.653 0 5.225-1.411 6.587-3.903 1.987-3.634.652-8.191-2.981-10.179-3.289-1.798-6.438-3.931-9.412-6.38-.022-.019-.045-.037-.066-.056-4.043-3.344-9.909-3.342-13.966.018-2.956 2.443-6.139 4.603-9.459 6.418-3.635 1.986-4.971 6.543-2.984 10.178s6.542 4.97 10.176 2.984z"/><path d="m339.699 406.451c9.899 0 19.854-3.342 28.096-10.158 6.793-5.617 10.689-13.895 10.689-22.71v-.114c0-4.142-3.357-7.5-7.5-7.5s-7.5 3.358-7.5 7.5v.114c0 4.328-1.913 8.392-5.248 11.15-12.084 9.99-29.738 8.666-40.192-3.017-10.441-11.667-9.818-29.347 1.418-40.251l9.234-8.962c3.35-3.25 5.271-7.791 5.271-12.458v-7.618c0-4.142-3.357-7.5-7.5-7.5s-7.5 3.358-7.5 7.5v7.618c0 .635-.261 1.251-.717 1.694l-9.234 8.963c-17.034 16.53-17.978 43.333-2.149 61.019 4.016 4.488 8.739 7.955 13.842 10.403v35.047c0 2.324-.905 4.508-2.549 6.152l-3.982 3.982c-2.929 2.929-2.929 7.678 0 10.606 1.465 1.464 3.385 2.197 5.304 2.197s3.839-.732 5.304-2.197l3.982-3.982c4.477-4.477 6.941-10.428 6.941-16.758v-.809c1.331.072 2.662.117 3.987.117 3.029 0 6.088-.188 9.091-.561 1.132-.14 2.273-.309 3.394-.501 4.083-.701 6.824-4.579 6.123-8.661-.7-4.081-4.58-6.825-8.66-6.123-.891.153-1.799.287-2.7.399-3.706.459-7.487.561-11.234.309v-15.081c1.325.12 2.656.191 3.989.191z"/><path d="m182.494 198.029h11.749c.021 18.523 15.095 33.586 33.623 33.586 18.541 0 33.624-15.084 33.624-33.625s-15.083-33.624-33.624-33.624c-13.167 0-24.584 7.612-30.1 18.663h-18.796c-5.516-11.051-16.933-18.663-30.1-18.663-18.541 0-33.624 15.083-33.624 33.624s15.083 33.625 33.624 33.625c18.528 0 33.603-15.064 33.624-33.586zm45.372-18.663c10.27 0 18.625 8.354 18.625 18.624s-8.355 18.625-18.625 18.625-18.624-8.355-18.624-18.625 8.354-18.624 18.624-18.624zm-97.62 18.624c0-10.27 8.354-18.624 18.624-18.624s18.625 8.354 18.625 18.624-8.355 18.625-18.625 18.625-18.624-8.355-18.624-18.625z"/></g></svg>