<svg id="Capa_1" enable-background="new 0 0 512.752 512.752" height="512" viewBox="0 0 512.752 512.752" width="512" xmlns="http://www.w3.org/2000/svg"><g><path d="m183.45 176.621c0-2.516-.306-4.96-.869-7.305h11.133c-.563 2.346-.869 4.79-.869 7.305 0 17.274 14.053 31.327 31.326 31.327s31.327-14.053 31.327-31.327c0-17.273-14.054-31.327-31.327-31.327-8.551 0-16.31 3.448-21.968 9.021h-28.111c-5.658-5.574-13.417-9.021-21.968-9.021-17.273 0-31.327 14.053-31.327 31.327s14.054 31.327 31.327 31.327 31.326-14.053 31.326-31.327zm40.721-16.327c9.003 0 16.327 7.324 16.327 16.327s-7.324 16.327-16.327 16.327c-9.002 0-16.326-7.324-16.326-16.327 0-9.002 7.324-16.327 16.326-16.327zm-88.375 16.327c0-9.002 7.324-16.327 16.327-16.327 9.002 0 16.326 7.324 16.326 16.327s-7.324 16.327-16.326 16.327-16.327-7.324-16.327-16.327z"/><path d="m149.038 466.414c-4.143 0-7.5 3.358-7.5 7.5v31.146c0 4.142 3.357 7.5 7.5 7.5s7.5-3.358 7.5-7.5v-31.146c0-4.142-3.358-7.5-7.5-7.5z"/><path d="m470.294 289.881c-3.079-2.771-7.821-2.52-10.592.557-2.771 3.079-2.521 7.821.557 10.592 23.756 21.382 37.381 51.958 37.381 83.888 0 62.217-50.616 112.833-112.833 112.833s-112.834-50.617-112.834-112.833 50.617-112.833 112.834-112.833c17.667 0 34.59 3.974 50.299 11.812 3.705 1.849 8.211.343 10.06-3.363 1.85-3.707.344-8.21-3.362-10.059-17.809-8.885-36.984-13.39-56.996-13.39-58.218 0-107.467 39.121-122.85 92.453l-17.36-7.083v-30.841c18.508-14.445 31.774-34.802 37.43-57.729h.317c19.006 0 34.469-15.462 34.469-34.469 0-11.813-5.976-22.254-15.061-28.468l17.985-72.869c3.79-15.355.37-31.303-9.382-43.755-8.653-11.048-21.176-17.903-34.937-19.311-10.388-31.892-40.389-55.013-75.703-55.013h-24.003c-9.535 0-19.02 1.32-28.191 3.924-15.228 4.323-29.175 11.509-41.454 21.357-3.231 2.591-3.75 7.312-1.158 10.543 2.591 3.23 7.312 3.751 10.543 1.158 10.708-8.587 22.876-14.855 36.167-18.628 7.838-2.226 15.944-3.354 24.093-3.354h24.003c35.625 0 64.607 28.983 64.607 64.607 0 3.497-.985 6.908-2.849 9.867l-2.879 4.57c-.56-.335-1.126-.662-1.7-.978l-22.254-12.251c-3.745-2.062-8.471-1.389-11.491 1.633l-15.973 15.972c-.339.339-.81.534-1.29.534h-71.586c-23.049 0-41.801 18.751-41.801 41.8v44.381c-.588.061-1.172.138-1.751.228l-10.771-43.638c-6.94-28.124-1.618-58.038 14.602-82.072 2.317-3.433 1.412-8.095-2.021-10.412-3.434-2.318-8.096-1.412-10.412 2.021-18.587 27.541-24.685 61.823-16.73 94.057l11.263 45.63c-9.085 6.213-15.062 16.655-15.062 28.468 0 18.803 15.136 34.127 33.861 34.453 5.617 23.037 18.921 43.521 37.505 58.037v30.548l-57.463 23.445c-45.81 18.69-75.409 62.736-75.409 112.211v26.949c0 4.142 3.357 7.5 7.5 7.5s7.5-3.358 7.5-7.5v-26.949c0-43.352 25.937-81.946 66.075-98.323l55.351-22.583v81.746c0 4.142 3.357 7.5 7.5 7.5s7.5-3.358 7.5-7.5v-72.954c11.622 6.128 24.434 9.213 37.253 9.213 12.843 0 25.678-3.096 37.316-9.247v139.097c0 4.142 3.357 7.5 7.5 7.5s7.5-3.358 7.5-7.5v-147.829l17.524 7.15c-1.085 6.689-1.658 13.547-1.658 20.537 0 70.488 57.346 127.833 127.834 127.833 70.487 0 127.833-57.346 127.833-127.833 0-36.175-15.434-70.814-42.346-95.037zm-393.676-70.464c0-9.509 6.857-17.434 15.884-19.124v28.859c0 3.179.161 6.331.446 9.456-9.245-1.508-16.33-9.527-16.33-19.191zm207.973 19.328c.31-3.267.487-6.564.487-9.891v-28.691c9.442 1.336 16.734 9.449 16.734 19.254.001 9.974-7.541 18.209-17.221 19.328zm13.954-155.171c6.89 8.797 9.306 20.063 6.629 30.912l-17.493 70.877c-.857-.134-1.726-.227-2.603-.296v-44.313c0-14.039-5.41-27.287-14.727-37.228l3.815-6.056c3.374-5.355 5.157-11.532 5.157-17.862 0-2.979-.178-5.916-.499-8.811 7.742 1.901 14.667 6.324 19.721 12.777zm-191.044 145.579v-88.399c0-14.778 12.022-26.8 26.801-26.8h71.586c4.495 0 8.721-1.75 11.896-4.928l13.137-13.136 18.74 10.317c12.594 6.933 20.417 20.17 20.417 34.546v88.101c0 37.989-24.055 72.047-59.857 84.749l-.74.262c-13.703 4.862-28.786 4.831-42.468-.087-35.596-12.793-59.512-46.801-59.512-84.625zm40.483 116.61v-24.088c4.454 2.385 9.108 4.477 13.956 6.22 8.519 3.062 17.473 4.592 26.43 4.592 8.849 0 17.699-1.495 26.126-4.485l.74-.262c4.993-1.771 9.784-3.908 14.361-6.357v24.38c-23.723 19.247-57.89 19.247-81.613 0z"/><path d="m457.267 395.765c1.878-8.579.274-17.356-4.516-24.717l-32.686-50.217c-.26-.398-.396-.861-.396-1.338v-24.741c0-4.142-3.357-7.5-7.5-7.5s-7.5 3.358-7.5 7.5v24.741c0 3.391.978 6.685 2.826 9.523l32.684 50.215c2.583 3.968 3.447 8.7 2.435 13.325s-3.775 8.563-7.78 11.089c-6.918 4.364-15.825 3.408-21.661-2.327l-6.325-6.217c-2.952-2.902-7.702-2.864-10.605.092-1.535 1.561-2.238 3.623-2.133 5.649-6.058 3.296-13.418 3.296-19.476 0 .105-2.026-.598-4.088-2.132-5.648-2.904-2.954-7.651-2.996-10.606-.092l-6.326 6.217c-5.836 5.733-14.742 6.69-21.661 2.326-4.004-2.525-6.767-6.463-7.779-11.088-1.013-4.625-.148-9.358 2.435-13.326l32.684-50.216c1.849-2.841 2.826-6.134 2.826-9.522v-24.741c0-4.142-3.357-7.5-7.5-7.5s-7.5 3.358-7.5 7.5v24.741c0 .477-.138.94-.398 1.34l-32.684 50.215c-4.79 7.36-6.394 16.138-4.516 24.716s7.003 15.883 14.431 20.568c5.378 3.392 11.404 5.051 17.387 5.051 7.954 0 15.827-2.94 22.004-8.631 5.796 3.712 12.433 5.576 19.074 5.576s13.278-1.864 19.074-5.576c6.178 5.691 14.05 8.631 22.004 8.631 5.982 0 12.009-1.659 17.387-5.052 7.425-4.684 12.55-11.988 14.429-20.566z"/><path d="m359.652 352.559v3.485c0 4.142 3.357 7.5 7.5 7.5s7.5-3.358 7.5-7.5v-3.485c0-4.142-3.357-7.5-7.5-7.5s-7.5 3.358-7.5 7.5z"/><path d="m401.159 372.271v-3.485c0-4.142-3.357-7.5-7.5-7.5s-7.5 3.358-7.5 7.5v3.485c0 4.142 3.357 7.5 7.5 7.5s7.5-3.358 7.5-7.5z"/><path d="m410.606 429.82c-3.962 0-7.656 1.775-10.136 4.871-12.733 15.89-12.733 22.766-12.733 25.025 0 12.61 10.259 22.87 22.869 22.87s22.87-10.259 22.87-22.87c0-2.259 0-9.134-12.734-25.025-2.48-3.096-6.174-4.871-10.136-4.871zm0 37.765c-4.339 0-7.869-3.53-7.869-7.863.029-1.036 1.544-5.405 7.869-13.651 6.321 8.241 7.838 12.608 7.87 13.648-.002 4.338-3.532 7.866-7.87 7.866z"/></g></svg>