<svg id="Capa_1" enable-background="new 0 0 512.528 512.528" height="512" viewBox="0 0 512.528 512.528" width="512" xmlns="http://www.w3.org/2000/svg"><g><path d="m37.882 389.236c-24.074 22.795-37.882 54.877-37.882 88.017v26.949c0 4.142 3.358 7.5 7.5 7.5s7.5-3.358 7.5-7.5v-26.949c0-29.039 12.1-57.149 33.196-77.125 3.008-2.848 3.137-7.595.289-10.603-2.847-3.008-7.595-3.139-10.603-.289z"/><path d="m451.585 275.111c-3.526-2.168-8.147-1.069-10.318 2.458-2.17 3.528-1.07 8.147 2.458 10.318 33.689 20.726 53.802 56.678 53.802 96.172 0 62.217-50.617 112.833-112.833 112.833s-112.833-50.615-112.833-112.832 50.617-112.833 112.833-112.833c10.695 0 21.288 1.499 31.483 4.455 3.98 1.155 8.139-1.137 9.292-5.114 1.154-3.979-1.136-8.139-5.115-9.292-11.553-3.35-23.551-5.049-35.66-5.049-58.218 0-107.466 39.12-122.849 92.453l-17.36-7.083v-30.83c25.027-19.539 40.482-49.889 40.482-82.771v-11.968h.266c19.006 0 34.468-15.462 34.468-34.469 0-12.592-6.79-23.622-16.897-29.637l1.372-39.53c.614-17.708-5.173-35.057-16.295-48.85-10.703-13.274-25.672-22.417-42.324-25.897l-40.732-33.459c-5.908-4.854-14.369-4.718-20.119.324l-9.229 8.092-6.876-1.273c-6.06-1.123-12.255.838-16.567 5.248l-20.691 21.161c-12.737 2.742-24.501 8.8-34.154 17.611-3.059 2.792-3.276 7.536-.483 10.596 2.792 3.059 7.535 3.275 10.596.483 8.169-7.457 18.238-12.438 29.116-14.405 1.532-.277 2.939-1.024 4.028-2.137l22.314-22.822c.81-.828 1.974-1.196 3.11-.985l10.452 1.936c2.259.419 4.584-.221 6.311-1.735l11.962-10.489c.203-.177.5-.183.709-.012l42.197 34.66c.988.812 2.167 1.357 3.425 1.585 13.89 2.512 26.418 9.947 35.278 20.935s13.47 24.808 12.98 38.914l-1.226 35.337c-.9-.071-1.807-.118-2.726-.118h-.266v-7.208c0-28.749-19.526-53.391-47.485-59.925-7.981-1.866-16.372-1.257-24.266 1.758l-11.008 4.204c-8.725 3.333-18.335 3.333-27.061 0l-11.007-4.204c-7.895-3.015-16.286-3.624-24.267-1.758-27.964 6.537-47.49 31.185-47.484 59.938v.001 7.208c-1.011.017-2.014.069-3.002.172l-1.229-35.406c-.248-7.155.787-14.197 3.076-20.931 1.333-3.921-.766-8.182-4.688-9.515s-8.182.766-9.515 4.688c-2.875 8.459-4.176 17.301-3.865 26.278l1.39 40.053c-9.637 6.118-16.052 16.878-16.052 29.114 0 18.807 15.142 34.134 33.874 34.454-.001 4.084-.002 8.177-.003 12.233-.01 32.838 15.455 63.211 40.496 82.78v30.572l-57.463 23.445c-3 1.224-6.068 2.631-9.121 4.181-3.693 1.876-5.166 6.39-3.291 10.083 1.323 2.604 3.958 4.105 6.693 4.105 1.143 0 2.302-.262 3.391-.814 2.686-1.364 5.376-2.598 7.995-3.667l56.516-23.059c1.252 1.044 2.535 2.029 3.834 2.984v145.346c0 4.142 3.358 7.5 7.5 7.5s7.5-3.358 7.5-7.5v-136.64c10.245 4.521 21.246 6.79 32.252 6.79 12.843 0 25.678-3.096 37.316-9.246v139.097c0 4.142 3.358 7.5 7.5 7.5s7.5-3.358 7.5-7.5v-147.83l17.524 7.15c-1.085 6.689-1.658 13.547-1.658 20.537 0 70.488 57.346 127.833 127.833 127.833s127.833-57.346 127.833-127.833c.004-44.744-22.778-85.472-60.939-108.949zm-204.363-49.365c1.923 19.587 1.919 39.703-.012 59.79-.224 2.332-2.034 4.202-4.304 4.448-35.875 3.881-72.256 3.863-108.131-.054-2.206-.241-3.969-1.97-4.288-4.205-2.868-20.081-2.868-40.314 0-60.139.318-2.204 2.056-3.929 4.224-4.194 18.044-2.211 36.21-3.316 54.382-3.316 18.003 0 36.012 1.085 53.89 3.257 2.232.269 4.015 2.125 4.239 4.413zm-58.13 82.134c11.47 0 22.943-.384 34.384-1.147-4.239 2.343-8.7 4.37-13.366 6.026l-1.87.664c-12.956 4.6-27.216 4.572-40.153-.078l-1.083-.39c-4.82-1.732-9.417-3.864-13.779-6.327 11.933.832 23.899 1.252 35.867 1.252zm74.5-46.717c.219-12.402-.249-24.738-1.441-36.883-.229-2.33-.843-4.534-1.778-6.548l9.594-16.782v27.045c0 11.588-2.249 22.806-6.375 33.168zm21.641-99.073c10.735 0 19.468 8.734 19.468 19.469s-8.733 19.469-19.468 19.469h-.266v-38.938zm-177.843-22.197c-.005-21.749 14.757-40.389 35.898-45.331 1.895-.443 3.832-.663 5.782-.663 3.252 0 6.539.613 9.719 1.827l11.007 4.204c12.176 4.65 25.587 4.651 37.765 0l11.008-4.204c5.087-1.942 10.447-2.346 15.5-1.164 21.137 4.94 35.899 23.576 35.899 45.332v30.833l-20.983 36.702c-1.337-.467-2.734-.813-4.193-.99-37.128-4.509-74.778-4.488-111.904.062-1.623.199-3.185.599-4.664 1.167l-20.836-37.284c.002-17.967.002-30.49.002-30.49 0 0 0 0 0-.001zm-33.884 41.665c0-10.537 8.42-19.126 18.883-19.439-.001 10.716-.002 24.38-.005 38.878-10.461-.316-18.878-8.903-18.878-19.439zm33.877 19.567 9.674 17.312c-.675 1.573-1.162 3.248-1.416 5.001-1.771 12.243-2.515 24.629-2.245 37.042-3.9-10.107-6.023-20.998-6.02-32.23.003-9.027.005-18.231.007-27.125zm40.489 143.775v-24.097c4.485 2.405 9.173 4.514 14.058 6.269l1.083.39c8.142 2.926 16.7 4.389 25.26 4.389 8.463 0 16.927-1.431 24.987-4.292l1.87-.664c4.991-1.772 9.78-3.909 14.355-6.358v24.367c-23.723 19.247-57.89 19.245-81.613-.004z"/><path d="m434.755 397.275 5.448 4.716c9.604 8.313 11.623 22.609 4.696 33.256-5.776 8.876-16.602 13.302-26.943 11.011l-21.068-4.667c-9.263-2.052-18.697-2.253-28.04-.597l-36.064 6.391c-3.093.546-6.242-.295-8.646-2.311-2.405-2.016-3.784-4.972-3.784-8.109 0-3.158 1.394-6.126 3.824-8.143s5.604-2.841 8.707-2.259l4.964.93c5.987 1.118 12.129-.444 16.849-4.295l19.839-16.187c4.606-3.757 7.248-9.322 7.248-15.267v-93.493c0-4.142-3.358-7.5-7.5-7.5s-7.5 3.358-7.5 7.5v93.493c0 1.419-.63 2.747-1.73 3.644l-19.839 16.187c-1.29 1.053-2.971 1.481-4.605 1.174l-4.964-.93c-7.502-1.406-15.176.585-21.05 5.461s-9.243 12.051-9.243 19.685c0 7.585 3.334 14.731 9.147 19.604 4.65 3.898 10.454 5.981 16.414 5.981 1.49 0 2.992-.13 4.486-.396l36.064-6.391c7.388-1.311 14.852-1.15 22.179.473l21.068 4.666c16.411 3.638 33.593-3.388 42.759-17.475 10.995-16.896 7.791-39.586-7.452-52.778l-2.856-2.473v-77.108c0-4.142-3.358-7.5-7.5-7.5s-7.5 3.358-7.5 7.5v80.536c.001 2.177.946 4.246 2.592 5.671z"/></g></svg>