<svg id="Capa_1" enable-background="new 0 0 511.849 511.849" height="512" viewBox="0 0 511.849 511.849" width="512" xmlns="http://www.w3.org/2000/svg"><path d="m425.75 311.446c0-7.226-5.879-13.105-13.105-13.105h-57.26c-7.226 0-13.105 5.879-13.105 13.105v62.423l-25.032 51.3c-4.653 9.535-4.074 20.6 1.547 29.598s15.312 14.37 25.922 14.37h78.597c10.61 0 20.3-5.372 25.921-14.37s6.2-20.063 1.547-29.598l-25.032-51.3zm-69.23 67.445c.5-1.024.76-2.149.76-3.289v-62.261h53.471v62.261c0 1.14.26 2.265.76 3.289l9.07 18.587h-73.13zm79.994 67.929c-2.905 4.651-7.717 7.318-13.2 7.318h-78.597c-5.483 0-10.295-2.667-13.201-7.318-2.905-4.65-3.192-10.144-.788-15.072l9.403-19.27h87.768l9.403 19.27c2.405 4.928 2.117 10.421-.788 15.072z"/><path d="m470.265 289.392c-3.057-2.795-7.801-2.584-10.596.472-2.796 3.057-2.584 7.801.472 10.596 23.328 21.336 36.708 51.69 36.708 83.279 0 62.217-50.617 112.833-112.833 112.833s-112.833-50.617-112.833-112.833 50.617-112.833 112.833-112.833c18.15 0 35.479 4.177 51.505 12.415 3.684 1.894 8.206.443 10.099-3.242 1.894-3.684.442-8.206-3.242-10.099-18.168-9.339-37.805-14.074-58.363-14.074-55.209 0-102.353 35.182-120.197 84.303-1.453-1.939-3.347-3.54-5.571-4.611l-5.16-2.484c-2.705-1.303-5.692-1.744-8.602-1.36v-21.776c24.687-19.549 39.907-49.676 39.907-82.304v-13.979c18.242-.865 32.816-15.975 32.816-34.427 0-7.919-2.691-15.217-7.197-21.043l3.397-27.311c2.375-19.103-2.207-38.437-12.904-54.44l-4.972-7.439c-.585-5.876-3.165-11.443-7.363-15.69-19.13-19.347-41.537-34.528-66.598-45.122-12.478-5.274-25.673-7.949-39.221-7.949-27.475 0-54.099 11.439-73.044 31.385-2.853 3.003-2.73 7.75.273 10.603 3.002 2.852 7.75 2.73 10.603-.273 16.127-16.978 38.786-26.715 62.168-26.715 11.53 0 22.761 2.276 33.38 6.765 23.245 9.826 44.028 23.907 61.772 41.852 2.188 2.214 3.306 5.145 3.146 8.253-.16 3.109-1.572 5.909-3.976 7.886l-101.492 83.46c-13.593 11.178-30.755 16.866-48.337 15.998-15.834-.776-31.126-6.952-43.059-17.389l-20.209-17.677c-.053-.047-.165-.144-.153-.363.012-.218.133-.302.191-.343l10.966-7.643c2.793-1.947 4.898-4.662 6.088-7.85l21.366-57.21c.498-1.333 1.073-2.737 1.809-4.416 1.662-3.794-.066-8.217-3.86-9.879-3.793-1.663-8.217.066-9.879 3.86-.85 1.939-1.524 3.588-2.121 5.188l-21.366 57.211c-.12.321-.332.595-.614.791l-10.965 7.643c-3.926 2.736-6.328 7.045-6.591 11.823s1.651 9.326 5.253 12.478l9.063 7.927c-2.448 4.813-3.763 10.175-3.763 15.628 0 18.452 14.575 33.561 32.816 34.427v14.278c0 6.443.609 12.956 1.81 19.359.676 3.604 3.825 6.119 7.363 6.119.458 0 .924-.042 1.391-.13 4.071-.764 6.752-4.683 5.989-8.754-1.03-5.494-1.553-11.077-1.553-16.594v-36.718c6.266 1.793 12.739 2.896 19.294 3.217 1.411.069 2.817.104 4.223.103 19.82 0 38.989-6.844 54.376-19.497l76.344-62.78c5.32 5.284 8.341 12.466 8.341 20.028v95.348c0 37.99-24.055 72.048-59.855 84.749l-.742.263c-13.704 4.862-28.786 4.831-42.468-.087-20.075-7.214-36.982-21.4-47.607-39.945-2.059-3.594-6.642-4.838-10.236-2.779-3.594 2.06-4.838 6.642-2.779 10.236 6.959 12.146 16.23 22.688 27.168 31.09v20.553c-2.91-.384-5.897.058-8.602 1.36l-5.161 2.485c-3.87 1.864-6.787 5.295-8.005 9.414-.52 1.759-.692 3.58-.567 5.377l-35.128 14.332c-45.811 18.69-75.411 62.736-75.411 112.211v26.949c0 4.142 3.358 7.5 7.5 7.5s7.5-3.358 7.5-7.5v-26.949c0-43.352 25.937-81.946 66.076-98.323l4.059-1.656v54.309c0 3.567 2.513 6.641 6.009 7.35l10.147 2.059-3.167 27.44c-.233 2.022.365 4.052 1.659 5.625l28.715 34.909c1.483 1.803 3.631 2.736 5.796 2.735 1.677 0 3.364-.56 4.76-1.708 3.199-2.631 3.659-7.357 1.027-10.557l-26.691-32.449 3.591-31.117c.446-3.869-2.143-7.436-5.959-8.21l-10.887-2.209v-54.298l16.686-6.808 16.498 27.091-.446 33.189c-.009.71.082 1.419.272 2.104l22.033 79.474c.921 3.322 3.937 5.499 7.223 5.499.664 0 1.338-.089 2.008-.274 3.18-.882 5.305-3.686 5.48-6.807l.006-.078c.009-.188 3.362-67.96 3.362-67.96l5.041-14.887h20.763l5.041 14.887s3.353 67.772 3.362 67.96v.083l.007.002c.178 3.119 2.302 5.919 5.479 6.8.671.186 1.345.274 2.008.274 3.286 0 6.302-2.177 7.223-5.499l22.033-79.474c.19-.685.281-1.394.272-2.104l-.446-33.189 12.888-21.164c-.488 4.53-.746 9.129-.746 13.787 0 15.613 2.819 30.579 7.965 44.422-2.565 1.446-4.125 4.32-3.771 7.389l3.591 31.117-26.691 32.449c-2.631 3.199-2.171 7.925 1.027 10.557 1.396 1.149 3.083 1.708 4.76 1.708 2.166 0 4.314-.933 5.796-2.735l28.715-34.909c1.293-1.572 1.892-3.603 1.659-5.625l-1.559-13.51c22.946 34.322 62.046 56.97 106.341 56.97 70.488 0 127.833-57.346 127.833-127.833.001-35.787-15.156-70.175-41.583-94.346zm-378.45-90.738c-9.963-.843-17.816-9.207-17.816-19.385 0-1.791.248-3.533.714-5.205 5.241 4.47 10.988 8.283 17.103 11.355v13.235zm210.393-19.385c0 10.177-7.854 18.542-17.816 19.385v-38.77c9.963.843 17.816 9.208 17.816 19.385zm-16.008-87.651c1.379-1.134 2.625-2.403 3.729-3.776 7.326 12.381 10.378 26.879 8.594 41.221l-2.299 18.486c-3.664-1.563-7.651-2.509-11.831-2.707v-12.516c0-11.07-4.219-21.616-11.71-29.592zm-138.328 229.186c4.3 2.267 8.766 4.252 13.381 5.911 8.518 3.062 17.475 4.593 26.432 4.593 8.848 0 17.696-1.495 26.122-4.484l.742-.263c5.201-1.845 10.188-4.077 14.937-6.656v17.786l-40.807 18.041-40.807-18.04zm10.845 111.628c-.22.649-.35 1.326-.386 2.01l-1.182 22.41-9.264-33.417.345-25.682c.736-.272 1.458-.595 2.139-1.021l4.574-2.86c-.202 3.764.609 7.555 2.415 10.941l5.664 10.626c.278.521.602 1.006.95 1.469zm-13.303-50.292-19.9-32.678c-.022-.037-.057-.093-.026-.197s.09-.133.128-.151l5.16-2.485c.034-.016.07-.024.106-.024.034 0 .068.007.1.021h-.001l41.727 18.447zm61.348 15.617-4.595 8.619h-26.977l-4.595-8.62c-.784-1.47-.905-3.21-.334-4.775l4.109-11.256 14.308-8.947 14.307 8.947 4.11 11.257c.572 1.564.45 3.305-.333 4.775zm13.445 59.095-1.182-22.41c-.036-.685-.166-1.361-.386-2.01l-5.256-15.525c.349-.463.673-.948.951-1.469l5.664-10.624c1.806-3.387 2.617-7.178 2.415-10.942l4.574 2.86c.682.426 1.403.749 2.139 1.022l.345 25.682zm31.636-107.39-19.9 32.678-27.294-17.067 41.726-18.447c.065-.029.14-.029.206.004l5.159 2.484c.04.019.099.047.129.152.03.103-.003.159-.026.196z"/></svg>