<svg id="Capa_1" enable-background="new 0 0 511.907 511.907" height="512" viewBox="0 0 511.907 511.907" width="512" xmlns="http://www.w3.org/2000/svg"><g><path d="m19.89 451.745c-4.084-.653-7.936 2.13-8.591 6.22-.981 6.128-1.479 12.346-1.479 18.482v27.439c0 4.143 3.358 7.5 7.5 7.5s7.5-3.357 7.5-7.5v-27.439c0-5.345.434-10.766 1.29-16.111.655-4.09-2.13-7.937-6.22-8.591z"/><path d="m173.198 185.142h10.154c.264 17.443 14.527 31.555 32.032 31.555 17.669 0 32.044-14.375 32.044-32.044s-14.375-32.044-32.044-32.044c-12.448 0-23.253 7.139-28.556 17.533h-17.105c-5.304-10.394-16.108-17.533-28.556-17.533-17.669 0-32.044 14.375-32.044 32.044s14.375 32.044 32.044 32.044c17.504-.001 31.767-14.112 32.031-31.555zm42.185-17.534c9.398 0 17.044 7.646 17.044 17.044s-7.646 17.044-17.044 17.044-17.044-7.646-17.044-17.044 7.646-17.044 17.044-17.044zm-74.217 34.088c-9.398 0-17.044-7.646-17.044-17.044s7.646-17.044 17.044-17.044 17.044 7.646 17.044 17.044-7.646 17.044-17.044 17.044z"/><path d="m446.502 278.61c-3.416-2.346-8.086-1.476-10.428 1.939-2.344 3.415-1.476 8.084 1.939 10.428 30.729 21.089 49.073 55.891 49.073 93.097 0 62.217-50.617 112.833-112.834 112.833s-112.832-50.616-112.832-112.833 50.617-112.834 112.833-112.834c12.675 0 25.127 2.092 37.011 6.216 3.91 1.361 8.187-.713 9.544-4.626 1.358-3.913-.713-8.187-4.626-9.544-13.469-4.676-27.575-7.046-41.929-7.046-59.893 0-110.289 41.406-124.088 97.094l-2.892-1.324c-3.944-1.805-8.242-1.961-12.126-.787-.098-.048-.192-.103-.294-.147l-8.652-3.796v-30.347c17.02-10.451 30.468-25.661 38.83-43.488h1.944c17.451 0 33.97-6.683 46.513-18.815 19.229-18.604 25.523-46.788 16.035-71.805l-40.503-106.779c-4.27-11.255-10.203-21.74-17.634-31.164-2.566-3.253-7.282-3.808-10.533-1.246-3.253 2.565-3.811 7.281-1.246 10.533 6.484 8.223 11.661 17.373 15.388 27.197l40.503 106.779c7.361 19.406 2.479 41.271-12.44 55.703-8.827 8.54-20.194 13.583-32.337 14.449 2.506-8.753 3.856-17.928 3.901-27.323 17.115-2.746 30.234-17.613 30.234-35.49 0-17.874-13.114-32.738-30.225-35.488v-16.601c0-10.852-8.829-19.68-19.681-19.68h-76.608c-19.101 0-34.641-15.54-34.641-34.642 0-3.773-1.828-7.345-4.89-9.551-3.063-2.208-7.029-2.813-10.611-1.617l-10.187 3.399c-21.509 7.178-35.961 27.235-35.961 49.91v28.959c-16.618 3.159-29.225 17.785-29.225 35.309s12.607 32.151 29.225 35.309c.002 9.423 1.324 18.634 3.809 27.424-11.728-1.084-22.676-6.088-31.236-14.369-14.918-14.432-19.801-36.296-12.44-55.703l40.505-106.777c7.435-19.601 20.484-36.256 37.736-48.164 17.253-11.908 37.453-18.202 58.416-18.202 21.059 0 41.339 6.352 58.646 18.369 3.401 2.361 8.074 1.519 10.438-1.884 2.362-3.402 1.519-8.076-1.884-10.438-19.83-13.769-43.068-21.047-67.2-21.047-24.021 0-47.167 7.213-66.937 20.857-19.77 13.646-34.722 32.729-43.241 55.188l-40.502 106.78c-9.488 25.017-3.194 53.202 16.036 71.805 12.542 12.133 29.06 18.815 46.512 18.815.271 0 .538-.016.801-.044 8.331 17.914 21.789 33.218 38.838 43.732v30.146l-8.652 3.796c-.101.044-.195.099-.294.147-3.884-1.174-8.183-1.019-12.126.787l-44.677 20.453c-4.622 2.115-8.057 6.136-9.423 11.032-.063.225-.097.452-.15.678-13.996 10.865-25.47 24.947-33.293 40.912-1.823 3.72-.285 8.213 3.435 10.035 1.062.521 2.187.768 3.295.768 2.772 0 5.438-1.544 6.74-4.201 5.852-11.943 14.046-22.676 23.959-31.464l24.19 35.572c1.973 2.901 5.695 4.046 8.96 2.757l6.69-2.647 73.974 73.813c1.434 1.432 3.35 2.191 5.299 2.191.968 0 1.943-.188 2.873-.572 1.103-.458 2.047-1.166 2.796-2.034.003.011 70.683-70.488 73.507-73.305 19.942 44.686 64.792 75.911 116.802 75.911 70.488 0 127.834-57.346 127.834-127.833-.001-42.152-20.78-81.578-55.586-105.465zm-156.646-83.126c0 9.565-6.45 17.635-15.225 20.134v-40.268c8.775 2.499 15.225 10.569 15.225 20.134zm-222.027 0c0-9.198 5.966-17.012 14.225-19.822v39.644c-8.259-2.81-14.225-10.624-14.225-19.822zm29.225 35.29v-99.559c0-16.211 10.332-30.55 25.709-35.682l6.133-2.047c2.24 25.313 23.561 45.229 49.446 45.229h76.608c2.581 0 4.681 2.1 4.681 4.68v87.091c0 36.508-23.117 69.238-57.524 81.444l-4.254 1.509c-12.941 4.593-27.186 4.563-40.109-.082l-3.5-1.258c-34.207-12.293-57.19-44.975-57.19-81.325zm73.72 255.554-64.659-64.518c-1.433-1.431-3.348-2.191-5.299-2.191-.927 0-1.862.172-2.757.525l-5.681 2.248-22.451-33.015c-.506-.744-.407-1.479-.303-1.852.104-.371.4-1.051 1.218-1.426l44.677-20.452c1.1-.502 2.418-.024 2.938 1.069l52.317 110.116zm7.5-28.663-45.225-95.19 7.812-3.427c2.726-1.196 4.487-3.892 4.487-6.868v-27.429c1.261.511 2.534 1.001 3.823 1.464l3.5 1.258c8.136 2.925 16.69 4.387 25.245 4.387 8.451 0 16.904-1.428 24.953-4.283l4.254-1.509c1.376-.488 2.734-1.01 4.079-1.553v27.666c0 2.977 1.761 5.672 4.487 6.868l7.812 3.427zm72.158-35.854-64.658 64.518v-9.494l52.317-110.116c.519-1.094 1.837-1.574 2.938-1.069l6.336 2.901c-.619 5.09-.945 10.27-.945 15.525 0 12.746 1.884 25.059 5.373 36.684-.483.297-.947.637-1.361 1.051z"/><path d="m380.333 319.298c-3.207 2.327-7.515 2.329-10.722 0-18.896-13.727-44.877-13.176-63.178 1.339-22.018 17.465-26.315 48.948-9.784 71.675l22.321 30.686 3.447 32.665c1.088 10.303 9.721 18.072 20.081 18.072 9.709 0 18.056-6.926 19.846-16.469l6.107-32.566c.589-3.136 3.33-5.411 6.52-5.411s5.932 2.275 6.52 5.411l6.108 32.566c1.79 9.543 10.137 16.469 19.846 16.469 10.359 0 18.992-7.77 20.08-18.072l3.447-32.665 22.321-30.686c16.531-22.727 12.233-54.21-9.785-71.675-18.297-14.515-44.277-15.066-63.175-1.339zm53.855 13.091c15.697 12.451 18.762 34.896 6.976 51.099l-23.503 32.312c-.774 1.065-1.255 2.315-1.394 3.625l-3.659 34.664c-.279 2.648-2.499 4.646-5.162 4.646-2.497 0-4.643-1.781-5.104-4.234l-6.107-32.565c-1.917-10.225-10.859-17.646-21.263-17.646-10.402 0-19.344 7.421-21.262 17.646l-6.107 32.566c-.461 2.453-2.606 4.234-5.104 4.234-2.664 0-4.884-1.998-5.163-4.646l-3.658-34.664c-.139-1.31-.619-2.56-1.394-3.625l-23.504-32.312c-11.786-16.202-8.722-38.647 6.975-51.099 13.046-10.347 31.567-10.74 45.042-.954 8.478 6.157 19.871 6.158 28.351 0 13.475-9.787 31.994-9.393 45.04.953z"/><path d="m360.044 351.655c-3.46-2.169-8.023-1.16-10.257 2.276-2.258 3.473-1.263 8.125 2.21 10.382.063.041.127.081.191.12 6.811 4.141 14.789 6.211 22.768 6.211 7.988 0 15.979-2.076 22.794-6.227 3.537-2.154 4.659-6.769 2.504-10.307-2.153-3.538-6.768-4.659-10.307-2.504-8.936 5.444-20.943 5.46-29.903.049z"/></g></svg>