<svg id="Capa_1" enable-background="new 0 0 512.074 512.074" height="512" viewBox="0 0 512.074 512.074" width="512" xmlns="http://www.w3.org/2000/svg"><g><path d="m21.489 425.759c-3.775-1.699-8.217-.02-9.919 3.757-7.05 15.646-10.624 32.263-10.624 49.391v25.147c0 4.143 3.357 7.5 7.5 7.5s7.5-3.357 7.5-7.5v-25.147c0-14.989 3.129-29.533 9.3-43.229 1.701-3.777.019-8.218-3.757-9.919z"/><path d="m93.267 468.258h-14.218v-.155c0-4.143-3.357-7.5-7.5-7.5s-7.5 3.357-7.5 7.5v.155h-14.216c-4.143 0-7.5 3.357-7.5 7.5v28.295c0 4.143 3.357 7.5 7.5 7.5s7.5-3.357 7.5-7.5v-20.795h7.441c1.202 2.539 3.779 4.3 6.775 4.3s5.574-1.76 6.775-4.3h7.442v20.795c0 4.143 3.357 7.5 7.5 7.5s7.5-3.357 7.5-7.5v-28.295c.001-4.143-3.356-7.5-7.499-7.5z"/><path d="m477.778 298.136c-21.361-23.426-50.433-38.024-81.857-41.107-4.121-.401-7.792 2.609-8.196 6.731s2.609 7.792 6.731 8.196c14.147 1.388 27.751 5.429 40.192 11.795l-8.13 8.13c-3.225 3.227-7.671 4.797-12.215 4.308l-22.391-2.411c-11.801-1.267-23.631 2.549-32.461 10.479-8.83 7.931-13.895 19.286-13.895 31.154 0 2.528.237 5 .668 7.406-2.406-.431-4.878-.668-7.406-.668-11.868 0-23.223 5.064-31.152 13.894-7.931 8.831-11.75 20.663-10.479 32.463l2.411 22.391c.488 4.537-1.082 8.989-4.308 12.215l-12.463 12.462c-7.904-15.407-12.366-32.857-12.366-51.331 0-26.844 9.587-52.852 26.996-73.232 17.22-20.159 41.018-33.665 67.01-38.029 4.085-.686 6.84-4.554 6.154-8.639s-4.554-6.842-8.639-6.154c-13.662 2.294-26.786 6.818-38.879 13.284l-18.236-134.558c-.556-4.105-4.348-6.99-8.438-6.425-4.105.556-6.981 4.334-6.425 8.438l19.137 141.204c-8.472 6.037-16.242 13.12-23.089 21.136-9.063 10.61-16.25 22.568-21.377 35.343h-46.212v-19.905c29.241-18.256 47.794-50.631 47.794-86.051v-80.271c0-4.143-3.357-7.5-7.5-7.5s-7.5 3.357-7.5 7.5v13.15l-25.162-5.813c-.77-.178-1.307-.854-1.307-1.643v-35.814c0-4.143-3.357-7.5-7.5-7.5s-7.5 3.357-7.5 7.5v29.134h-25.984c-3.493 0-6.336-2.842-6.336-6.335v-22.799c0-4.143-3.357-7.5-7.5-7.5s-7.5 3.357-7.5 7.5v22.799c0 3.493-2.842 6.335-6.335 6.335h-25.985v-29.134c0-4.143-3.357-7.5-7.5-7.5s-7.5 3.357-7.5 7.5v35.814c0 .789-.537 1.465-1.307 1.643l-25.161 5.813v-13.15c0-4.143-3.357-7.5-7.5-7.5s-7.5 3.357-7.5 7.5v80.559c0 35.379 18.563 67.782 47.794 86.046v19.622h-47.476c-12.826 0-25.021-5.54-33.459-15.199-8.438-9.658-12.29-22.487-10.567-35.197l22.893-168.91c3.841-28.34 17.817-54.31 39.355-73.125s49.149-29.18 77.748-29.18c26.927 0 53.287 9.313 74.224 26.222 20.826 16.82 35.45 40.44 41.177 66.511.889 4.046 4.885 6.607 8.935 5.716 4.045-.889 6.604-4.889 5.716-8.935-6.455-29.386-22.935-56.008-46.402-74.961-23.598-19.058-53.305-29.553-83.65-29.553-32.229 0-63.346 11.678-87.617 32.882-24.272 21.203-40.022 50.47-44.351 82.407l-22.892 168.909c-2.305 17.001 2.847 34.161 14.134 47.081s27.6 20.33 44.756 20.33h27.24l-22.616 8.37c-4.772 1.766-8.198 5.745-9.384 10.464-14.916 7.137-27.981 17.098-38.873 29.662-2.713 3.13-2.375 7.867.754 10.58 1.42 1.23 3.169 1.833 4.91 1.833 2.099 0 4.187-.877 5.67-2.587 8.129-9.378 17.644-17.094 28.362-23.039l3.662 34.132c.409 3.811 3.625 6.7 7.457 6.7h4.524l54.389 80.525c1.427 2.113 3.781 3.303 6.217 3.303.901 0 1.814-.163 2.695-.503 3.261-1.257 5.222-4.599 4.728-8.058l-16.898-118.369 18.974 17.399c4.037 3.702 9.099 5.553 14.161 5.553s10.123-1.851 14.159-5.553l19.481-17.865-16.965 118.834c-.494 3.459 1.467 6.801 4.728 8.058.881.34 1.793.503 2.695.503 2.436 0 4.79-1.189 6.217-3.303l54.389-80.525h4.524c1.291 0 2.505-.326 3.566-.901 17.581 49.613 64.969 85.249 120.532 85.249 70.487 0 127.833-57.346 127.833-127.833-.001-31.938-11.844-62.517-33.351-86.102zm-218.072 53.473c-.612 2.317-1.162 4.651-1.644 7.002l-18.922-7.002zm-171.026-120.668v-52.013l28.538-6.594c4.675-1.081 8.477-4.023 10.721-7.938h28.194c5.279 0 10.106-1.938 13.835-5.125 3.729 3.188 8.557 5.125 13.836 5.125h28.193c2.244 3.916 6.046 6.858 10.721 7.938l28.539 6.594v51.725c0 36.508-23.117 69.237-57.523 81.444l-4.255 1.509c-12.941 4.592-27.186 4.562-40.109-.082l-3.5-1.258c-34.207-12.293-57.19-44.975-57.19-81.325zm7.224 185.086c-1.395-2.064-3.724-3.302-6.215-3.302h-1.762l-4.1-38.678s28.384-10.72 29.082-11.363c.003.003.006.006.009.009l6.481 5.944 14.876 104.202zm78.086-25.058c-2.292 2.104-5.749 2.103-8.043 0l-34.412-31.556.452-.198c2.727-1.196 4.487-3.892 4.487-6.868v-27.643c1.425.587 2.863 1.153 4.323 1.678l3.499 1.258c8.137 2.925 16.69 4.387 25.245 4.387 8.451 0 16.904-1.428 24.952-4.283l4.255-1.509c1.595-.566 3.162-1.183 4.715-1.823v27.935c0 2.977 1.761 5.672 4.486 6.868l.452.198zm76.699 21.757c-2.491 0-4.82 1.237-6.215 3.302l-38.372 56.812 14.942-104.668 5.974-5.478c.08-.073.15-.153.226-.229.676.677 24.407 9.721 28.652 11.335-.284 3.463-.435 6.946-.435 10.442 0 9.788 1.11 19.322 3.203 28.484zm118.785-97.31c5.668-5.09 13.266-7.543 20.833-6.725l22.391 2.411c9.071.976 17.977-2.165 24.428-8.615l10.766-10.766c6.799 4.756 13.113 10.281 18.803 16.522 1.89 2.073 3.692 4.209 5.411 6.399l-11.413 11.413c-6.452 6.453-9.592 15.356-8.614 24.427l2.41 22.391c.815 7.573-1.636 15.166-6.725 20.833-5.09 5.667-12.377 8.917-19.994 8.917-14.817 0-26.873-12.056-26.873-26.873 0-7.426-6.041-13.467-13.467-13.467-14.817 0-26.873-12.056-26.873-26.873 0-7.617 3.25-14.904 8.917-19.994zm17.083 67.733c-1.923-.344-3.889-.563-5.892-.634-.071-2.003-.29-3.969-.634-5.892 1.923.344 3.889.563 5.892.634.072 2.003.29 3.969.634 5.892zm-95.746 65.652 15.086-15.084c6.451-6.452 9.592-15.355 8.615-24.428l-2.411-22.391c-.815-7.573 1.636-15.167 6.726-20.834 5.089-5.667 12.376-8.917 19.992-8.917 14.817 0 26.873 12.056 26.873 26.873 0 7.426 6.042 13.468 13.468 13.468 14.817 0 26.873 12.056 26.873 26.873 0 7.616-3.25 14.903-8.916 19.993-5.667 5.089-13.253 7.547-20.834 6.726l-22.39-2.411c-9.074-.973-17.976 2.162-24.429 8.614l-15.736 15.736c-8.777-6.894-16.506-15.062-22.917-24.218zm92.484 48.273c-20.758 0-40.22-5.641-56.947-15.46l13.723-13.723c3.226-3.227 7.683-4.798 12.215-4.308l22.391 2.411c11.806 1.268 23.633-2.55 32.462-10.48s13.894-19.284 13.894-31.152c0-2.528-.237-5-.668-7.406 2.406.431 4.878.668 7.406.668 11.868 0 23.224-5.064 31.154-13.895 7.93-8.83 11.749-20.661 10.479-32.461l-2.41-22.392c-.489-4.535 1.081-8.987 4.308-12.214l9.401-9.401c10.047 17.151 15.427 36.755 15.427 56.98-.002 62.217-50.618 112.833-112.835 112.833z"/></g></svg>