<svg id="Capa_1" enable-background="new 0 0 512.838 512.838" height="512" viewBox="0 0 512.838 512.838" width="512" xmlns="http://www.w3.org/2000/svg"><g><path d="m486.09 320.917c-10.917-18.802-26.56-34.629-45.239-45.77-3.558-2.121-8.161-.958-10.283 2.6s-.958 8.161 2.6 10.283c16.495 9.838 30.31 23.814 39.95 40.418 9.93 17.103 15.178 36.659 15.178 56.557 0 62.217-50.617 112.833-112.833 112.833s-112.833-50.616-112.833-112.833 50.617-112.834 112.833-112.834c10.226 0 20.372 1.373 30.157 4.081 3.99 1.101 8.124-1.235 9.229-5.229 1.104-3.991-1.236-8.123-5.228-9.229-11.087-3.068-22.58-4.624-34.158-4.624-11.91 0-23.443 1.643-34.389 4.704v-6.834c0-25.788-11.568-49.793-31.738-65.86l-3.564-2.84c.186-1.48.293-2.984.293-4.514 0-7.83-2.524-15.078-6.791-20.989l2.76-17.419c5.687-35.886-4.585-72.313-28.181-99.943-23.597-27.628-57.968-43.475-94.302-43.475-40.161 0-78.016 19.601-101.261 52.432-2.394 3.381-1.593 8.062 1.787 10.455s8.061 1.593 10.455-1.787c20.438-28.867 53.716-46.1 89.019-46.1 31.939 0 62.153 13.93 82.895 38.217 20.742 24.288 29.771 56.31 24.772 87.854l-1.34 8.455c-3.121-1.529-6.494-2.618-10.039-3.188v-4.363c0-11.394-5.772-21.794-15.44-27.82l-.892-.556c-21.887-13.645-46.794-21.493-72.457-22.936v-29.365c0-4.143-3.358-7.5-7.5-7.5s-7.5 3.357-7.5 7.5v29.249c-25.783 1.051-50.852 8.608-72.984 22.007-9.749 5.902-15.805 16.648-15.805 28.045v5.917c-3.531.671-6.877 1.866-9.963 3.49l-1.416-8.935c-2.849-17.976-1.172-36.442 4.848-53.406 1.385-3.903-.656-8.19-4.56-9.576-3.903-1.384-8.191.656-9.577 4.561-6.854 19.315-8.765 40.329-5.526 60.77l2.783 17.564c.052.325.13.638.22.946-3.806 5.701-6.034 12.542-6.034 19.898 0 1.28.074 2.542.205 3.788l-4.476 3.565c-20.17 16.068-31.738 40.074-31.738 65.861v6.684c0 4.143 3.358 7.5 7.5 7.5s7.5-3.357 7.5-7.5v-6.684c0-21.193 9.507-40.923 26.084-54.129l.283-.225c5.212 8.42 13.805 14.531 23.867 16.444v14.574c0 11.642 2.022 22.958 5.759 33.56v20.313c0 27.052-16.953 51.78-42.185 61.533l-22.203 8.579 7.748-17.426c.427-.959.647-1.997.647-3.047v-41.454c0-4.143-3.358-7.5-7.5-7.5s-7.5 3.357-7.5 7.5v39.862l-7.192 16.177c-2.461 5.535-1.353 11.947 2.824 16.335 2.876 3.022 6.782 4.638 10.781 4.638 1.808 0 3.635-.33 5.394-1.01l22.411-8.663c15.31-5.918 28.309-16.201 37.59-29.74 7.939-11.581 12.662-24.842 13.864-38.708 7.557 10.046 16.978 18.702 27.858 25.412v30.146l-48.567 21.308c-43.714 19.178-71.96 62.415-71.96 110.151v25.146c0 4.143 3.358 7.5 7.5 7.5s7.5-3.357 7.5-7.5v-25.148c0-.793.026-1.582.044-2.372h32.643c-.539 10.747 1.896 21.665 7.42 31.516 1.375 2.453 3.923 3.833 6.548 3.833 1.242 0 2.501-.309 3.662-.959 3.613-2.026 4.899-6.598 2.873-10.21-8.633-15.395-7.144-34.294 3.792-48.147l1.276-1.616c1.045-1.324 1.614-2.962 1.614-4.648v-6.539c0-4.143-3.358-7.5-7.5-7.5s-7.5 3.357-7.5 7.5v3.938c-4.236 5.469-7.38 11.51-9.429 17.833h-33.987c5.788-34.615 28.609-64.557 61.426-78.996l78.596 84.1c3.105 3.322 7.495 5.228 12.042 5.228s8.937-1.905 12.043-5.228l57.711-61.752c4.491 27.541 17.811 52.15 36.954 70.823.744 8.643-1.122 17.42-5.375 25.005-2.026 3.612-.74 8.184 2.873 10.21 1.161.65 2.419.959 3.662.959 2.625 0 5.173-1.38 6.548-3.833 3.5-6.241 5.795-13.083 6.824-20.117 21.022 15.181 46.818 24.141 74.672 24.141 70.488 0 127.833-57.346 127.833-127.833.001-22.54-5.949-44.701-17.205-64.089zm-387.828-89.212v-30.652l10.243 18.328c-.675 1.573-1.162 3.248-1.416 5.002-1.937 13.388-2.65 26.948-2.146 40.527-4.319-10.33-6.681-21.577-6.681-33.205zm162.577-.288c0 10.826-2.047 21.314-5.805 31.039.234-12.52-.233-24.972-1.437-37.23-.229-2.33-.843-4.534-1.778-6.548l9.019-15.776v28.515zm-22.169-4.727c1.923 19.587 1.919 39.703-.012 59.789-.224 2.332-2.034 4.202-4.303 4.447 0 0-.001.001-.001.001-35.875 3.88-72.255 3.863-108.131-.055-2.206-.24-3.969-1.97-4.288-4.205-2.868-20.081-2.868-40.314 0-60.139.319-2.204 2.056-3.929 4.224-4.194 18.043-2.211 36.209-3.316 54.381-3.316 18.003 0 36.012 1.086 53.89 3.257 2.232.272 4.015 2.128 4.24 4.415zm-95.568 80.766c12.454.905 24.945 1.368 37.437 1.368 11.517 0 23.034-.385 34.52-1.155-3.745 1.998-7.662 3.744-11.744 5.192l-4.254 1.509c-12.941 4.593-27.186 4.563-40.109-.082l-3.5-1.258c-4.302-1.546-8.426-3.416-12.35-5.574zm85.444 9.701c10.449-6.609 19.516-15.023 26.836-24.743.89 10.479 3.815 20.707 8.613 30.075-6.14 10.905-10.725 22.795-13.455 35.371l-21.994-9.649zm97.527-62.116v12.06c-20.75 8.725-38.726 22.775-52.218 40.428-2.48-7.024-3.775-14.45-3.775-21.952v-20.576c3.737-10.605 5.759-21.927 5.759-33.584v-14.111c10.273-1.651 19.1-7.668 24.518-16.082 16.344 13.202 25.716 32.784 25.716 53.817zm-35.008-73.214c0 9.565-6.451 17.635-15.225 20.134v-40.269c8.774 2.5 15.225 10.57 15.225 20.135zm-184.229-56.441c21.612-13.085 46.348-19.987 71.599-19.987.299 0 .603.001.903.003 25.563.167 50.542 7.403 72.234 20.927l.892.556c5.245 3.27 8.376 8.911 8.376 15.092v30.703l-20.408 35.696c-1.337-.466-2.734-.813-4.193-.99-37.13-4.509-74.78-4.488-111.904.062-1.623.199-3.185.598-4.664 1.167l-21.408-38.309v-29.706c-.001-6.183 3.285-12.013 8.573-15.214zm-37.799 56.441c0-9.196 5.968-16.996 14.225-19.804v39.624c-8.258-2.81-14.225-10.623-14.225-19.82zm111.598 275.333c-.364.389-.791.47-1.084.47s-.721-.081-1.084-.47l-74.995-80.248 38.598-16.934c2.726-1.196 4.487-3.892 4.487-6.868v-27.429c1.261.511 2.534 1.001 3.823 1.464l3.5 1.258c8.136 2.925 16.69 4.387 25.245 4.387 8.451 0 16.904-1.428 24.953-4.283l4.254-1.509c1.767-.627 3.499-1.316 5.214-2.034v28.146c0 2.977 1.761 5.672 4.487 6.868l30.146 13.226c-.357 3.887-.55 7.821-.55 11.8 0 .155.005.308.006.463z"/><path d="m440.349 341.789c11.235 10.904 11.858 28.585 1.417 40.253-10.455 11.682-28.109 13.008-40.191 3.017-3.336-2.759-5.249-6.823-5.249-11.151v-.113c0-4.143-3.358-7.5-7.5-7.5s-7.5 3.357-7.5 7.5v.113c0 8.814 3.896 17.092 10.689 22.71 8.244 6.817 18.196 10.159 28.096 10.159 1.333 0 2.664-.071 3.991-.192v15.079c-3.753.253-7.535.149-11.234-.31-.887-.109-1.798-.244-2.708-.399-4.085-.695-7.958 2.051-8.654 6.133-.696 4.083 2.049 7.958 6.132 8.654 1.134.193 2.273.361 3.384.499 3 .372 6.059.561 9.092.561 1.325 0 2.656-.045 3.987-.117v.809c0 6.331 2.465 12.282 6.941 16.759l3.982 3.982c1.464 1.464 3.384 2.196 5.303 2.196s3.839-.732 5.303-2.196c2.929-2.93 2.929-7.678 0-10.607l-3.982-3.982c-1.643-1.643-2.548-3.827-2.548-6.151v-35.047c5.103-2.448 9.825-5.915 13.841-10.403 15.828-17.687 14.884-44.489-2.148-61.019l-9.237-8.964c-.455-.441-.715-1.059-.715-1.692v-7.618c0-4.143-3.358-7.5-7.5-7.5s-7.5 3.357-7.5 7.5v7.618c0 4.668 1.921 9.209 5.27 12.457z"/><path d="m426.773 376.06c4.142 0 7.5-3.357 7.5-7.5v-1.626c0-4.143-3.358-7.5-7.5-7.5s-7.5 3.357-7.5 7.5v1.626c0 4.142 3.357 7.5 7.5 7.5z"/><path d="m316.652 366.934v1.626c0 4.143 3.358 7.5 7.5 7.5s7.5-3.357 7.5-7.5v-1.626c0-4.143-3.358-7.5-7.5-7.5s-7.5 3.357-7.5 7.5z"/><path d="m450.864 413.134c-3.531 2.165-4.639 6.783-2.473 10.314 1.415 2.308 3.878 3.58 6.401 3.58 1.336 0 2.69-.357 3.913-1.107 6.148-3.77 11.732-8.438 16.595-13.872 2.762-3.086 2.499-7.828-.587-10.59-3.087-2.763-7.828-2.5-10.59.588-3.892 4.349-8.353 8.078-13.259 11.087z"/><path d="m300.062 413.134c-4.906-3.009-9.367-6.738-13.258-11.087-2.763-3.09-7.505-3.351-10.59-.588-3.086 2.762-3.35 7.504-.587 10.59 4.863 5.435 10.447 10.103 16.595 13.872 1.223.75 2.576 1.107 3.913 1.107 2.522 0 4.986-1.272 6.401-3.58 2.164-3.531 1.057-8.149-2.474-10.314z"/><path d="m366.205 427.757c3.211-1.756 6.314-3.764 9.258-5.99 2.944 2.227 6.046 4.235 9.254 5.989 1.143.625 2.375.922 3.592.921 2.653 0 5.225-1.41 6.587-3.902 1.987-3.635.652-8.191-2.982-10.179-3.322-1.816-6.504-3.977-9.458-6.419-.021-.017-.041-.033-.062-.05-4.04-3.313-9.88-3.301-13.908.036-.01.008-.02.016-.029.024-2.949 2.437-6.127 4.593-9.447 6.407-3.635 1.987-4.971 6.544-2.984 10.179 1.988 3.634 6.544 4.97 10.179 2.984z"/><path d="m330.814 406.776c9.899-.001 19.853-3.343 28.095-10.158 6.793-5.618 10.69-13.896 10.69-22.711v-.113c0-4.143-3.358-7.5-7.5-7.5s-7.5 3.357-7.5 7.5v.113c0 4.328-1.913 8.393-5.249 11.151-12.082 9.989-29.736 8.666-40.191-3.017-10.441-11.668-9.818-29.349 1.417-40.253l9.236-8.962c3.349-3.251 5.27-7.791 5.27-12.458v-7.618c0-4.143-3.358-7.5-7.5-7.5s-7.5 3.357-7.5 7.5v7.618c0 .634-.261 1.251-.716 1.693l-9.236 8.963c-17.033 16.529-17.977 43.332-2.149 61.02 4.017 4.488 8.739 7.954 13.842 10.402v35.046c0 2.323-.905 4.509-2.549 6.152l-3.982 3.982c-2.929 2.929-2.928 7.678 0 10.606 1.465 1.464 3.384 2.196 5.303 2.196s3.839-.732 5.304-2.197l3.981-3.981c4.477-4.477 6.942-10.429 6.942-16.759v-.809c1.331.072 2.663.117 3.988.117 3.034 0 6.093-.188 9.09-.561 1.113-.138 2.252-.306 3.387-.499 4.083-.696 6.829-4.571 6.132-8.654-.696-4.084-4.574-6.828-8.654-6.133-.91.155-1.821.29-2.71.399-3.696.459-7.479.563-11.232.31v-15.079c1.326.123 2.657.194 3.991.194z"/></g></svg>