<svg id="Capa_1" enable-background="new 0 0 512.806 512.806" height="512" viewBox="0 0 512.806 512.806" width="512" xmlns="http://www.w3.org/2000/svg"><g><path d="m457.445 287.537c-3.157-2.683-7.889-2.299-10.572.857s-2.299 7.89.857 10.572c25.297 21.502 39.806 52.851 39.806 86.006 0 62.217-50.617 112.833-112.833 112.833s-112.833-50.615-112.833-112.832 50.617-112.834 112.833-112.834c16.694 0 32.772 3.565 47.789 10.599 3.753 1.757 8.217.14 9.973-3.611 1.757-3.751.14-8.216-3.611-9.973-17.022-7.973-35.242-12.015-54.151-12.015-13.373 0-26.271 2.068-38.396 5.895v-77.838c0-61.07-22.688-119.533-63.885-164.618l-1.687-1.846c-17.44-19.086-45.707-24.217-68.742-12.473l-18.524 9.442c-2.55 1.302-5.596 1.3-8.146 0l-18.523-9.442c-23.034-11.742-51.302-6.613-68.743 12.473l-1.687 1.847c-7.795 8.532-15.062 17.728-21.596 27.329-2.33 3.425-1.443 8.09 1.981 10.42 3.425 2.33 8.09 1.443 10.42-1.98 6.133-9.014 12.953-17.645 20.268-25.65l1.687-1.846c12.903-14.121 33.817-17.914 50.857-9.229l18.523 9.442c6.817 3.477 14.956 3.476 21.772 0l18.523-9.442c17.042-8.687 37.955-4.892 50.857 9.229l1.687 1.846c38.665 42.313 59.958 97.182 59.958 154.499v83.644c-35.949 16.595-62.933 49.4-71.528 88.988l-21.994-9.649v-31.591c4.51-2.969 8.803-6.291 12.852-9.964 3.068-2.784 3.298-7.526.515-10.595-2.783-3.066-7.526-3.299-10.594-.515-8.863 8.042-19.07 14.146-30.334 18.143l-.742.263c-13.703 4.861-28.785 4.831-42.468-.087-35.596-12.792-59.511-46.801-59.511-84.625v-91.866c0-1.514.894-2.362 1.427-2.734s1.639-.917 3.058-.394l1.249.46c13.366 4.921 28.317 2.994 39.998-5.154l10.56-7.367c15.229 11.057 35.767 11.057 50.995 0l10.372 7.235c11.822 8.25 26.925 10.12 40.403 5.003 1.424-.539 2.538.002 3.076.373s1.44 1.221 1.44 2.743v91.401c0 15.164-3.875 30.192-11.205 43.461-2.003 3.626-.688 8.188 2.938 10.191 3.627 2.005 8.189.688 10.192-2.938 8.554-15.484 13.075-33.021 13.075-50.715v-91.401c0-6.025-2.961-11.667-7.921-15.089-4.959-3.423-11.286-4.189-16.918-2.051-8.838 3.356-18.744 2.129-26.497-3.281l-15.071-10.515c-2.942-2.052-6.928-1.734-9.507.762-11.145 10.783-28.604 10.783-39.749 0-2.579-2.496-6.563-2.814-9.507-.762l-15.259 10.646c-7.66 5.346-17.466 6.61-26.231 3.381l-1.249-.46c-5.621-2.07-11.909-1.261-16.822 2.166-4.914 3.427-7.847 9.048-7.847 15.038v91.866c0 36.136 18.715 69.277 48.294 88.298v30.674l-23.112 10.14c-2.019-.033-4.042.398-5.924 1.314l-18.99 9.243-4.969-6.699c-.099-.133-.202-.263-.309-.389-14.183-16.689-21.994-37.942-21.994-59.844 0-2.599-1.345-5.013-3.556-6.379-2.209-1.366-4.969-1.491-7.296-.33l-7.162 3.578v-113.619c0-35.263 8.313-70.585 24.04-102.148 1.847-3.707.339-8.21-3.368-10.058-3.708-1.848-8.211-.34-10.058 3.368-16.757 33.63-25.614 71.266-25.614 108.838v123.155c0 3.177 1.613 6.071 4.315 7.742 2.702 1.672 6.013 1.821 8.857.401l5.494-2.745c2.341 21.124 10.922 41.213 24.749 57.56l3.161 4.261c-1.541.803-2.892 1.887-3.983 3.191-33.799 21.932-54.808 59.723-54.808 100.877v25.146c0 4.143 3.358 7.5 7.5 7.5s7.5-3.357 7.5-7.5v-25.146c0-32.895 15.331-63.341 40.522-82.999l22.515 32.525-4.986 9.789c-1.344 2.64-1.009 5.823.855 8.125l50.985 62.948c1.461 1.804 3.623 2.779 5.831 2.779 1.085 0 2.181-.235 3.211-.724 3.127-1.483 4.833-4.914 4.129-8.303l-20.164-96.998 41.369 26.132c2.812 1.777 6.034 2.665 9.257 2.665 3.222 0 6.444-.888 9.254-2.664l41.37-26.133-20.164 96.998c-.704 3.389 1.002 6.819 4.129 8.303 1.03.488 2.126.725 3.211.724 2.208 0 4.37-.976 5.831-2.779l45.021-55.584c22.812 35.1 62.368 58.364 107.259 58.364 70.488 0 127.833-57.346 127.833-127.833-.001-37.564-16.436-73.077-45.093-97.435zm-358.548 153.885 4.808-9.44c1.252-2.458 1.054-5.405-.517-7.673l-25.21-36.418 28.098-13.676 21.274 102.337zm81.137-21.188c-.754.477-1.73.478-2.487-.001l-53.627-33.875-3.578-17.212 20.967-9.199c2.726-1.196 4.487-3.892 4.487-6.868v-27.582c2.016.872 4.058 1.701 6.144 2.451 8.518 3.062 17.475 4.593 26.432 4.593 8.848 0 17.696-1.494 26.122-4.483l.742-.263c2.565-.91 5.081-1.917 7.549-3.012v28.296c0 2.977 1.761 5.672 4.487 6.868l20.051 8.796-3.662 17.615zm50.199 56.318 17.007-81.81c1.234 16.247 5.518 31.655 12.279 45.652z"/><path d="m444.404 418.778c1.444 2.176 3.827 3.354 6.257 3.354 1.424 0 2.864-.405 4.139-1.251l5.475-3.632c5.066-3.361 9.175-7.711 12.211-12.931 2.083-3.58.87-8.171-2.711-10.254-3.58-2.083-8.171-.869-10.254 2.711-1.87 3.213-4.406 5.896-7.539 7.974l-5.475 3.632c-3.45 2.291-4.392 6.945-2.103 10.397z"/><path d="m427.448 421.027-7.646 5.073c-2.542 1.687-5.232 3.259-7.998 4.674-3.688 1.887-5.147 6.405-3.26 10.093 1.327 2.594 3.957 4.086 6.683 4.086 1.15 0 2.317-.266 3.411-.825 3.266-1.671 6.449-3.531 9.458-5.528l7.645-5.072c3.452-2.29 4.394-6.944 2.104-10.396s-6.945-4.394-10.397-2.105z"/><path d="m302.898 408.382-5.475-3.632c-3.132-2.077-5.668-4.761-7.539-7.975-2.083-3.581-6.675-4.793-10.255-2.71-3.58 2.084-4.793 6.675-2.71 10.255 3.038 5.219 7.146 9.569 12.211 12.93l5.475 3.632c1.275.846 2.715 1.251 4.139 1.251 2.43 0 4.813-1.179 6.257-3.355 2.291-3.452 1.349-8.106-2.103-10.396z"/><path d="m329.604 426.1-7.645-5.072c-3.451-2.287-8.105-1.348-10.396 2.104-2.29 3.451-1.349 8.106 2.103 10.396l7.645 5.072c3.013 1.998 6.196 3.858 9.459 5.528 1.094.56 2.26.825 3.41.825 2.726 0 5.356-1.492 6.683-4.086 1.887-3.688.427-8.206-3.261-10.093-2.763-1.413-5.454-2.986-7.998-4.674z"/><path d="m386.995 438.76c-8.17 1.238-16.601 1.22-24.71-.029-4.1-.636-7.924 2.176-8.555 6.27s2.176 7.924 6.27 8.555c4.855.749 9.82 1.128 14.759 1.128 4.832 0 9.706-.367 14.486-1.093 4.096-.621 6.912-4.444 6.291-8.54-.623-4.096-4.449-6.909-8.541-6.291z"/><path d="m424.865 339.554c-10.384-15.655-30.803-20.965-47.494-12.348l-2.855 1.473c-3.272-.775-6.771.739-8.383 3.86-1.901 3.68-.458 8.204 3.222 10.105 3.383 1.747 7.423 1.747 10.804.001l4.09-2.11c9.882-5.101 21.969-1.958 28.115 7.31l15.166 22.867-12.261-3.115c-6.424-1.632-13.287-1.021-19.321 1.721l-8.194 3.725c-8.259 3.754-17.731 3.754-25.99 0l-8.194-3.725c-6.034-2.742-12.896-3.354-19.321-1.721l-12.261 3.115 4.68-7.057c2.29-3.452 1.347-8.106-2.104-10.396-3.452-2.293-8.107-1.349-10.396 2.104l-13.062 19.693c-1.739 2.622-2.352 5.764-1.728 8.848.625 3.083 2.412 5.739 5.033 7.478l32.182 21.351c11.593 7.69 24.88 11.536 38.167 11.536s26.574-3.846 38.167-11.536l32.18-21.351c2.622-1.738 4.41-4.395 5.034-7.479s.01-6.226-1.729-8.847zm-20.232 60.68c-18.149 12.041-41.602 12.04-59.75 0l-21.649-14.363 14.708-3.737c3.133-.795 6.479-.499 9.42.84l8.194 3.725c6.102 2.773 12.651 4.16 19.202 4.16 6.549-.001 13.101-1.388 19.202-4.16l8.194-3.725c2.941-1.338 6.287-1.634 9.42-.84l14.708 3.737z"/><path d="m319.44 345.113c3.324 2.247 6.056 4.903 8.12 7.896 2.3 3.336 6.105 5.366 10.18 5.432.068.001.135.002.203.002 4.004 0 7.791-1.901 10.161-5.113 2.068-2.804 4.92-5.434 8.718-8.041 3.488-2.394 5.519-6.351 5.435-10.585-.086-4.281-2.306-8.202-5.938-10.486 0 0 0-.001-.001-.001-3.148-1.979-5.662-4.369-7.687-7.308-2.378-3.449-6.285-5.507-10.455-5.507-.006 0-.012 0-.018 0-4.141.006-8.013 2.053-10.357 5.475-1.796 2.621-4.357 4.92-7.831 7.028-3.689 2.239-5.954 6.153-6.06 10.47-.107 4.311 1.96 8.324 5.53 10.738zm18.749-17.139c2.123 2.613 4.568 4.955 7.311 7.001-2.899 2.223-5.379 4.532-7.49 6.977-2.106-2.611-4.544-5.009-7.291-7.167 2.916-2.066 5.389-4.32 7.47-6.811z"/></g></svg>