<svg id="Capa_1" enable-background="new 0 0 512.077 512.077" height="512" viewBox="0 0 512.077 512.077" width="512" xmlns="http://www.w3.org/2000/svg"><g><path d="m44.313 404.416c-3.294-2.509-8.001-1.875-10.511 1.421-15.41 20.226-23.897 45.363-23.897 70.78v27.439c0 4.143 3.358 7.5 7.5 7.5s7.5-3.357 7.5-7.5v-27.439c0-22.151 7.397-44.061 20.829-61.69 2.51-3.295 1.874-8-1.421-10.511z"/><path d="m116.307 446.839h-56.849c-7.015 0-12.723 5.707-12.723 12.723v23.038c0 7.016 5.708 12.723 12.723 12.723h56.849c7.015 0 12.723-5.707 12.723-12.723v-23.038c0-7.016-5.708-12.723-12.723-12.723zm-2.277 33.483h-52.295v-18.483h52.294v18.483z"/><path d="m447.562 279.455c-3.393-2.375-8.07-1.549-10.445 1.844-2.375 3.394-1.55 8.069 1.844 10.445 30.188 21.132 48.212 55.712 48.212 92.5 0 62.217-50.617 112.833-112.834 112.833s-112.833-50.616-112.833-112.833 50.616-112.834 112.832-112.834c12.98 0 25.716 2.191 37.854 6.513 3.905 1.39 8.192-.647 9.581-4.55 1.39-3.902-.647-8.191-4.55-9.581-13.757-4.898-28.186-7.382-42.885-7.382-61.175 0-112.441 43.197-124.923 100.689l-21.994-9.649v-30.366c-.624.186-1.263.351-1.911.501 29.972-18.033 49.09-50.752 49.2-86.62 16.622-3.155 29.231-17.785 29.231-35.311 0-7.207-2.135-13.923-5.801-19.554l1.788-19.578c3.065-33.556-8.205-67.073-30.922-91.959-12.323-13.501-27.487-23.87-44.158-30.539-3.952-19.695-21.104-34.024-41.684-34.024h-8.264c-20.28 0-37.362 14.062-41.56 33.414-15.027 5.793-28.854 14.626-40.687 26.189-2.962 2.896-3.017 7.644-.123 10.606 2.896 2.961 7.645 3.018 10.606.122 11.239-10.983 24.534-19.152 38.997-24.158.158-.046.313-.102.467-.158 10.815-3.686 22.274-5.611 34.013-5.611h3.627c29.489 0 57.805 12.491 77.687 34.271 19.881 21.78 29.745 51.114 27.063 80.482l-.771 8.44c-2.977-1.513-6.19-2.621-9.569-3.257-.516-4.376-4.243-7.784-8.756-7.784h-16.468c-5.694 0-11.153-2.105-15.372-5.928l-19.192-17.389c-3.012-2.729-7.65-2.563-10.458.377l-13.001 13.607c-4.299 4.499-10.33 7.078-16.551 7.078-.009 0-.018 0-.027 0l-83.86-.09c-4.866 0-8.824 3.958-8.824 8.823v1.309c-3.356.638-6.546 1.744-9.504 3.247l-.77-8.435c-1.955-21.408 2.564-42.56 13.07-61.167 2.037-3.607.764-8.182-2.843-10.219-3.608-2.035-8.183-.764-10.218 2.844-12.012 21.275-17.18 45.448-14.946 69.907l1.789 19.585c-3.664 5.631-5.802 12.342-5.802 19.546 0 17.523 12.608 32.139 29.225 35.297.003 35.578 18.776 68.148 48.294 86.352v30.146l-50.666 22.228c-7.1 3.115-13.953 6.988-20.37 11.512-3.385 2.387-4.195 7.065-1.809 10.451 1.46 2.072 3.78 3.18 6.136 3.18 1.493 0 3.001-.445 4.315-1.371 5.598-3.946 11.572-7.322 17.754-10.035l1.993-.875 78.598 84.102c3.105 3.322 7.495 5.228 12.042 5.228s8.938-1.905 12.043-5.228l57.711-61.753c9.899 60.705 62.698 107.188 126.157 107.188 70.488 0 127.834-57.346 127.834-127.833-.002-41.675-20.417-80.847-54.612-104.785zm-270.948-254.051c-8.556 0-16.981.899-25.17 2.638 4.865-7.887 13.573-13.042 23.456-13.042h8.264c10.08 0 18.888 5.31 23.69 13.413-8.67-1.976-17.592-3.008-26.613-3.008h-3.627zm112.327 170.25c0 9.197-5.966 17.008-14.225 19.818v-39.624c8.259 2.807 14.225 10.61 14.225 19.806zm-221.027 0c0-9.198 5.966-17.01 14.225-19.817v39.625c-8.26-2.803-14.225-10.61-14.225-19.808zm29.225 35.29v-65.724l77.668.083h.043c10.296 0 20.281-4.269 27.396-11.716l7.956-8.327 13.779 12.484c6.983 6.328 16.02 9.813 25.444 9.813h10.291v63.1c0 36.508-23.117 69.238-57.524 81.444l-4.254 1.509c-12.941 4.592-27.186 4.562-40.109-.082l-3.5-1.258c-34.207-12.294-57.19-44.976-57.19-81.326zm82.373 225.455c-.364.389-.791.47-1.084.47s-.721-.081-1.084-.47l-74.996-80.248 38.598-16.934c2.726-1.196 4.487-3.892 4.487-6.868v-27.429c1.261.511 2.534 1.001 3.823 1.464l3.5 1.258c8.136 2.925 16.689 4.387 25.245 4.387 8.451 0 16.904-1.428 24.953-4.283l4.254-1.509c1.767-.627 3.499-1.316 5.214-2.034v28.146c0 2.977 1.761 5.672 4.487 6.868l30.146 13.226c-.358 3.887-.55 7.822-.55 11.801 0 .155.005.308.006.462z"/><path d="m279.576 384.411c0 52.014 42.315 94.329 94.329 94.329s94.33-42.315 94.33-94.329-42.316-94.33-94.33-94.33-94.329 42.316-94.329 94.33zm15 0c0-23.106 9.935-43.931 25.751-58.443-1.489 4.783-2.289 9.836-2.289 15.028 0 28.074 22.841 50.915 50.915 50.915h9.905c19.804 0 35.915 16.111 35.915 35.915 0 15.615-11.142 29.76-25.933 34.484-4.84.926-9.829 1.43-14.935 1.43-43.742 0-79.329-35.587-79.329-79.329zm158.659 0c0 23.106-9.935 43.931-25.752 58.443 1.488-4.784 2.29-9.837 2.29-15.029 0-28.074-22.841-50.914-50.915-50.914h-9.905c-19.804 0-35.915-16.111-35.915-35.915 0-15.123 11.503-29.284 25.557-34.418 4.957-.974 10.073-1.497 15.311-1.497 43.742 0 79.329 35.587 79.329 79.33z"/><path d="m365.101 343.521c0 12.569 10.227 22.796 22.797 22.796s22.797-10.227 22.797-22.796c0-12.57-10.227-22.797-22.797-22.797s-22.797 10.226-22.797 22.797zm22.797-7.797c4.299 0 7.797 3.498 7.797 7.797s-3.498 7.796-7.797 7.796-7.797-3.497-7.797-7.796 3.498-7.797 7.797-7.797z"/><path d="m359.913 402.505c-12.57 0-22.797 10.227-22.797 22.797 0 12.569 10.227 22.796 22.797 22.796 12.569 0 22.796-10.227 22.796-22.796-.001-12.571-10.227-22.797-22.796-22.797zm0 30.593c-4.299 0-7.797-3.497-7.797-7.796s3.498-7.797 7.797-7.797 7.796 3.498 7.796 7.797-3.498 7.796-7.796 7.796z"/></g></svg>