<svg id="Capa_1" enable-background="new 0 0 512.243 512.243" height="512" viewBox="0 0 512.243 512.243" width="512" xmlns="http://www.w3.org/2000/svg"><g><path d="m367.144 384.56c1.978-3.64.631-8.193-3.009-10.171-2.982-1.62-5.96-3.085-8.854-4.354l-22.484-9.864c-.973-2.966-3.118-5.408-5.959-6.728l-17.979-8.358c-1.358-.631-2.8-.966-4.243-1.031v-27.054c-.276.1-.558.182-.837.275 29.436-18.217 48.131-50.704 48.131-86.26v-3.54c16.619-3.157 29.225-17.785 29.225-35.309 0-5.483-1.237-10.681-3.442-15.334.855-1.301 1.901-2.9 3.116-4.76 12.795-19.592 17.581-43.011 13.479-65.941-3.607-20.157-13.714-38.321-28.671-51.843l3.392-5.59c1.601-2.637 2.027-5.849 1.169-8.812-.857-2.963-2.934-5.45-5.692-6.822l-27.718-13.801c-41.566-20.695-88.986-24.872-133.523-11.769-3.974 1.17-6.247 5.339-5.078 9.312 1.17 3.974 5.333 6.25 9.313 5.078 4.764-1.402 9.565-2.579 14.388-3.552-4.082 6.226-6.467 13.658-6.467 21.644 0 10.667 4.253 20.347 11.134 27.474-16.234 2.744-32.17 7.842-47.293 15.311l-23.17-38.181 22.91-11.407c3.708-1.847 5.217-6.349 3.371-10.057s-6.349-5.215-10.057-3.371l-26.747 13.317c-2.76 1.374-4.835 3.86-5.692 6.822-.858 2.962-.433 6.173 1.167 8.812l3.101 5.11c-10.447 19.096-14.847 40.562-12.708 62.305l5.42 55.15c-4.231 5.893-6.729 13.11-6.729 20.903 0 8.208 2.771 15.778 7.419 21.836l-8.26 12.135c-7.131 10.476-6.899 24.389.574 34.62l3.836 5.254-7.72 9.688c-7.827 9.822-8.694 23.628-2.158 34.354l4.561 7.482-1.805 2.09c-10.521 12.189-9.64 30.173 1.903 41.267-3.756 6.206-5.12 13.456-3.844 20.702.463 2.633 1.259 5.145 2.35 7.498-25.42 22.186-39.865 53.848-39.865 87.886v27.438c0 4.143 3.357 7.5 7.5 7.5s7.5-3.357 7.5-7.5v-27.438c0-2.289.084-4.564.233-6.825h24.194c-3.551 11.544-3.969 23.95-.958 36.071.848 3.412 3.907 5.693 7.272 5.693.599 0 1.207-.072 1.814-.224 4.02-.998 6.469-5.066 5.47-9.087-3.803-15.309-.607-31.206 8.732-43.843 3.76 2.149 8.053 3.318 12.463 3.318 7.088 0 13.878-3.018 18.629-8.278s7.063-12.323 6.343-19.375l-3.376-33.056c-.036-.349-.103-.687-.185-1.02 4.057-3.053 7.212-6.997 9.259-11.532l14.836 22.895c1.661 2.564 4.509 4.026 7.446 4.026 1.058 0 2.128-.19 3.158-.586l30.692-11.859v101.449c0 4.143 3.357 7.5 7.5 7.5s7.5-3.357 7.5-7.5v-101.45l30.704 11.863c1.025.395 2.091.584 3.146.584 2.936-.001 5.785-1.463 7.446-4.026l24.025-37.074 20.813 9.131c2.509 1.101 5.105 2.378 7.718 3.798 1.138.618 2.364.911 3.574.911 2.66 0 5.237-1.418 6.597-3.92zm-77.528-31.625-33.995 29.491-33-28.627c0-.031.005-.061.005-.092v-28.429c1.261.512 2.535 1.001 3.824 1.465l3.5 1.258c8.136 2.925 16.688 4.387 25.244 4.387 8.451 0 16.904-1.428 24.954-4.283l4.253-1.51c1.767-.627 3.5-1.316 5.215-2.034zm-87.234-7.85-3.738 1.738c2.415-9.224.36-19.398-6.375-27.202l-1.804-2.09 4.56-7.48c.211-.346.401-.705.597-1.06 3.764 3.165 7.776 6.061 12.004 8.669v26.391c-1.773-.076-3.572.257-5.244 1.034zm149.528-133.099v-39.644c8.259 2.81 14.225 10.624 14.225 19.822s-5.966 17.012-14.225 19.822zm2.051-167.406-23.17 38.183c-15.117-7.466-31.048-12.564-47.277-15.309 6.878-7.127 11.117-16.814 11.117-27.477 0-7.999-2.395-15.442-6.489-21.674 14.412 2.9 28.509 7.701 41.938 14.388zm-74.329-4.604c0 13.573-11.042 24.615-24.615 24.615s-24.616-11.042-24.616-24.615 11.043-24.616 24.616-24.616 24.615 11.043 24.615 24.616zm-110.657 54.779c1.815 2.995 5.016 4.671 8.306 4.671 1.536 0 3.091-.365 4.534-1.132 45.839-24.319 100.568-24.319 146.401 0 4.532 2.404 10.174.854 12.842-3.537l16.607-27.368c11.342 11.064 19.01 25.477 21.857 41.381 3.427 19.152-.576 38.721-11.271 55.098-.113.173-.212.324-.32.49-4.548-3.725-10.022-6.354-16.02-7.493v-12.973c0-6.146-4.598-11.361-10.695-12.132l-21.18-2.676c-4.111-.527-7.862 2.391-8.381 6.5-.52 4.109 2.391 7.862 6.5 8.381l18.756 2.37v84.678c0 36.508-23.117 69.237-57.525 81.443l-4.253 1.51c-12.941 4.592-27.186 4.562-40.109-.082l-3.5-1.258c-34.207-12.294-57.19-44.976-57.19-81.325v-93.125l15.771-2.427c16.492-2.539 31.86-9.674 44.442-20.633l6.634-5.777c.101-.091.254-.098.363-.016l23.853 17.575c5.833 4.298 12.24 7.804 19.044 10.421 3.868 1.487 8.205-.443 9.692-4.308 1.487-3.866-.441-8.205-4.308-9.692-5.552-2.136-10.777-4.994-15.53-8.497l-23.852-17.574c-5.811-4.282-13.67-3.962-19.114.779l-6.634 5.778c-10.439 9.092-23.19 15.011-36.873 17.117l-18.119 2.789c-6.009.924-10.37 6.007-10.37 12.086v21.066c-3.004.571-5.874 1.519-8.565 2.788l-4.424-45.008c-1.546-15.722.893-31.27 7.036-45.587zm-23.867 97.409c0-9.198 5.966-17.012 14.225-19.822v39.644c-8.26-2.81-14.225-10.624-14.225-19.822zm-2.754 119.508-5.746-9.428c-3.272-5.37-2.838-12.282 1.08-17.2l9.209-11.556c3.322-4.17 3.446-10.091.302-14.398l-5.244-7.182c-3.742-5.122-3.857-12.088-.287-17.332l7.334-10.774c3.185 1.724 6.661 2.974 10.331 3.671v3.828c0 24.848 9.165 48.226 24.741 66.276-.351 1.643-.968 3.208-1.858 4.667l-5.745 9.428c-2.693 4.418-2.231 10.018 1.15 13.938l3.293 3.814c5.349 6.196 4.812 15.383-1.222 20.913l-1.438 1.317c-4.484 4.112-5.142 10.905-1.529 15.799 2.47 3.346 3.433 7.444 2.711 11.539-.721 4.095-3.024 7.616-6.487 9.918l-4.507 2.994c-2.685 1.784-5.808 2.728-9.03 2.728s-6.346-.943-9.03-2.727l-4.507-2.995c-3.463-2.302-5.768-5.824-6.488-9.919s.241-8.192 2.71-11.537c3.613-4.895 2.956-11.688-1.529-15.801l-1.436-1.315c-6.033-5.531-6.57-14.718-1.223-20.913l3.296-3.817c3.38-3.919 3.841-9.519 1.149-13.936zm-4.57 136.83c-1.664 2.141-3.179 4.363-4.558 6.647h-28.794c4.559-21.019 15.67-40.031 32.091-54.484.345.25.692.498 1.049.736l2.01 1.336-3.236 31.688c-.462 4.521.328 9.043 2.203 13.094zm31.032-4.755c-1.94 2.147-4.604 3.331-7.498 3.331s-5.557-1.183-7.497-3.331-2.847-4.918-2.553-7.799l2.688-26.317h14.724l2.688 26.317c.294 2.882-.612 5.65-2.552 7.799zm47.876-44.39-22.102-34.107 11.941-5.552 34.759 30.154zm77.859 0-24.599-9.505 34.759-30.154 11.941 5.552z"/><path d="m391.449 394.932c-2.911-2.948-7.66-2.979-10.606-.069-2.948 2.91-2.979 7.659-.069 10.606 13.717 13.896 22.967 31.049 27.027 49.681h-29.784c-1.379-2.285-2.895-4.507-4.559-6.648l-1.539-1.979c-2.543-3.27-7.256-3.857-10.524-1.317-3.271 2.542-3.86 7.255-1.317 10.524l1.538 1.979c9.948 12.8 13.412 29.164 9.504 44.896-.999 4.021 1.45 8.089 5.47 9.087.607.151 1.216.224 1.814.224 3.364 0 6.425-2.281 7.272-5.693 3.011-12.121 2.593-24.528-.958-36.071h25.196c.149 2.262.231 4.537.231 6.824v27.439c0 4.143 3.357 7.5 7.5 7.5s7.5-3.357 7.5-7.5v-27.439c-.001-30.895-11.968-60.032-33.696-82.044z"/><path d="m245.848 48.062h1.669v1.669c0 4.143 3.357 7.5 7.5 7.5s7.5-3.357 7.5-7.5v-1.669h1.669c4.143 0 7.5-3.357 7.5-7.5s-3.357-7.5-7.5-7.5h-1.669v-1.669c0-4.143-3.357-7.5-7.5-7.5s-7.5 3.357-7.5 7.5v1.669h-1.669c-4.143 0-7.5 3.357-7.5 7.5s3.357 7.5 7.5 7.5z"/></g></svg>