<svg id="Capa_1" enable-background="new 0 0 512.077 512.077" height="512" viewBox="0 0 512.077 512.077" width="512" xmlns="http://www.w3.org/2000/svg"><g><path d="m34.63 416.737c-3.614-2.021-8.185-.731-10.207 2.885-9.72 17.378-14.858 37.086-14.858 56.995v27.439c0 4.143 3.357 7.5 7.5 7.5s7.5-3.357 7.5-7.5v-27.439c0-17.351 4.478-34.527 12.95-49.673 2.022-3.614.731-8.184-2.885-10.207z"/><path d="m115.967 446.839h-56.85c-7.016 0-12.723 5.707-12.723 12.723v23.038c0 7.016 5.707 12.723 12.723 12.723h56.85c7.016 0 12.723-5.707 12.723-12.723v-23.038c0-7.016-5.707-12.723-12.723-12.723zm-2.277 33.483h-52.295v-18.483h52.295z"/><path d="m468.246 297.153c-2.822-3.029-7.567-3.198-10.601-.378-3.031 2.823-3.2 7.568-.378 10.601 19.504 20.945 30.245 48.244 30.245 76.868 0 62.217-50.616 112.833-112.833 112.833s-112.834-50.616-112.834-112.833 50.617-112.834 112.834-112.834c20.927 0 41.36 5.775 59.095 16.701 3.521 2.169 8.146 1.075 10.319-2.451 2.173-3.527 1.075-8.147-2.452-10.32-20.1-12.384-43.255-18.93-66.962-18.93-61.272 0-112.604 43.333-124.983 100.961l-22.614-9.921v-31.054c28.871-18.26 47.185-50.34 47.288-85.442 16.62-3.157 29.23-17.776 29.23-35.3 0-7.206-2.137-13.917-5.802-19.547l1.788-19.584c3.065-33.556-8.205-67.073-30.922-91.96-12.323-13.5-27.486-23.869-44.158-30.538-3.95-19.696-21.102-34.025-41.682-34.025h-8.264c-20.284 0-37.367 14.067-41.562 33.423-4.111 1.593-8.156 3.411-12.122 5.475-3.675 1.912-5.104 6.441-3.191 10.115 1.913 3.675 6.445 5.101 10.115 3.191 15.046-7.83 31.354-11.8 48.474-11.8h3.627c29.489 0 57.805 12.491 77.687 34.271 19.881 21.78 29.745 51.114 27.063 80.482l-.771 8.437c-2.957-1.501-6.149-2.601-9.503-3.238v-4.402c0-17.231-4.073-34.487-11.779-49.901-1.707-3.413-5.373-5.233-9.128-4.541-3.705.688-6.449 3.643-6.871 7.374l-3.427 27.686h-17.797v-6.085-16.473c0-4.143-3.357-7.5-7.5-7.5s-7.5 3.357-7.5 7.5v16.473 6.769 3.009h-24.787v-17.446-5.396c0-4.143-3.357-7.5-7.5-7.5s-7.5 3.357-7.5 7.5v5.396 18.13 3.86h-20.192v-6.133-15.242-12.26c0-4.143-3.357-7.5-7.5-7.5s-7.5 3.357-7.5 7.5v12.26 14.559h-20.623l-5.142-29.701c-.576-3.612-3.36-6.421-6.985-7.021-3.687-.612-7.291 1.229-8.969 4.584l-.099.2c-7.706 15.413-11.779 32.669-11.779 49.9v4.389c-3.356.637-6.545 1.746-9.503 3.249l-.77-8.436c-2.929-32.055 8.737-63.231 32.008-85.537 2.99-2.866 3.091-7.613.225-10.604s-7.614-3.091-10.604-.225c-26.585 25.482-39.913 61.104-36.566 97.729l1.788 19.576c-3.667 5.632-5.801 12.349-5.801 19.556 0 17.523 12.606 32.149 29.225 35.307.006 35.573 18.778 68.14 48.295 86.343v30.146l-50.666 22.228c-12.588 5.523-24.009 13.162-33.945 22.704-2.987 2.868-3.083 7.616-.214 10.604 1.473 1.534 3.439 2.306 5.41 2.306 1.868 0 3.74-.694 5.194-2.091 8.66-8.316 18.613-14.974 29.581-19.786l1.993-.874 78.598 84.102c3.105 3.322 7.495 5.228 12.043 5.228s8.938-1.905 12.043-5.228l58.288-62.37c9.641 61.007 62.585 107.805 126.261 107.805 70.487 0 127.833-57.346 127.833-127.833-.003-32.429-12.173-63.358-34.269-87.09zm-291.972-271.749c-8.568 0-16.961.872-25.135 2.605 4.869-7.864 13.555-13.009 23.421-13.009h8.264c10.077 0 18.874 5.311 23.674 13.409-8.665-1.974-17.582-3.005-26.597-3.005zm60.933 200.526c1.922 19.589 1.918 39.705-.012 59.789-.224 2.332-2.033 4.202-4.303 4.447-.001.001-.001.001-.001.001-35.876 3.881-72.256 3.863-108.132-.055-2.206-.24-3.969-1.97-4.288-4.205-2.868-20.079-2.868-40.313 0-60.138.318-2.205 2.056-3.93 4.225-4.195 18.043-2.211 36.209-3.316 54.38-3.316 18.004 0 36.013 1.086 53.892 3.257 2.231.271 4.014 2.128 4.239 4.415zm-95.568 80.765c12.454.905 24.945 1.368 37.438 1.368 11.517 0 23.034-.385 34.52-1.155-3.744 1.998-7.661 3.744-11.743 5.192l-4.255 1.509c-12.941 4.592-27.186 4.563-40.109-.082l-3.5-1.258c-4.303-1.546-8.427-3.416-12.351-5.574zm111.932-44.998c.234-12.52-.234-24.973-1.437-37.231-.229-2.331-.843-4.535-1.777-6.549l9.02-15.777v28.517c-.001 10.826-2.048 21.314-5.806 31.04zm35.03-66.043c0 9.197-5.966 17.002-14.225 19.811v-39.627c8.26 2.806 14.225 10.619 14.225 19.816zm-189.534-60.447.963 5.563c1.033 6.979 7.094 12.222 14.163 12.222h21.886c.329 0 .65-.027.974-.049 2.265 4.089 6.621 6.866 11.617 6.866h22.602c4.262 0 8.083-1.882 10.708-4.846.945.197 1.922.302 2.925.302h26.154c3.926 0 7.486-1.59 10.075-4.158 1.14.293 2.328.466 3.558.466h19.087c7.153 0 13.109-5.183 14.156-12.178.955 5.468 1.442 11.016 1.442 16.561v15.963l-20.408 35.696c-1.337-.466-2.734-.813-4.193-.99-37.13-4.509-74.779-4.488-111.903.062-1.623.199-3.185.599-4.665 1.167l-21.409-38.311v-13.587c-.001-6.967.768-13.936 2.268-20.749zm-31.493 60.447c0-9.196 5.967-17.002 14.225-19.811v39.613c-8.258-2.808-14.225-10.606-14.225-19.802zm29.224 4.637 10.244 18.33c-.675 1.573-1.163 3.248-1.417 5.002-1.937 13.39-2.65 26.949-2.146 40.528-4.319-10.33-6.681-21.578-6.681-33.206zm82.373 256.108c-.363.389-.79.47-1.084.47s-.721-.081-1.084-.47l-74.996-80.248 38.599-16.934c2.727-1.196 4.487-3.892 4.487-6.868v-27.429c1.26.512 2.534 1.001 3.822 1.464l3.5 1.258c8.137 2.925 16.69 4.387 25.245 4.387 8.451 0 16.904-1.428 24.952-4.283l4.255-1.509c1.767-.627 3.5-1.316 5.215-2.034v28.146c0 2.977 1.761 5.672 4.486 6.868l30.801 13.513c-.333 3.708-.513 7.46-.521 11.252z"/><path d="m447.139 395.091c1.878-8.579.274-17.356-4.516-24.717l-32.686-50.219c-.26-.398-.396-.861-.396-1.338v-24.74c0-4.143-3.357-7.5-7.5-7.5s-7.5 3.357-7.5 7.5v24.74c0 3.391.978 6.685 2.826 9.522l32.684 50.216c2.583 3.969 3.447 8.701 2.435 13.326s-3.775 8.563-7.78 11.088c-6.921 4.364-15.825 3.407-21.661-2.325l-6.325-6.217c-2.952-2.903-7.702-2.865-10.605.092-1.535 1.561-2.238 3.623-2.133 5.648-6.058 3.296-13.418 3.295-19.476-.001.105-2.026-.598-4.087-2.132-5.648-2.904-2.954-7.651-2.994-10.606-.093l-6.326 6.217c-5.836 5.732-14.742 6.69-21.661 2.326-4.004-2.525-6.767-6.463-7.779-11.088s-.148-9.357 2.435-13.326l32.684-50.216c1.849-2.841 2.826-6.134 2.826-9.522v-24.74c0-4.143-3.357-7.5-7.5-7.5s-7.5 3.357-7.5 7.5v24.74c0 .477-.138.94-.398 1.341l-32.684 50.216c-4.79 7.359-6.394 16.138-4.516 24.716 1.879 8.578 7.003 15.883 14.431 20.567 5.379 3.393 11.403 5.052 17.387 5.051 7.953 0 15.827-2.941 22.004-8.63 5.796 3.712 12.433 5.576 19.074 5.576s13.278-1.864 19.074-5.576c6.178 5.69 14.051 8.63 22.004 8.63 5.982 0 12.009-1.658 17.387-5.051 7.425-4.683 12.55-11.987 14.429-20.565z"/><path d="m349.524 351.885v3.484c0 4.143 3.357 7.5 7.5 7.5s7.5-3.357 7.5-7.5v-3.484c0-4.143-3.357-7.5-7.5-7.5s-7.5 3.357-7.5 7.5z"/><path d="m391.031 371.596v-3.484c0-4.143-3.357-7.5-7.5-7.5s-7.5 3.357-7.5 7.5v3.484c0 4.143 3.357 7.5 7.5 7.5s7.5-3.358 7.5-7.5z"/><path d="m400.478 429.145c-3.962 0-7.656 1.775-10.136 4.871-12.733 15.891-12.733 22.766-12.733 25.025 0 12.61 10.259 22.869 22.869 22.869s22.87-10.259 22.87-22.869c0-2.259 0-9.134-12.734-25.025-2.48-3.096-6.174-4.871-10.136-4.871zm0 37.765c-4.339 0-7.869-3.53-7.869-7.862.029-1.036 1.544-5.404 7.869-13.651 6.321 8.242 7.838 12.608 7.87 13.648-.002 4.338-3.532 7.865-7.87 7.865z"/></g></svg>