<svg id="Capa_1" enable-background="new 0 0 510.451 510.451" height="512" viewBox="0 0 510.451 510.451" width="512" xmlns="http://www.w3.org/2000/svg"><g><path d="m203.086 212.163h28.616c9.559 0 17.335-7.777 17.335-17.336v-19.157c0-9.559-7.777-17.336-17.335-17.336h-28.616c-6.87 0-12.801 4.027-15.605 9.836h-19.694c-2.804-5.809-8.735-9.836-15.605-9.836h-28.616c-9.559 0-17.336 7.777-17.336 17.336v19.157c0 9.559 7.777 17.336 17.336 17.336h28.616c9.559 0 17.335-7.777 17.335-17.336v-11.657h16.233v11.657c0 9.558 7.777 17.336 17.336 17.336zm-2.336-36.494c0-1.288 1.048-2.336 2.335-2.336h28.616c1.288 0 2.335 1.048 2.335 2.336v19.157c0 1.288-1.048 2.336-2.335 2.336h-28.616c-1.288 0-2.335-1.048-2.335-2.336zm-46.233 19.158c0 1.288-1.048 2.336-2.335 2.336h-28.616c-1.288 0-2.336-1.048-2.336-2.336v-19.157c0-1.288 1.048-2.336 2.336-2.336h28.616c1.288 0 2.335 1.048 2.335 2.336z"/><path d="m462.507 290.847c-2.973-2.883-7.721-2.813-10.605.162-2.884 2.974-2.811 7.722.163 10.605 22.115 21.448 34.295 50.215 34.295 81.003 0 62.217-50.617 112.833-112.833 112.833s-112.833-50.616-112.833-112.833 50.617-112.834 112.833-112.834c19.032 0 37.85 4.832 54.418 13.973 3.627 2.001 8.189.685 10.19-2.943 2.001-3.627.683-8.188-2.944-10.189-18.782-10.362-40.105-15.84-61.665-15.84-61.175 0-112.442 43.197-124.923 100.689l-21.994-9.649v-30.744c29.123-18.182 47.637-50.37 47.786-85.623 16.957-2.88 29.912-17.665 29.912-35.429 0-3.8-.601-7.461-1.699-10.902l6.903-21.075.299-.416c9.094-12.682 8.636-30.21-.891-42.386l1.272-10.666c1.681-14.098-5.257-27.737-17.17-34.618l-1.246-8.721c-1.647-11.532-8.799-21.434-19.129-26.486l-10.661-5.215-2.128-4.629c-5.631-12.25-17.867-20.166-31.172-20.166h-8.65l-2.855-2.101c-11.184-8.225-26.056-8.87-37.892-1.644l-1.672 1.021-1.672-1.021c-11.835-7.226-26.708-6.58-37.892 1.645l-2.855 2.101h-8.65c-13.305 0-25.541 7.916-31.172 20.166l-2.128 4.629-1.241.607c-3.721 1.819-5.262 6.312-3.442 10.032 1.82 3.722 6.313 5.261 10.032 3.442l3.644-1.782c1.554-.76 2.797-2.033 3.52-3.604l3.245-7.059c3.192-6.944 10.078-11.432 17.543-11.432h11.111c1.599 0 3.156-.511 4.444-1.458l4.838-3.559c6.256-4.603 14.572-4.965 21.187-.927l5.581 3.408c2.399 1.467 5.418 1.467 7.817 0l5.581-3.407c6.614-4.04 14.931-3.676 21.187.926l4.838 3.559c1.288.947 2.845 1.458 4.444 1.458h11.111c7.465 0 14.351 4.487 17.543 11.432l3.245 7.059c.723 1.571 1.966 2.845 3.519 3.604l13.063 6.39c5.862 2.867 9.926 8.524 10.87 15.133l1.802 12.617c.375 2.623 2.106 4.854 4.554 5.868 8.143 3.374 13.084 11.991 12.015 20.957l-1.659 13.909c-.251 2.106.402 4.221 1.797 5.819l1.006 1.153c6.125 7.015 6.622 17.614 1.18 25.202l-.972 1.354c-.446.623-.795 1.31-1.033 2.037l-3.528 10.77c-4.899-4.314-10.979-7.312-17.685-8.453v-22.861c0-5.207-2.662-9.921-7.119-12.61-4.459-2.69-9.87-2.845-14.475-.417l-4.309 2.271c-6.267 3.304-13.794 2.874-19.644-1.123l-8.036-5.489c-3.598-2.457-8.295-2.532-11.963-.19l-2.438 1.555c-6.686 4.265-15.429 3.915-21.752-.869-3.859-2.922-9.248-2.921-13.104-.001-6.326 4.784-15.068 5.135-21.757.868l-2.431-1.55c-3.672-2.345-8.37-2.271-11.966.188l-8.037 5.49c-5.849 3.995-13.376 4.427-19.643 1.122l-4.309-2.271c-4.605-2.427-10.017-2.272-14.475.417s-7.119 7.403-7.119 12.61v22.923c-7.049 1.273-13.385 4.612-18.369 9.357l-3.844-11.735c-.238-.728-.587-1.414-1.033-2.037l-.971-1.354c-5.442-7.589-4.946-18.188 1.18-25.204l1.005-1.151c1.396-1.599 2.049-3.714 1.798-5.821l-1.659-13.908c-1.069-8.966 3.871-17.583 12.015-20.957 2.448-1.014 4.179-3.245 4.554-5.868l1.802-12.617c.124-.87.321-1.781.585-2.71 1.134-3.983-1.176-8.133-5.16-9.267-3.987-1.135-8.133 1.177-9.267 5.161-.449 1.577-.788 3.156-1.008 4.694l-1.246 8.721c-11.914 6.881-18.852 20.521-17.17 34.619l1.272 10.665c-9.526 12.177-9.985 29.705-.891 42.387l.298.415 7.627 23.286c-.694 2.784-1.066 5.694-1.066 8.69 0 17.636 12.771 32.331 29.548 35.36.008 11.128 1.84 22.129 5.45 32.697 1.339 3.92 5.6 6.014 9.521 4.674 3.92-1.339 6.012-5.603 4.673-9.521-3.083-9.026-4.646-18.419-4.646-27.919v-93.126l3.908 2.061c11.197 5.901 24.648 5.135 35.1-2.007l5.779-3.947.128.081c11.089 7.075 25.344 7.045 36.374.167 11.028 6.878 25.284 6.908 36.372-.165l.13-.083 5.779 3.947c10.453 7.142 23.902 7.909 35.1 2.007l3.908-2.061v92.838c0 36.509-23.117 69.238-57.525 81.443l-4.253 1.51c-12.942 4.593-27.186 4.563-40.109-.082l-3.5-1.258c-15.073-5.418-28.327-14.912-38.327-27.458-2.582-3.24-7.3-3.772-10.54-1.19s-3.772 7.301-1.19 10.54c7.232 9.074 15.92 16.781 25.66 22.854v30.436l-48.567 21.308c-43.714 19.178-71.96 62.415-71.96 110.151v25.146c0 4.143 3.358 7.5 7.5 7.5s7.5-3.357 7.5-7.5v-25.146c0-.793.026-1.582.044-2.372h32.643c-.539 10.747 1.896 21.665 7.42 31.516 1.375 2.453 3.923 3.833 6.548 3.833 1.242 0 2.501-.309 3.662-.959 3.613-2.026 4.899-6.598 2.873-10.21-8.633-15.395-7.144-34.294 3.792-48.147l1.276-1.616c1.045-1.324 1.614-2.962 1.614-4.648v-17.539c0-4.143-3.358-7.5-7.5-7.5s-7.5 3.357-7.5 7.5v14.938c-4.236 5.469-7.38 11.51-9.429 17.833h-33.986c5.788-34.615 28.609-64.557 61.426-78.996l78.596 84.1c3.105 3.322 7.495 5.228 12.042 5.228s8.938-1.905 12.043-5.228l57.711-61.752c4.492 27.542 17.813 52.152 36.956 70.825.762 8.722-1.085 17.348-5.378 25.001-2.026 3.613-.74 8.185 2.873 10.21 1.16.651 2.419.96 3.662.96 2.625 0 5.173-1.38 6.548-3.832 3.533-6.299 5.828-13.09 6.851-20.098 21.017 15.169 46.804 24.122 74.645 24.122 70.488 0 127.833-57.346 127.833-127.833.002-34.885-13.796-67.476-38.85-91.774zm-173.201-96.819c0 9.445-6.297 17.41-14.904 20.009v-40.051c8.611 2.601 14.904 10.593 14.904 20.042zm-222.027 0c0-9.318 6.117-17.228 14.546-19.938v39.878c-8.427-2.714-14.546-10.622-14.546-19.94zm178.298 189.182-66.878 71.563c-.364.389-.791.47-1.084.47s-.721-.081-1.084-.47l-74.995-80.248 38.598-16.934c2.726-1.196 4.487-3.892 4.487-6.868v-27.645c1.428.588 2.865 1.156 4.323 1.68l3.5 1.258c8.136 2.925 16.689 4.387 25.244 4.387 8.452 0 16.905-1.428 24.955-4.283l4.253-1.51c1.595-.566 3.162-1.183 4.715-1.823v27.936c0 2.977 1.761 5.672 4.487 6.868l30.146 13.226c-.357 3.888-.55 7.822-.55 11.801 0 .16.005.318.006.477-.041.04-.084.074-.123.115z"/><path d="m277.996 382.618c0 52.675 42.854 95.528 95.529 95.528s95.529-42.854 95.529-95.528-42.854-95.529-95.529-95.529-95.529 42.854-95.529 95.529zm176.058 0c0 44.403-36.125 80.528-80.529 80.528s-80.529-36.125-80.529-80.528c0-44.404 36.125-80.529 80.529-80.529s80.529 36.124 80.529 80.529z"/><path d="m333.151 357.193c4.142 0 7.5-3.357 7.5-7.5v-5.537c0-4.143-3.358-7.5-7.5-7.5s-7.5 3.357-7.5 7.5v5.537c0 4.142 3.358 7.5 7.5 7.5z"/><path d="m413.9 357.193c4.142 0 7.5-3.357 7.5-7.5v-5.537c0-4.143-3.358-7.5-7.5-7.5s-7.5 3.357-7.5 7.5v5.537c0 4.142 3.358 7.5 7.5 7.5z"/><path d="m408.587 380.437h-70.123c-7.065 0-12.813 5.748-12.813 12.813v7.466c0 26.398 21.477 47.875 47.875 47.875s47.875-21.477 47.875-47.875v-7.466c-.001-7.065-5.749-12.813-12.814-12.813zm-67.936 15h65.75v5.279c0 6.802-2.076 13.127-5.629 18.377-7.193-7.051-16.982-11.191-27.246-11.191-10.266 0-20.043 4.154-27.234 11.208-3.559-5.253-5.641-11.585-5.641-18.394zm16.627 33.841c4.348-4.063 10.077-6.376 16.247-6.376s11.899 2.313 16.247 6.376c-4.796 2.739-10.34 4.313-16.247 4.313s-11.451-1.574-16.247-4.313z"/></g></svg>