<svg id="Capa_1" enable-background="new 0 0 512.336 512.336" height="512" viewBox="0 0 512.336 512.336" width="512" xmlns="http://www.w3.org/2000/svg"><g><path d="m18.492 462.771c-4.126-.325-7.741 2.757-8.068 6.886-.259 3.27-.39 6.469-.39 9.511v25.147c0 4.143 3.358 7.5 7.5 7.5s7.5-3.357 7.5-7.5v-25.147c0-2.687.112-5.41.343-8.329.327-4.129-2.756-7.741-6.885-8.068z"/><path d="m206.206 167.964c15.873 0 28.787-12.913 28.787-28.786s-12.914-28.786-28.787-28.786-28.786 12.913-28.786 28.786 12.913 28.786 28.786 28.786zm0-42.572c7.602 0 13.787 6.185 13.787 13.786s-6.185 13.786-13.787 13.786-13.786-6.185-13.786-13.786 6.184-13.786 13.786-13.786z"/><path d="m485.419 320.972c-10.708-18.661-26.081-34.452-44.456-45.665-3.537-2.155-8.152-1.039-10.309 2.496s-1.04 8.15 2.496 10.309c33.908 20.691 54.152 56.726 54.152 96.392 0 62.217-50.617 112.833-112.833 112.833s-112.834-50.617-112.834-112.834 50.617-112.834 112.833-112.834c10.554 0 21.002 1.456 31.056 4.329 3.984 1.136 8.134-1.168 9.272-5.151s-1.168-8.134-5.151-9.272c-11.394-3.255-23.229-4.905-35.177-4.905-19.52 0-38.028 4.404-54.593 12.261-.457-1.588-.964-3.162-1.547-4.705l-17.092-45.187c2.447-4.854 3.834-10.329 3.834-16.125 0-6.975-2.003-13.487-5.455-19.005l1.021-24.95c6.857-1.421 12.026-7.507 12.026-14.778v-10.004c0-6.812-4.538-12.578-10.748-14.449-.875-30.951-13.112-59.979-34.904-82.376-23.431-24.087-54.845-37.352-88.453-37.352-33.146 0-64.257 12.961-87.603 36.494-2.917 2.94-2.898 7.689.042 10.606 2.941 2.917 7.689 2.898 10.607-.042 20.508-20.673 47.837-32.058 76.954-32.058 29.523 0 57.119 11.652 77.704 32.811 18.887 19.413 29.606 44.494 30.629 71.272h-25.37c-8.23-22.584-29.918-38.755-55.313-38.755s-47.083 16.17-55.313 38.755h-80.647c.666-16.866 5.229-33.365 13.401-48.11 2.008-3.623.698-8.188-2.925-10.196-3.623-2.006-8.188-.698-10.195 2.925-9.563 17.258-14.791 36.618-15.32 56.367-5.704 2.156-9.778 7.658-9.778 14.108v10.004c0 6.915 4.681 12.745 11.036 14.523l1.097 26.786c-2.875 5.165-4.52 11.105-4.52 17.425 0 5.796 1.387 11.271 3.834 16.125l-17.092 45.187c-6.049 15.993-5.085 33.913 2.645 49.165l.457.9c7.946 15.678 22.269 27.168 39.297 31.524.614.157 1.238.234 1.858.234 1.648 0 3.271-.544 4.6-1.576 1.83-1.42 2.901-3.607 2.901-5.924v-9.506c11.479 7.607 25.054 11.813 39.019 11.88v6.786l-23.112 10.14c-2.018-.033-4.042.399-5.924 1.314l-32.387 15.763c-1.645.801-3.073 1.931-4.229 3.291-21.272 13.777-37.964 34.437-47.002 58.174-1.474 3.871.47 8.204 4.34 9.678.879.335 1.78.493 2.667.493 3.022 0 5.871-1.841 7.011-4.833 6.814-17.897 18.604-33.783 33.635-45.552l22.51 32.518-4.986 9.789c-1.344 2.64-1.009 5.823.855 8.125l50.985 62.948c1.461 1.804 3.623 2.779 5.831 2.779 1.085 0 2.181-.235 3.211-.724 3.127-1.483 4.833-4.914 4.129-8.303l-20.164-96.998 41.369 26.132c2.812 1.777 6.034 2.665 9.257 2.665 3.222 0 6.444-.888 9.254-2.664l42.086-26.585-20.258 97.45c-.704 3.389 1.002 6.819 4.129 8.303 1.03.488 2.126.725 3.211.724 2.208 0 4.37-.976 5.831-2.779l44.677-55.161c22.855 34.863 62.27 57.94 106.98 57.94 70.488 0 127.833-57.346 127.833-127.833.001-22.316-5.837-44.284-16.882-63.532zm-388.151-89.769v-71.931h53.625c8.23 22.584 29.917 38.755 55.313 38.755 23.84 0 44.4-14.258 53.639-34.687v67.575c0 36.509-23.117 69.238-57.524 81.443l-4.253 1.51c-12.941 4.592-27.186 4.562-40.109-.082l-3.5-1.258c-34.208-12.294-57.191-44.975-57.191-81.325zm-29.225-28.29c0-9.198 5.966-17.012 14.225-19.822v39.628c-8.26-2.804-14.225-10.609-14.225-19.806zm14.225-35.309c-3.649.693-7.105 1.934-10.276 3.643l-.49-11.975h10.766zm203.344-8.332-.47 11.472c-3.193-1.597-6.653-2.734-10.297-3.32v-8.152zm-10.767 23.507c8.774 2.499 15.225 10.569 15.225 20.134s-6.451 17.635-15.225 20.134zm-47.671 157.819h3.941c8.644 0 17.139-1.597 25.088-4.602-2.837 6.892-5.088 14.083-6.691 21.513l-22.338-9.8zm79.121-64.185c-12.923 8.18-24.282 18.611-33.529 30.738-.104.101-.211.198-.31.306-10.606 11.528-25.674 18.141-41.34 18.141h-3.941v-8.708c27.084-16.963 44.964-46.05 47.383-78.438 5.748-.876 11.048-3.125 15.568-6.39l14.173 37.47c.844 2.234 1.507 4.542 1.996 6.881zm-8.725-142.33c.051 0 .093.042.093.093v10.004c0 .051-.042.093-.093.093h-32.749c.145-1.681.235-3.377.235-5.095s-.09-3.414-.235-5.095zm-91.364-38.755c24.179 0 43.85 19.671 43.85 43.85s-19.671 43.85-43.85 43.85-43.849-19.671-43.849-43.85 19.67-43.85 43.849-43.85zm-58.614 48.944h-87.069c-.051 0-.093-.042-.093-.093v-10.004c0-.051.042-.093.093-.093h87.069c-.145 1.681-.235 3.377-.235 5.095s.09 3.415.235 5.095zm-58.029 163.517c-2.092-2.273-5.367-3.033-8.245-1.909-2.879 1.123-4.775 3.896-4.775 6.987v14.9c-8.667-4.384-15.808-11.443-20.276-20.26l-.457-.9c-5.83-11.501-6.557-25.016-1.994-37.076l14.173-37.47c4.248 3.07 9.188 5.232 14.54 6.208 2.301 32.791 20.48 62.301 48.033 79.293v8.358c-15.543-.095-30.47-6.686-40.999-18.131zm9.099 133.163 4.808-9.44c1.252-2.458 1.054-5.405-.517-7.673l-25.21-36.418 28.098-13.676 21.274 102.337zm81.137-21.188c-.754.477-1.73.478-2.487-.001l-53.627-33.875-3.578-17.212 20.967-9.199c2.726-1.196 4.487-3.892 4.487-6.868v-27.429c1.261.511 2.534 1.001 3.823 1.464l3.5 1.258c8.136 2.925 16.689 4.387 25.245 4.387 8.451 0 16.905-1.428 24.954-4.283l4.253-1.51c1.638-.581 3.245-1.216 4.838-1.875v27.988c0 2.977 1.761 5.672 4.487 6.868l20.967 9.199-3.484 16.76zm50.822 56.318 16.57-79.709c1.449 15.659 5.729 30.508 12.331 44.027z"/><path d="m368.997 315.336c-7.694-6.53-17.584-10.301-27.906-10.301-23.745 0-43.063 19.318-43.063 43.063v19.831c-6.703 5.849-10.951 14.443-10.951 24.017 0 17.577 14.3 31.878 31.878 31.878h58.584l22.817 36.392c3.829 6.106 10.418 9.753 17.626 9.753 11.472 0 20.804-9.333 20.804-20.805v-28.244c15.954-6.211 27.296-21.726 27.296-39.851v-16.253c0-22.813-17.962-41.512-40.486-42.695l-4.456-2.822c-15.634-9.899-35.305-11.321-52.143-3.963zm45.048 17.226-9.326 23.276h-16.505c-4.142 0-7.5 3.357-7.5 7.5s3.358 7.5 7.5 7.5h21.58c3.065 0 5.822-1.865 6.962-4.711l11.469-28.624c12.975 2.321 22.857 13.681 22.857 27.313v16.253c0 4.694-1.176 9.117-3.242 12.998l-7.118-6.692v-11.556c0-4.143-3.358-7.5-7.5-7.5s-7.5 3.357-7.5 7.5v7.298h-8.838c-4.142 0-7.5 3.357-7.5 7.5s3.358 7.5 7.5 7.5h13.366l7.241 6.808c-4.15 2.474-8.993 3.899-14.165 3.899-4.142 0-7.5 3.357-7.5 7.5s3.358 7.5 7.5 7.5c.154 0 .306-.01.459-.012v25.352c0 3.201-2.604 5.805-5.804 5.805-2.011 0-3.849-1.018-4.917-2.722l-18.006-28.717c3.138-.896 5.438-3.78 5.438-7.206 0-4.143-3.358-7.5-7.5-7.5h-46.433l14.648-15.331h11.59c4.142 0 7.5-3.357 7.5-7.5s-3.358-7.5-7.5-7.5h-14.797c-2.048 0-4.008.838-5.423 2.319l-26.762 28.012h-6.864c-9.307 0-16.878-7.571-16.878-16.878s7.572-16.879 16.878-16.879h14.078c2.369 0 4.598-1.119 6.013-3.018l7.866-10.553c2.476-3.321 1.79-8.021-1.531-10.496-3.323-2.476-8.021-1.789-10.496 1.531l-5.617 7.535h-10.314c-2.026 0-4.005.198-5.927.561v-12.53c0-15.475 12.589-28.063 28.063-28.063 9.835 0 19.073 5.249 24.108 13.699l4.628 7.767c2.12 3.558 6.724 4.725 10.282 2.603 3.558-2.12 4.724-6.724 2.604-10.282l-3.702-6.211c11.337-3.59 23.895-2.104 34.104 4.362z"/></g></svg>