<svg id="Capa_1" enable-background="new 0 0 512.466 512.466" height="512" viewBox="0 0 512.466 512.466" width="512" xmlns="http://www.w3.org/2000/svg"><g><path d="m34.848 417.093c-3.613-2.023-8.185-.734-10.208 2.88-9.735 17.388-14.881 37.109-14.881 57.033v27.439c0 4.143 3.357 7.5 7.5 7.5s7.5-3.357 7.5-7.5v-27.439c0-17.364 4.484-34.552 12.969-49.705 2.024-3.614.735-8.185-2.88-10.208z"/><path d="m448.116 279.859c-3.393-2.376-8.069-1.551-10.445 1.842s-1.552 8.069 1.842 10.445c30.178 21.132 48.194 55.707 48.194 92.487 0 62.217-50.616 112.833-112.833 112.833s-112.834-50.616-112.834-112.833 50.617-112.834 112.834-112.834c13.033 0 25.817 2.208 37.998 6.564 3.899 1.392 8.192-.637 9.588-4.537 1.395-3.9-.637-8.192-4.537-9.588-13.807-4.937-28.29-7.439-43.049-7.439-61.272 0-112.604 43.333-124.983 100.961l-22.614-9.921v-31.054c23.807-15.057 40.426-39.511 45.584-67.311 12.179-1.36 22.533-8.829 27.931-19.264l1.597-1.101c15.292-10.545 21.569-31.53 15.6-49.752 12.737-13.138 15.82-34.649 6.963-51.524l-1.95-3.714 1.224-7.105c2.899-16.848-3.702-33.735-16.82-43.024l-10.088-7.144-1.225-8.573c-2.924-20.473-19.017-35.442-37.773-35.442-.507 0-1.019.012-1.528.033l-3.112.135-6.343-6.453c-9.48-9.645-22.644-13.37-35.22-9.964l-8.987 2.435-6.603-3.922c-11.424-6.792-25.066-6.789-36.488-.001l-6.603 3.923-8.986-2.435c-12.573-3.407-25.739.317-35.221 9.964l-6.343 6.453-3.111-.135c-19.415-.849-36.302 14.381-39.304 35.408l-1.225 8.573-10.088 7.144c-13.118 9.289-19.72 26.177-16.82 43.024l1.224 7.105-1.95 3.715c-8.856 16.872-5.773 38.385 6.963 51.523-5.97 18.222.308 39.207 15.601 49.752l3.185 2.196c5.368 9.553 14.969 16.417 26.246 18.03 1.007 5.587 2.476 11.089 4.421 16.466 1.407 3.895 5.706 5.912 9.604 4.502 3.895-1.408 5.911-5.708 4.502-9.604-3.41-9.432-5.14-19.312-5.14-29.365v-81.491c0-.533.399-.982.928-1.045l4.967-.587c12.888-1.524 24.632-8.749 31.84-19.48l1.387.227c15.047 2.465 30.114-2.87 40.233-14.015 11.46 3.591 23.867 2.426 34.533-3.337l3.971-2.146c6.693 22.227 21.743 41.273 41.994 52.881l2.726 1.588v67.117c0 36.508-23.117 69.237-57.525 81.443l-4.253 1.51c-12.942 4.591-27.187 4.561-40.109-.082l-3.5-1.258c-14.62-5.255-27.569-14.366-37.446-26.349-2.634-3.196-7.361-3.65-10.558-1.017-3.196 2.635-3.651 7.361-1.017 10.558 7.135 8.657 15.641 16.031 25.125 21.864v30.125l-50.665 22.228c-12.665 5.557-24.144 13.25-34.118 22.866-2.981 2.875-3.068 7.623-.193 10.605 1.473 1.526 3.435 2.294 5.4 2.294 1.873 0 3.75-.698 5.205-2.101 8.693-8.383 18.696-15.087 29.731-19.929l21.657-9.501 58.934 63.062c3.105 3.323 7.495 5.229 12.043 5.229s8.938-1.905 12.043-5.229l56.988-60.979c-.175 2.729-.273 5.477-.273 8.249 0 70.487 57.346 127.833 127.834 127.833 70.487 0 127.833-57.346 127.833-127.833-.002-41.67-20.41-80.838-54.593-104.774zm-173.601-45.956c.027-.951.056-1.902.056-2.858v-37.425c8.774 2.499 15.225 10.569 15.225 20.134 0 9.586-6.479 17.668-15.281 20.149zm-206.747-20.149c0-9.198 5.966-17.012 14.225-19.822v37.401c0 .755.032 1.507.049 2.26-8.285-2.795-14.274-10.623-14.274-19.839zm160.128-113.61-.809-3.539c-.521-2.285-2.081-4.194-4.216-5.162-2.134-.969-4.599-.883-6.661.232l-12.461 6.732c-7.761 4.194-16.906 4.722-25.101 1.443l-1.957-.782c-3.136-1.256-6.725-.257-8.764 2.438l-.97 1.282c-6.652 8.791-17.541 13.145-28.423 11.365l-6.35-1.039c-3.031-.498-6.062.906-7.643 3.543l-1.482 2.471c-4.687 7.813-12.887 13.115-21.935 14.186l-4.966.587c-8.077.955-14.168 7.808-14.168 15.941v28.603c-13.959 2.653-25.078 13.4-28.281 27.159-3.302-7.657-3.36-16.968.509-25.044 1.462-3.052.699-6.704-1.861-8.916l-1.475-1.274c-9.673-8.355-12.248-23.646-5.991-35.564l3.132-5.966c.767-1.461 1.03-3.133.751-4.759l-1.654-9.612c-1.896-11.013 2.406-22.361 10.705-28.237l12.723-9.009c1.682-1.191 2.8-3.021 3.091-5.061l1.681-11.769c1.907-13.357 12.126-23.07 23.806-22.544l6.445.278c2.12.099 4.183-.722 5.672-2.235l8.682-8.832c5.631-5.728 13.333-7.973 20.601-6.001l12.051 3.265c1.954.528 4.047.244 5.792-.791l9.331-5.545c6.626-3.938 14.536-3.938 21.164.001l9.331 5.544c1.745 1.036 3.839 1.322 5.792.791l12.052-3.265c7.269-1.972 14.969.272 20.6 6.001l8.682 8.832c1.489 1.514 3.566 2.334 5.672 2.235l6.446-.278c11.671-.528 21.897 9.188 23.805 22.544l1.681 11.769c.291 2.04 1.409 3.869 3.091 5.061l12.723 9.009c8.299 5.876 12.601 17.225 10.705 28.237l-1.654 9.612c-.279 1.626-.016 3.298.751 4.759l3.132 5.965c6.257 11.92 3.682 27.21-5.99 35.565l-1.476 1.274c-2.561 2.212-3.323 5.864-1.861 8.916 3.615 7.546 3.802 16.171 1.118 23.517-3.736-13.345-14.99-23.576-28.891-25.811v-14.338c0-5.378-2.898-10.38-7.565-13.055l-2.702-1.548c-18.422-10.556-31.691-28.482-36.41-49.181zm-48.53 326.977c-.363.39-.79.471-1.084.471s-.72-.081-1.084-.471l-55.333-59.208 18.935-8.307c2.727-1.196 4.487-3.892 4.487-6.868v-27.437c1.264.513 2.536 1.009 3.823 1.472l3.499 1.258c8.137 2.925 16.689 4.387 25.245 4.387 8.451 0 16.904-1.428 24.954-4.283l4.253-1.51c1.767-.627 3.5-1.316 5.215-2.034v28.147c0 2.977 1.761 5.672 4.486 6.868l18.226 7.996z"/><path d="m449.353 319.176c-4.521-2.474-10.024-2.283-14.363.493l-16.763 10.729c-27.056-14.352-59.653-14.352-86.707 0l-16.764-10.729c-4.338-2.776-9.842-2.967-14.363-.493s-7.328 7.212-7.328 12.364v30.805c-16.197 33.534-4.017 74.137 28.249 93.138l17.099 10.07c11.244 6.622 23.853 9.934 36.461 9.934 12.607 0 25.216-3.312 36.46-9.934l17.1-10.07c32.267-19.002 44.446-59.604 28.248-93.138v-30.805c-.001-5.152-2.808-9.89-7.329-12.364zm-28.531 123.381-17.1 10.07c-17.793 10.48-39.901 10.48-57.698 0l-17.099-10.07c-25.954-15.284-35.482-48.233-21.692-75.013.547-1.062.832-2.239.832-3.434v-30.915l18.318 11.724c2.895 1.855 6.538 1.934 9.512.205 24.043-13.994 53.914-13.992 77.957 0 2.969 1.728 6.613 1.65 9.506-.201l18.323-11.728.001 30.915c0 1.194.285 2.372.832 3.434 13.79 26.779 4.262 59.729-21.692 75.013z"/><path d="m374.874 372.901c-15.54 0-28.184 11.288-28.184 25.163 0 11.556 8.774 21.312 20.684 24.251v2.346 4.916l-7.799 4.273c-3.632 1.99-4.963 6.549-2.973 10.182 1.364 2.488 3.933 3.896 6.584 3.896 1.218 0 2.454-.297 3.598-.924l8.09-4.433 8.089 4.433c1.144.627 2.38.924 3.598.924 2.651 0 5.22-1.408 6.584-3.896 1.99-3.633.66-8.191-2.973-10.182l-7.798-4.273v-4.916-2.346c11.91-2.94 20.683-12.695 20.683-24.251-.001-13.875-12.643-25.163-28.183-25.163zm0 35.326c-7.146 0-13.184-4.654-13.184-10.163s6.037-10.163 13.184-10.163c7.146 0 13.183 4.654 13.183 10.163s-6.038 10.163-13.183 10.163z"/></g></svg>