<svg id="Capa_1" enable-background="new 0 0 512.295 512.295" height="512" viewBox="0 0 512.295 512.295" width="512" xmlns="http://www.w3.org/2000/svg"><g><path d="m457.047 285.906c-3.16-2.677-7.893-2.288-10.571.873-2.678 3.16-2.287 7.893.873 10.57 25.377 21.506 39.932 52.893 39.932 86.112 0 62.217-50.617 112.833-112.833 112.833s-112.833-50.616-112.833-112.833 50.617-112.834 112.833-112.834c16.64 0 32.673 3.545 47.654 10.535 3.752 1.75 8.216.128 9.968-3.626 1.751-3.753.128-8.216-3.625-9.968-16.982-7.924-35.149-11.941-53.997-11.941-23.897 0-46.279 6.598-65.432 18.057l-7.515-62.259c2.271-4.709 3.549-9.984 3.549-15.554 0-7.167-2.117-13.845-5.746-19.458l2.907-44.283c2.271-34.596-9.53-67.584-33.229-92.89-23.699-25.303-55.844-39.24-90.514-39.24-37.505 0-72.596 16.712-96.275 45.852-2.612 3.214-2.124 7.938 1.091 10.55s7.938 2.125 10.551-1.091c20.817-25.619 51.665-40.311 84.633-40.311 30.476 0 58.733 12.251 79.565 34.495s31.206 51.243 29.209 81.653l-2.136 32.548c-3.189-1.593-6.644-2.728-10.282-3.313v-17.977c0-5.159-2.015-10.004-5.674-13.641-3.631-3.609-8.44-5.593-13.556-5.593-.039 0-.08 0-.119 0l-22.511.135v-9.511c0-3.7-2.004-7.125-5.229-8.938-3.226-1.813-7.192-1.745-10.352.176l-18.527 11.262v-2.249c0-3.789-2.075-7.253-5.415-9.041-3.34-1.787-7.373-1.595-10.528.508l-16.986 11.324v-6.519c0-3.564-1.806-6.818-4.831-8.703-3.026-1.887-6.742-2.072-9.941-.503l-32.673 16.033c-17.421 8.55-29.955 24.631-34.429 43.121-4.357.599-8.47 1.973-12.187 3.992l-2.173-33.111c-1.124-17.121 1.657-33.747 8.266-49.417 1.609-3.816-.18-8.215-3.996-9.824-3.818-1.608-8.215.18-9.825 3.996-7.523 17.839-10.69 36.757-9.412 56.228l3.017 45.968c-2.998 5.246-4.721 11.31-4.721 17.773 0 4.793.944 9.37 2.655 13.554l-9.988 82.749-7.226 10.272c-2.383 3.388-1.568 8.066 1.82 10.449 1.312.923 2.817 1.366 4.309 1.366 2.359 0 4.681-1.11 6.141-3.187l8.311-11.815c.712-1.013 1.163-2.187 1.311-3.416l8.476-70.224c3.978 2.701 8.523 4.624 13.417 5.554.004 35.576 18.777 68.144 48.294 86.347v30.146l-8.652 3.796c-.102.044-.196.099-.294.147-3.884-1.174-8.183-1.019-12.125.786l-44.678 20.454c-4.622 2.115-8.057 6.136-9.423 11.032-.063.224-.096.452-.15.677-3.601 2.794-7.013 5.787-10.232 8.954-9.701-16.703-12.475-36.46-7.526-55.461 1.044-4.009-1.359-8.104-5.368-9.148s-8.104 1.359-9.148 5.367c-6.377 24.485-2.117 50.02 11.644 70.962-15.702 20.274-24.578 45.471-24.578 71.603v27.438c0 4.143 3.358 7.5 7.5 7.5s7.5-3.357 7.5-7.5v-27.438c0-29.185 12.692-57.035 34.345-76.223l24.188 35.568c1.973 2.901 5.695 4.046 8.96 2.757l6.69-2.647 73.974 73.813c1.434 1.432 3.35 2.191 5.299 2.191.968 0 1.943-.188 2.873-.572 1.06-.44 1.978-1.106 2.712-1.927 0 .001 60.862-60.714 73.896-73.717 20.095 44.316 64.755 75.216 116.497 75.216 70.488 0 127.833-57.346 127.833-127.833.002-37.637-16.485-73.194-45.232-97.556zm-206.907 67.715-2.672-1.223c-3.943-1.805-8.242-1.961-12.126-.787-.098-.048-.192-.103-.294-.147l-8.652-3.796v-30.347c29.477-18.101 48.255-50.483 48.42-85.975 4.847-.778 9.375-2.519 13.374-5.033l6.882 57.02c-22.024 17.494-38.163 42.087-44.932 70.288zm2.443-128.938c-.229-2.33-.843-4.534-1.778-6.548l9.019-15.776v28.515c0 10.826-2.047 21.313-5.805 31.039.236-12.52-.232-24.973-1.436-37.23zm-14.928 1.464c1.923 19.587 1.919 39.703-.012 59.789-.224 2.332-2.034 4.202-4.303 4.447 0 0-.001.001-.001.001-35.874 3.88-72.254 3.862-108.131-.055-2.206-.24-3.969-1.97-4.288-4.205-2.868-20.081-2.868-40.314 0-60.139.319-2.204 2.056-3.929 4.224-4.194 18.043-2.211 36.209-3.316 54.381-3.316 18.003 0 36.012 1.086 53.89 3.257 2.232.272 4.016 2.128 4.24 4.415zm-95.567 80.766c12.454.905 24.945 1.368 37.437 1.368 11.517 0 23.034-.386 34.52-1.155-3.745 1.998-7.662 3.744-11.744 5.192l-4.254 1.509c-12.941 4.591-27.187 4.562-40.109-.082l-3.5-1.258c-4.303-1.546-8.427-3.416-12.35-5.574zm147.962-111.041c0 9.565-6.451 17.635-15.225 20.134v-40.269c8.774 2.5 15.225 10.57 15.225 20.135zm-164.96-65.258 25.837-12.679v7.77c0 3.789 2.075 7.254 5.416 9.041 3.341 1.788 7.375 1.595 10.527-.509l16.985-11.323v1.82c0 3.699 2.003 7.124 5.227 8.938 3.225 1.814 7.191 1.747 10.354-.174l18.527-11.262v3.304c0 3.428 1.338 6.646 3.769 9.063 2.414 2.4 5.611 3.719 9.014 3.719h.075l24.744-.147c1.122-.053 2.204.431 3.01 1.23.806.801 1.249 1.867 1.249 3.003v29.729l-20.408 35.696c-1.337-.466-2.734-.813-4.193-.99-37.13-4.509-74.78-4.488-111.904.062-1.623.199-3.185.599-4.664 1.167l-21.143-37.833c1.757-16.872 12.188-32.073 27.578-39.625zm-57.068 65.258c0-9.197 5.966-17.002 14.225-19.808v39.613c-8.258-2.807-14.225-10.609-14.225-19.805zm29.226 4.638 10.243 18.328c-.675 1.574-1.162 3.249-1.416 5.002-1.937 13.389-2.65 26.948-2.146 40.527-4.319-10.33-6.681-21.577-6.681-33.205zm73.72 286.206-64.659-64.518c-1.433-1.431-3.348-2.191-5.299-2.191-.927 0-1.862.172-2.757.525l-5.681 2.248-22.451-33.015c-.506-.744-.407-1.479-.303-1.852.104-.371.4-1.051 1.218-1.426l44.677-20.452c1.1-.502 2.418-.025 2.938 1.069l52.317 110.116zm7.5-28.663-45.225-95.19 7.812-3.427c2.726-1.196 4.487-3.892 4.487-6.868v-27.429c1.261.512 2.534 1.001 3.823 1.464l3.5 1.258c8.136 2.925 16.689 4.387 25.245 4.387 8.451 0 16.904-1.428 24.953-4.283l4.254-1.509c1.376-.488 2.734-1.01 4.079-1.554v27.666c0 2.977 1.761 5.672 4.487 6.868l7.812 3.427zm72.159-35.855-64.659 64.518v-9.494l52.317-110.116c.519-1.095 1.835-1.574 2.938-1.069l6.227 2.851c-.546 4.785-.836 9.646-.836 14.575 0 13.054 1.971 25.656 5.624 37.528-.575.322-1.121.717-1.611 1.207z"/><path d="m427.983 341.225 5.375 5.375-12.927 12.928-5.07-5.07c-2.484-2.484-5.788-3.853-9.301-3.853s-6.817 1.369-9.301 3.853l-64.287 64.286c-4.378 4.378-5.61 10.875-3.14 16.553l4.648 10.683-13.409 13.409c-2.929 2.93-2.929 7.678 0 10.607 1.464 1.464 3.384 2.196 5.303 2.196s3.839-.732 5.303-2.196l13.409-13.409 10.683 4.648c1.944.846 3.983 1.258 6.001 1.258 3.876 0 7.672-1.52 10.55-4.397l64.287-64.287c5.129-5.129 5.129-13.475 0-18.604l-5.07-5.07 12.928-12.927 6.688 6.688c1.464 1.464 3.384 2.196 5.303 2.196s3.839-.732 5.303-2.196c2.929-2.93 2.929-7.678 0-10.607l-22.67-22.67c-2.929-2.928-7.678-2.928-10.606 0-2.929 2.928-2.929 7.676 0 10.606zm-66.729 106.255-12.666-5.511-5.511-12.619 62.981-62.981 18.137 18.137z"/><path d="m348.426 345.511c1.311 2.42 3.842 3.927 6.594 3.927h29.005c4.142 0 7.5-3.357 7.5-7.5s-3.358-7.5-7.5-7.5h-15.167l20.774-31.884c1.502-2.306 1.622-5.249.31-7.668-1.311-2.42-3.842-3.927-6.594-3.927h-27.437c-4.142 0-7.5 3.357-7.5 7.5s3.358 7.5 7.5 7.5h13.599l-20.774 31.884c-1.503 2.305-1.622 5.249-.31 7.668z"/><path d="m296.797 397.553c1.311 2.42 3.842 3.927 6.594 3.927h20.745c4.142 0 7.5-3.357 7.5-7.5s-3.358-7.5-7.5-7.5h-6.907l12.707-19.502c1.502-2.306 1.622-5.249.31-7.668-1.311-2.42-3.842-3.927-6.594-3.927h-19.624c-4.142 0-7.5 3.357-7.5 7.5s3.358 7.5 7.5 7.5h5.786l-12.707 19.502c-1.502 2.305-1.621 5.249-.31 7.668z"/></g></svg>