<svg id="Capa_1" enable-background="new 0 0 511.112 511.112" height="512" viewBox="0 0 511.112 511.112" width="512" xmlns="http://www.w3.org/2000/svg"><g><path d="m445.232 276.99c-3.441-2.303-8.1-1.382-10.405 2.06-2.304 3.441-1.382 8.101 2.06 10.405 31.398 21.023 50.144 56.098 50.144 93.824 0 62.217-50.616 112.833-112.833 112.833s-112.834-50.616-112.834-112.833 50.617-112.834 112.834-112.834c12.162 0 24.137 1.929 35.591 5.733 3.937 1.303 8.178-.823 9.482-4.754 1.305-3.932-.823-8.177-4.754-9.482-12.982-4.311-26.548-6.497-40.319-6.497-22.852 0-44.318 6.033-62.901 16.581 1.965-9.196.858-18.892-3.436-27.657l-17.606-35.939c8.43-6.582 13.865-16.828 13.865-28.328 0-8.041-2.654-15.473-7.132-21.468.034-.198.064-.396.082-.6l2.038-23.029c3.125-35.302-8.627-70.347-32.245-96.146-22.939-25.059-53.993-38.859-87.445-38.859h-3.627c-39.517 0-76.524 20.033-98.997 53.589-2.305 3.442-1.384 8.101 2.058 10.405 3.443 2.305 8.101 1.383 10.405-2.059 19.683-29.389 52.033-46.935 86.535-46.935h3.627c29.192 0 56.317 12.07 76.38 33.986 20.782 22.704 31.122 53.575 28.367 84.696l-1.209 13.665c-2.894-1.312-5.986-2.258-9.225-2.764-.731-4.506-3.885-8.324-8.306-9.833-14.271-4.874-26.854-14.392-35.431-26.798l-13.86-20.052c-2.07-2.995-5.343-4.818-8.979-5.003-3.653-.201-7.077 1.299-9.439 4.068-19.529 22.896-46.692 37.825-76.488 42.039l-27.18 3.845c-6.326.894-11.293 5.796-12.466 11.895-3.27.596-6.389 1.629-9.289 3.048l-1.249-14.111c-1.357-15.321.357-30.406 5.095-44.834 1.292-3.936-.851-8.174-4.786-9.466-3.938-1.291-8.174.852-9.466 4.786-5.376 16.373-7.322 33.478-5.784 50.837l2.038 23.029c.051.571.171 1.119.339 1.643-4.023 5.805-6.389 12.842-6.389 20.424 0 11.5 5.434 21.748 13.863 28.333l-17.605 35.936c-6.518 13.305-5.741 28.761 2.076 41.344 5.371 8.646 5.577 19.512.539 28.355l-2.628 4.616c-7.807 13.702-7.445 30.512.941 43.868l10.745 17.112c-31.982 22.529-50.941 58.912-50.941 98.279v25.146c0 4.143 3.357 7.5 7.5 7.5s7.5-3.357 7.5-7.5v-25.146c0-32.753 14.992-63.146 40.515-83.008l22.522 32.534-4.986 9.789c-1.345 2.64-1.01 5.823.854 8.125l50.985 62.948c1.461 1.804 3.622 2.779 5.831 2.779 1.085 0 2.181-.235 3.211-.724 3.128-1.483 4.834-4.914 4.129-8.303l-20.164-96.998 41.369 26.132c2.812 1.777 6.034 2.666 9.257 2.666 3.222 0 6.443-.889 9.254-2.665l42.087-26.586-20.258 97.451c-.705 3.389 1.001 6.819 4.129 8.303 1.03.488 2.126.725 3.211.724 2.208 0 4.37-.976 5.831-2.779l45.052-55.624c22.808 35.123 62.377 58.403 107.285 58.403 70.487 0 127.833-57.346 127.833-127.833.001-42.739-21.232-82.473-56.797-106.287zm-150.843-26.021c4.229 8.634 3.726 18.663-1.348 26.83-1.914 3.081-3.431 6.397-4.506 9.857-.106.341-.178.684-.234 1.026-19.449 17.676-33.437 41.256-39.121 67.875l-22.959-10.072v-30.82c29.17-18.27 47.672-50.604 47.672-85.974v-14.117c.97-.156 1.928-.349 2.871-.582zm-5.27-70.867c0 9.564-6.452 17.623-15.225 20.121v-40.255c8.774 2.498 15.225 10.569 15.225 20.134zm-207.803-19.822v39.644c-8.259-2.81-14.225-10.625-14.225-19.822s5.966-17.012 14.225-19.822zm-18.148 117.518c-5.073-8.166-5.577-18.195-1.348-26.829l17.619-35.965c.619.152 1.245.287 1.876.407v14.569c0 11.03 1.796 21.942 5.338 32.433 1.324 3.925 5.579 6.026 9.505 4.707 3.924-1.325 6.031-5.581 4.706-9.506-3.019-8.941-4.549-18.238-4.549-27.634v-82.3l27.012-3.822c31.98-4.522 61.259-20.051 82.917-43.883l11.412 16.508c10.051 14.54 24.643 25.803 41.237 31.868v81.341c0 36.507-23.117 69.236-57.525 81.443l-4.253 1.51c-12.942 4.592-27.187 4.561-40.109-.082l-3.5-1.258c-15.018-5.397-28.235-14.848-38.225-27.328-2.589-3.233-7.309-3.759-10.542-1.169-3.233 2.588-3.757 7.308-1.169 10.542 7.333 9.162 16.149 16.932 26.039 23.017v30.119l-23.112 10.14c-2.019-.033-4.042.399-5.924 1.314l-27.941 13.6-10.651-16.963c-5.442-8.667-5.677-19.575-.61-28.468l2.629-4.617c7.763-13.628 7.444-30.37-.832-43.694zm34.541 161.931 4.809-9.44c1.252-2.458 1.054-5.405-.516-7.673l-25.211-36.418 28.099-13.676 21.273 102.337zm81.138-21.189c-.754.477-1.729.478-2.485-.001l-53.627-33.875-3.578-17.211 20.967-9.199c2.726-1.196 4.486-3.892 4.486-6.868v-27.436c1.264.513 2.537 1.008 3.824 1.471l3.499 1.258c8.137 2.925 16.689 4.387 25.245 4.387 8.451 0 16.904-1.428 24.954-4.283l4.253-1.51c1.637-.581 3.244-1.215 4.837-1.874v27.987c0 2.977 1.761 5.672 4.487 6.868l20.967 9.199-3.484 16.759zm50.822 56.318 17.05-82.021c1.211 16.308 5.492 31.774 12.271 45.819z"/><path d="m374.197 482.886c4.143 0 7.5-3.357 7.5-7.5v-45.07c0-6.542 2.673-12.656 7.237-17.06 2.355 3.905 5.384 7.412 8.99 10.311 7.166 5.76 15.868 8.607 24.552 8.607 9.77 0 19.516-3.605 27.02-10.725 25.023-23.74 28.288-62.453 7.593-90.048l-6.608-8.812c-9.517-12.69-27.355-15.805-40.607-7.091-6.838 4.496-11.46 11.396-13.014 19.431-1.546 7.988.142 16.068 4.749 22.768l-8.08 8.855c-7.272 7.967-10.967 18.704-10.138 29.458.059.769.148 1.532.252 2.292-3.688 2.511-6.867 5.606-9.445 9.122-2.579-3.516-5.757-6.611-9.446-9.122.104-.76.193-1.522.252-2.291.829-10.755-2.865-21.492-10.136-29.459l-8.082-8.855c4.607-6.699 6.295-14.779 4.749-22.768-1.554-8.034-6.176-14.935-13.014-19.431-13.252-8.714-31.091-5.601-40.607 7.092l-6.607 8.811c-20.695 27.596-17.431 66.308 7.593 90.048 7.504 7.12 17.248 10.726 27.019 10.725 8.683 0 17.387-2.848 24.551-8.607 3.607-2.899 6.637-6.406 8.992-10.312 4.565 4.404 7.238 10.518 7.238 17.061v45.07c-.003 4.142 3.354 7.5 7.497 7.5zm30.41-106.222 8.171-8.954c4.697-5.145 5.202-12.734 1.229-18.457v.001c-2.34-3.371-3.2-7.446-2.421-11.476.78-4.029 3.098-7.491 6.527-9.746 6.647-4.369 15.595-2.807 20.367 3.558l6.608 8.812c16.126 21.502 13.581 51.667-5.918 70.167-8.753 8.304-22.444 8.866-31.849 1.307-5.269-4.234-8.456-10.278-8.976-17.018-.519-6.74 1.704-13.201 6.262-18.194zm-54.561 18.193c-.52 6.739-3.707 12.783-8.977 17.018-9.402 7.56-23.095 6.999-31.848-1.308-19.499-18.498-22.043-48.664-5.917-70.167l6.607-8.811c2.949-3.933 7.49-6.031 12.099-6.031 2.851 0 5.728.804 8.269 2.474 3.43 2.255 5.747 5.717 6.527 9.746.779 4.029-.081 8.104-2.421 11.475-3.974 5.723-3.469 13.313 1.228 18.456l8.173 8.955c4.557 4.993 6.781 11.454 6.26 18.193z"/></g></svg>