<svg id="Capa_1" enable-background="new 0 0 511.956 511.956" height="512" viewBox="0 0 511.956 511.956" width="512" xmlns="http://www.w3.org/2000/svg"><g><path d="m355.137 370.076-5.293-2.322.833-3.103c1.93-7.186-.31-14.739-5.843-19.714l-14.916-13.41c-2.271-2.04-5.202-3.163-8.253-3.163h-17.192v-10.454c10.252-5.841 19.35-13.594 26.794-22.91 2.586-3.236 2.059-7.955-1.178-10.541s-7.955-2.059-10.541 1.178c-9.164 11.471-21.309 20.123-35.12 25.022l-12.06 4.278c-11.25 3.99-23.636 3.965-34.872-.071l-11.271-4.051c-31.124-11.186-52.035-40.922-52.035-73.995v-65.67c0-15.427 7.344-30.193 19.646-39.503l21.8-16.494 37.733 20.713c24.879 13.657 53.022 21.359 81.39 22.273l2.009.064v78.352c0 7.896-1.19 15.734-3.538 23.297-1.228 3.956.983 8.158 4.939 9.387 3.962 1.227 8.159-.984 9.387-4.939 2.795-9.004 4.212-18.339 4.212-27.744v-5.194c16.619-3.158 29.226-17.785 29.226-35.309 0-7.864-2.545-15.142-6.846-21.066v-43.448c0-20.743-7.505-40.236-21.216-55.544l16.542-27.258c1.599-2.637 2.023-5.848 1.166-8.809-.857-2.962-2.932-5.449-5.692-6.823l-27.718-13.801c-43.293-21.556-92.465-25.191-138.456-10.24-3.938 1.281-6.094 5.513-4.813 9.452 1.281 3.94 5.515 6.093 9.452 4.813 6.255-2.034 12.575-3.684 18.932-4.971-4.09 6.229-6.482 13.666-6.482 21.659 0 10.666 4.252 20.347 11.132 27.476-16.233 2.744-32.168 7.842-47.29 15.31l-23.171-38.182 18.486-9.204c3.708-1.847 5.217-6.349 3.371-10.057s-6.349-5.216-10.057-3.371l-22.325 11.116c-2.761 1.375-4.836 3.862-5.692 6.825-.856 2.962-.43 6.172 1.169 8.807l17.025 28.056c-13.243 15.188-20.491 34.4-20.491 54.746v39.742c0 .635.087 1.247.236 1.836-5.174 6.229-8.29 14.225-8.29 22.936 0 8.401 2.905 16.133 7.752 22.26l-2.886 21.901c-1.213 9.206-4.891 17.928-10.637 25.223-12.475 15.836-20.711 34.745-23.816 54.682-.638 4.093 2.163 7.927 6.256 8.564.391.062.779.091 1.163.091 3.633 0 6.825-2.645 7.401-6.347 2.711-17.395 9.896-33.893 20.779-47.709 7.414-9.412 12.16-20.666 13.725-32.545l1.742-13.222c2.451 1.083 5.045 1.898 7.745 2.411v5.458c0 34.316 18.91 65.609 48.294 81.906v9.638h-15.984c-3.051 0-5.982 1.123-8.257 3.166l-14.911 13.407c-5.534 4.975-7.773 12.528-5.845 19.713l.705 2.629-6.376 2.797c-10.925 4.793-20.844 11.144-29.567 18.708-6.178-10.908-10.254-22.728-12.134-35.215-.615-4.096-4.443-6.91-8.532-6.301-4.096.617-6.917 4.437-6.3 8.533 2.356 15.658 7.731 30.399 15.973 43.861-18.512 20.945-29.302 48.289-29.302 77.354v27.438c0 4.143 3.357 7.5 7.5 7.5s7.5-3.357 7.5-7.5v-27.438c0-2.289.087-4.563.239-6.825h25.792c-3.551 11.543-3.969 23.95-.958 36.071.848 3.412 3.907 5.693 7.272 5.693.599 0 1.207-.072 1.814-.224 4.02-.998 6.469-5.066 5.47-9.087-3.908-15.732-.444-32.097 9.503-44.896l1.539-1.979c2.543-3.27 1.953-7.982-1.317-10.524-3.27-2.544-7.982-1.953-10.524 1.317l-1.54 1.98c-1.664 2.141-3.179 4.363-4.559 6.647h-30.361c6.883-31.351 28.342-58.14 58.517-71.379l4.281-1.878 20.152 75.114c1.902 7.089 6.765 13.024 13.34 16.285 3.57 1.771 7.463 2.662 11.363 2.662 3.282 0 6.568-.631 9.673-1.899l24.795-10.132h2.634v40.49c0 4.143 3.357 7.5 7.5 7.5s7.5-3.357 7.5-7.5v-40.49h2.634l24.795 10.132c3.104 1.269 6.391 1.899 9.673 1.899 3.899 0 7.793-.892 11.363-2.662 6.575-3.261 11.438-9.196 13.34-16.285l20.024-74.639 3.199 1.403c30.176 13.239 51.635 40.028 58.518 71.379h-29.152c-1.379-2.285-2.895-4.507-4.559-6.648l-1.539-1.979c-2.543-3.27-7.256-3.857-10.524-1.317-3.271 2.542-3.86 7.255-1.317 10.524l1.538 1.979c9.948 12.8 13.412 29.164 9.504 44.896-.999 4.021 1.45 8.089 5.47 9.087.607.151 1.216.224 1.814.224 3.364 0 6.425-2.281 7.272-5.693 3.011-12.121 2.593-24.527-.958-36.071h24.583c.152 2.262.239 4.536.239 6.825v27.438c0 4.143 3.357 7.5 7.5 7.5s7.5-3.357 7.5-7.5v-27.438c.004-46.344-27.418-88.321-69.859-106.94zm-3.371-154.201v-39.645c8.259 2.81 14.226 10.625 14.226 19.822s-5.967 17.013-14.226 19.823zm2.656-171.254-23.17 38.183c-15.122-7.468-31.057-12.567-47.291-15.311 6.881-7.128 11.131-16.81 11.131-27.476 0-8.019-2.413-15.474-6.526-21.715 14.396 2.904 28.496 7.717 41.975 14.429zm-74.329-4.604c0 13.573-11.042 24.615-24.615 24.615s-24.616-11.042-24.616-24.615 11.043-24.616 24.616-24.616c13.573 0 24.615 11.043 24.615 24.616zm-113.316 50.399 2.658 4.381c2.661 4.39 8.3 5.945 12.842 3.539 45.835-24.32 100.566-24.319 146.399 0 1.444.767 3.001 1.132 4.537 1.132 3.29 0 6.489-1.676 8.305-4.669l3.187-5.252c9.352 11.955 14.44 26.548 14.44 41.992v31.45c-2.343-1.003-4.814-1.758-7.38-2.246v-6.687c0-5.816-4.554-10.521-10.371-10.711l-6.155-.198c-26.019-.839-51.834-7.903-74.653-20.43l-37.901-20.805c-5.071-2.788-11.334-2.332-15.948 1.163l-21.953 16.61c-13.186 9.979-21.985 24.773-24.696 40.896-2.448.401-4.812 1.051-7.069 1.922v-30.965c0-15.045 4.847-29.325 13.758-41.122zm-21.813 105.636c0-9.197 5.966-17.012 14.225-19.822v39.644c-8.259-2.81-14.225-10.624-14.225-19.822zm166.867 147.312-2.946 6.42-4.414-1.936v-4.484zm-79.408-14.383c7.287 2.619 14.947 3.929 22.61 3.929 7.569 0 15.141-1.278 22.35-3.836l12.06-4.278c.01-.003.02-.007.029-.011v27.963c0 2.977 1.761 5.672 4.487 6.868l8.67 3.803-39.251 85.544h-13.592l-39.453-85.985 7.664-3.362c2.726-1.196 4.486-3.892 4.486-6.868v-27.339zm-24.94 14.383v4.484l-3.406 1.494-2.743-5.979h6.149zm8.496 116.847c-2.849 1.164-5.938 1.053-8.698-.315-2.759-1.368-4.718-3.76-5.516-6.734l-24.79-92.398c-.457-1.702.074-3.492 1.386-4.671l8.714-7.835 47.822 104.224zm120.21-99.448-24.789 92.398c-.798 2.975-2.757 5.366-5.516 6.734-2.76 1.368-5.849 1.479-8.698.315l-18.918-7.73 47.822-104.224 8.715 7.835c1.311 1.179 1.842 2.969 1.384 4.672z"/><path d="m247.978 31.434v1.669h-1.669c-4.143 0-7.5 3.357-7.5 7.5s3.357 7.5 7.5 7.5h1.669v1.669c0 4.143 3.357 7.5 7.5 7.5s7.5-3.357 7.5-7.5v-1.669h1.669c4.143 0 7.5-3.357 7.5-7.5s-3.357-7.5-7.5-7.5h-1.669v-1.669c0-4.143-3.357-7.5-7.5-7.5s-7.5 3.358-7.5 7.5z"/></g></svg>