<svg id="Capa_1" enable-background="new 0 0 511.876 511.876" height="512" viewBox="0 0 511.876 511.876" width="512" xmlns="http://www.w3.org/2000/svg"><g><path d="m34.65 416.867c-3.624-2.012-8.188-.701-10.196 2.921-9.584 17.282-14.65 36.863-14.65 56.628v27.439c0 4.143 3.358 7.5 7.5 7.5s7.5-3.357 7.5-7.5v-27.439c0-17.226 4.415-34.291 12.768-49.353 2.009-3.623.701-8.187-2.922-10.196z"/><path d="m120.207 462.638h-56.85c-7.015 0-12.723 5.707-12.723 12.723v23.038c0 7.016 5.708 12.723 12.723 12.723h56.849c7.015 0 12.723-5.707 12.723-12.723v-23.039c0-7.015-5.707-12.722-12.722-12.722zm-2.278 33.483h-52.294v-18.483h52.294z"/><path d="m459.509 288.813c-3.084-2.762-7.826-2.504-10.591.581-2.764 3.085-2.504 7.826.581 10.591 23.877 21.395 37.572 52.033 37.572 84.059 0 62.217-50.617 112.833-112.833 112.833s-112.833-50.617-112.833-112.834 50.617-112.834 112.833-112.834c17.739 0 34.723 4.005 50.479 11.902 3.704 1.854 8.209.359 10.066-3.345 1.856-3.703.358-8.209-3.344-10.065-17.862-8.953-37.107-13.492-57.201-13.492-16.114 0-31.537 3.005-45.749 8.471v-114.95c0-34.358-11.329-66.68-32.763-93.469-2.588-3.234-7.308-3.76-10.542-1.171-3.234 2.588-3.758 7.308-1.171 10.542 19.283 24.102 29.476 53.182 29.476 84.098v121.86c-25.554 13.86-45.878 36.178-57.199 63.171-.794.031-1.589.062-2.382.062h-26.587v-18.627c28.953-18.312 47.294-50.521 47.294-85.74v-13.543c15.499-.592 27.927-13.379 27.927-29.021s-12.428-28.428-27.927-29.021v-5.853c0-6.249-5.084-11.333-11.333-11.333h-25.004l-17.639-18.148c-1.413-1.453-3.352-2.272-5.378-2.272s-3.966.819-5.378 2.272l-17.639 18.148h-98.873c-6.249 0-11.333 5.084-11.333 11.333v5.91c-15.03 1.091-26.927 13.66-26.927 28.963 0 15.304 11.897 27.873 26.927 28.964v13.889c0 35.581 18.774 68.154 48.294 86.359v17.72h-26.72c-32.853 0-59.581-26.728-59.581-59.58v-125.514c0-74.29 60.439-134.729 134.729-134.729 30.784 0 59.765 10.112 83.811 29.244 3.242 2.577 7.959 2.041 10.539-1.199 2.579-3.242 2.042-7.96-1.2-10.539-26.727-21.266-58.938-32.506-93.15-32.506-82.561 0-149.729 67.168-149.729 149.729v125.513c0 41.124 33.457 74.58 74.581 74.58h20.855l-44.8 19.654c-12.769 5.602-24.326 13.37-34.351 23.09-2.974 2.884-3.047 7.632-.164 10.605 1.471 1.518 3.427 2.279 5.386 2.279 1.88 0 3.763-.703 5.22-2.115 8.737-8.472 18.81-15.241 29.936-20.123l1.993-.875 78.598 84.102c3.105 3.322 7.495 5.228 12.042 5.228s8.938-1.905 12.043-5.228l57.711-61.752c9.9 60.704 62.698 107.188 126.158 107.188 70.488 0 127.833-57.346 127.833-127.833 0-36.282-15.513-70.992-42.563-95.229zm-210.194 68.085-16.128-7.076h17.876c-.649 2.333-1.23 4.693-1.748 7.076zm38.227-169.007c0 7.369-5.705 13.418-12.927 13.993v-27.985c7.223.575 12.927 6.624 12.927 13.992zm-217.431 0c0-7.023 5.186-12.843 11.927-13.871v27.743c-6.741-1.029-11.927-6.848-11.927-13.872zm26.927 42.852v-74.059h98.374c2.026 0 3.966-.819 5.378-2.272l14.47-14.888 14.47 14.888c1.413 1.453 3.353 2.272 5.378 2.272h24.507v73.771c0 36.508-23.117 69.238-57.523 81.444l-4.254 1.509c-12.941 4.593-27.187 4.563-40.109-.082l-3.5-1.258c-34.208-12.294-57.191-44.975-57.191-81.325zm82.373 225.455c-.364.389-.791.47-1.084.47s-.721-.081-1.084-.47l-74.996-80.248 38.598-16.934c2.726-1.196 4.487-3.892 4.487-6.868v-27.428c1.261.512 2.534 1.001 3.823 1.464l3.5 1.258c8.136 2.925 16.689 4.387 25.245 4.387 8.451 0 16.904-1.428 24.953-4.283l4.254-1.509c1.767-.627 3.499-1.316 5.214-2.034v28.146c0 2.977 1.761 5.672 4.487 6.868l30.146 13.226c-.357 3.887-.55 7.821-.55 11.8 0 .155.005.309.006.463z"/><path d="m386.132 289.12c-32.189 0-58.377 26.188-58.377 58.377v101.755c0 18.428 14.991 33.419 33.418 33.419s33.419-14.991 33.419-33.419v-2.655c0-1.027.423-2.026 1.161-2.741l31.018-30.078c11.273-10.932 17.739-26.207 17.739-41.909v-24.371c0-32.19-26.188-58.378-58.378-58.378zm43.378 82.748c0 11.668-4.804 23.019-13.181 31.141l-31.018 30.077c-3.634 3.524-5.719 8.448-5.719 13.511v2.655c0 10.156-8.263 18.419-18.419 18.419s-18.418-8.263-18.418-18.419v-101.755c0-23.918 19.459-43.377 43.377-43.377s43.377 19.459 43.377 43.377v24.371z"/><path d="m386.132 321.011c-14.605 0-26.488 11.882-26.488 26.486 0 4.143 3.358 7.5 7.5 7.5s7.5-3.357 7.5-7.5c0-6.334 5.153-11.486 11.488-11.486 6.334 0 11.487 5.152 11.487 11.486v24.371c0 3.09-1.272 6.096-3.491 8.248l-31.011 30.07c-.478.463-.945.934-1.402 1.413-1.329 1.396-2.071 3.248-2.071 5.175v13.203c0 4.143 3.358 7.5 7.5 7.5s7.5-3.357 7.5-7.5v-10.074l29.926-29.02c5.115-4.961 8.048-11.892 8.048-19.016v-24.371c.001-14.603-11.881-26.485-26.486-26.485z"/><path d="m367.145 389.561c4.142 0 7.5-3.357 7.5-7.5v-2.513l.508-.509c2.929-2.929 2.928-7.678-.001-10.606-2.929-2.93-7.678-2.929-10.606.001l-2.705 2.705c-1.406 1.406-2.196 3.313-2.196 5.303v5.619c0 4.142 3.357 7.5 7.5 7.5z"/></g></svg>