<svg id="Capa_1" enable-background="new 0 0 512.295 512.295" height="512" viewBox="0 0 512.295 512.295" width="512" xmlns="http://www.w3.org/2000/svg"><g><path d="m34.193 419.659c-3.658-1.942-8.199-.55-10.14 3.109-9.185 17.31-14.039 36.798-14.039 56.358v25.147c0 4.143 3.358 7.5 7.5 7.5s7.5-3.357 7.5-7.5v-25.147c0-17.118 4.25-34.175 12.289-49.327 1.941-3.658.549-8.198-3.11-10.14z"/><path d="m117.816 468.36h-61.778c-7.015 0-12.723 5.707-12.723 12.723v15.968c0 7.016 5.708 12.723 12.723 12.723h61.778c7.015 0 12.723-5.707 12.723-12.723v-15.968c0-7.016-5.708-12.723-12.723-12.723zm-2.277 26.413h-57.224v-11.413h57.223v11.413z"/><path d="m448.571 280.302c-3.374-2.403-8.057-1.619-10.46 1.754-2.405 3.373-1.62 8.057 1.753 10.461 29.691 21.165 47.417 55.537 47.417 91.945 0 62.217-50.617 112.833-112.833 112.833s-112.833-50.616-112.833-112.833 50.617-112.834 112.833-112.834c13.368 0 26.447 2.313 38.875 6.875 3.889 1.422 8.198-.568 9.625-4.457s-.568-8.197-4.456-9.625c-14.089-5.171-28.908-7.793-44.044-7.793-15.846 0-31.023 2.906-45.039 8.2-1.394-6.481-3.758-12.725-7.081-18.619l-23.984-42.542c2.789-4.459 4.408-9.722 4.408-15.358 0-15.642-12.428-28.428-27.927-29.021v-7.975c.167-.396.312-.804.409-1.23l6.485-28.311c3.824-16.697 1.601-34.22-6.261-49.34-1.91-3.674-6.438-5.103-10.114-3.194-3.675 1.911-5.105 6.439-3.194 10.114 6.312 12.139 8.023 25.648 4.949 39.07l-4.312 18.823c-13.72-6.871-29.015-10.495-44.366-10.495h-69.453c-21.589 0-39.153-17.564-39.153-39.153 0-21.59 17.564-39.154 39.153-39.154h62.368c11.5 0 22.557 3.37 31.977 9.746 3.431 2.322 8.093 1.423 10.415-2.007 2.322-3.431 1.423-8.094-2.007-10.415-9.118-6.171-19.44-10.106-30.286-11.618-3.248-19.351-20.098-34.149-40.359-34.149h-3.87c-20.509 0-37.541 15.158-40.49 34.859-16.841 3.912-30.692 15.692-37.446 31.251-21.007 22.868-27.488 56.167-16.464 85.27l1.945 5.135c-.267.911-.506 1.83-.731 2.754-15.857.188-28.7 13.14-28.7 29.04 0 5.636 1.619 10.898 4.407 15.357l-23.984 42.542c-10.206 18.104-11.358 39.438-3.163 58.535 8.195 19.096 24.453 32.958 44.604 38.033 1.93.483 3.977.183 5.687-.84 1.709-1.024 2.94-2.686 3.422-4.619l1.919-7.699c10.354 11.106 22.649 17.975 36.703 20.517l-42.943 18.839c-14.219 6.239-26.935 15.053-37.794 26.196-2.891 2.967-2.829 7.715.137 10.605 1.458 1.421 3.347 2.129 5.234 2.129 1.952 0 3.902-.758 5.372-2.266 8.126-8.339 17.448-15.173 27.753-20.396l27.935 37.107v9.213c0 1.808.653 3.554 1.838 4.919l61.425 70.71c1.467 1.688 3.551 2.581 5.666 2.581 1.297 0 2.605-.336 3.789-1.029.727-.426 1.355-.962 1.881-1.572.001.001.002.002.004.003l61.41-70.693c1.185-1.365 1.838-3.111 1.838-4.919v-9.167l2.825-3.667c15.016 53.899 64.541 93.565 123.162 93.565 70.488 0 127.833-57.346 127.833-127.833.001-41.246-20.077-80.185-53.709-104.158zm-271.365-265.302h3.87c11.699 0 21.615 7.784 24.839 18.444h-53.549c3.225-10.66 13.141-18.444 24.84-18.444zm72.319 342.317-16.364-7.179c7.318-1.326 14.153-3.838 20.489-7.504-1.658 4.773-3.038 9.674-4.125 14.683zm-69.989 122.777-42.69-118.812.408-.179 30.112 20.492c3.527 2.4 7.57 3.601 11.615 3.601 4.034 0 8.069-1.194 11.59-3.583l30.241-20.512 1.278.561zm-30.172-153.491 3.5 1.258c8.136 2.925 16.69 4.387 25.245 4.387 8.451 0 16.904-1.428 24.953-4.283l4.254-1.509c1.767-.627 3.499-1.316 5.214-2.034v24.17l-30.38 20.606c-1.927 1.308-4.419 1.308-6.346-.004l-30.262-20.594v-23.461c1.26.511 2.534 1.001 3.822 1.464zm165.954-55.45c-16.79 8.798-31.395 21.216-42.77 36.215-2.788.083-5.436 1.454-7.066 3.799-10.222 14.705-22.653 22.766-37.951 24.648v-19.201c28.953-18.312 47.294-50.521 47.294-85.74v-13.543c4.38-.167 8.512-1.31 12.191-3.215l22.246 39.46c3.115 5.526 5.14 11.435 6.056 17.577zm-27.566-82.843c0 7.369-5.705 13.418-12.927 13.993v-27.985c7.222.575 12.927 6.624 12.927 13.992zm-69.332-46.558c13.598 0 27.144 3.351 39.171 9.689l2.233 1.177v78.255c0 36.508-23.117 69.238-57.523 81.444l-4.254 1.509c-12.942 4.593-27.187 4.563-40.109-.082l-3.5-1.258c-34.207-12.294-57.19-44.976-57.19-81.325v-57.24c0-13.972 6.174-27.093 16.938-36l5.672-4.694c8.414 5.386 18.398 8.524 29.108 8.524h69.454zm-122.175-41.828c2.061 8.815 6.276 16.807 12.066 23.39l-3.688 3.052c-3.951 3.27-7.414 6.981-10.384 11.015-2.875-12.498-2.111-25.51 2.006-37.457zm-13.997 74.514v27.743c-6.741-1.028-11.927-6.848-11.927-13.872-.001-7.023 5.186-12.842 11.927-13.871zm10.343 136.73c-1.991-2.865-5.496-4.307-8.929-3.682-3.43.629-6.192 3.224-7.037 6.608l-2.936 11.773c-12.243-5.054-21.991-14.613-27.324-27.04-6.336-14.764-5.445-31.257 2.445-45.252l22.246-39.46c3.397 1.76 7.181 2.866 11.191 3.157v13.889c0 35.581 18.774 68.154 48.294 86.359v18.293c-15.298-1.88-27.729-9.941-37.95-24.645zm33.02 117.593v-8.918c0-1.627-.529-3.211-1.508-4.511l-27.424-36.428 26.399-11.582 35.86 99.802zm109.409-13.495c-1.011 1.312-1.559 2.921-1.559 4.577v8.918l-33.326 38.363 35.723-99.423 11.305 4.96c-.358 3.887-.55 7.822-.55 11.801 0 4.956.293 9.845.845 14.656z"/><path d="m403.078 299.063h-57.26c-7.226 0-13.105 5.879-13.105 13.105v62.423l-25.032 51.301c-4.653 9.535-4.074 20.6 1.547 29.599 5.622 8.998 15.312 14.37 25.922 14.37h78.597c10.609 0 20.3-5.372 25.921-14.37s6.2-20.063 1.547-29.599l-25.032-51.301v-62.423c0-7.227-5.879-13.105-13.105-13.105zm-56.125 80.549c.5-1.024.76-2.149.76-3.289v-62.261h53.471v62.261c0 1.14.26 2.265.76 3.289l9.07 18.588h-73.13zm79.993 67.93c-2.906 4.651-7.717 7.318-13.2 7.318h-78.597c-5.483 0-10.295-2.667-13.2-7.318-2.906-4.65-3.193-10.145-.789-15.072l9.403-19.27h87.769l9.402 19.27c2.405 4.927 2.118 10.422-.788 15.072z"/></g></svg>