<svg id="Capa_1" enable-background="new 0 0 511.874 511.874" height="512" viewBox="0 0 511.874 511.874" width="512" xmlns="http://www.w3.org/2000/svg"><g><path d="m360.055 369.994-5.293-2.322.832-3.103c1.93-7.186-.31-14.739-5.843-19.714l-14.916-13.41c-2.271-2.04-5.202-3.163-8.253-3.163h-17.192v-10.473c13.193-7.974 24.552-18.917 32.943-31.953 2.242-3.482 1.236-8.124-2.247-10.366-3.483-2.243-8.124-1.238-10.366 2.247-10.304 16.006-25.848 28.322-43.769 34.679l-4.253 1.51c-12.94 4.593-27.186 4.563-40.109-.082l-3.5-1.258c-34.208-12.294-57.19-44.976-57.19-81.325v-76.179h33.903c28.327 0 55.156-10.83 75.545-30.495l25.037-24.149 1.599 4.449c5.436 15.133 14.561 28.695 26.494 39.427v86.659c0 6.612-.766 13.236-2.274 19.688-.943 4.033 1.562 8.067 5.595 9.011 4.026.941 8.067-1.561 9.011-5.595 1.771-7.57 2.669-15.344 2.669-23.104v-13.543c15.499-.593 27.927-13.379 27.927-29.021 0-3.775-.732-7.38-2.048-10.692l1.263-51.005c.588-23.803-5.594-46.875-17.917-67.037l6.686-11.018c1.601-2.636 2.026-5.847 1.17-8.81-.857-2.962-2.933-5.449-5.693-6.824l-27.718-13.801c-39.605-19.718-85.007-24.455-127.838-13.336-4.009 1.041-6.416 5.135-5.375 9.145s5.137 6.417 9.144 5.375c3.041-.79 6.098-1.481 9.164-2.097-4.076 6.223-6.463 13.647-6.463 21.626 0 10.667 4.251 20.348 11.133 27.475-16.234 2.744-32.17 7.842-47.292 15.311l-23.17-38.182 23.881-11.89c1.31-.652 2.627-1.279 3.95-1.896 3.755-1.749 5.381-6.21 3.632-9.965-1.749-3.756-6.209-5.38-9.965-3.633-1.441.671-2.877 1.354-4.304 2.065l-27.719 13.801c-2.76 1.375-4.835 3.862-5.692 6.824s-.431 6.173 1.168 8.809l1.72 2.835c-23.861 14.549-38.404 40.177-38.404 68.544v128.21c0 4.143 3.358 7.5 7.5 7.5s7.5-3.357 7.5-7.5v-128.21c0-22.499 11.249-42.879 29.804-54.854-10.198 18.819-15.3 39.951-14.766 61.53l1.262 51.004c-1.317 3.313-2.048 6.918-2.048 10.693 0 15.304 11.897 27.873 26.927 28.964v13.889c0 34.856 18.014 66.832 46.501 85.235v11.786h-15.982c-3.052 0-5.984 1.124-8.257 3.166l-14.911 13.406c-5.534 4.975-7.773 12.528-5.845 19.714l.705 2.629-6.376 2.797c-2.883 1.265-5.69 2.647-8.431 4.122l-9.09.653c-16.797 1.205-33.526-4.37-46.242-15.35l10.618-9.233c10.25-8.913 16.129-21.816 16.129-35.4v-34.577c0-4.143-3.358-7.5-7.5-7.5s-7.5 3.357-7.5 7.5v34.577c0 9.241-3.999 18.019-10.972 24.082l-12.317 10.71c-2.785 2.421-4.415 5.927-4.473 9.616s1.461 7.243 4.167 9.749c12.488 11.575 28.438 18.715 45.185 20.519-24.646 21.801-39.436 53.454-39.436 87.473v27.438c0 4.143 3.358 7.5 7.5 7.5s7.5-3.357 7.5-7.5v-27.438c0-2.289.087-4.563.239-6.825h25.792c-3.551 11.543-3.969 23.949-.958 36.07.848 3.413 3.908 5.694 7.273 5.694.599 0 1.207-.072 1.814-.223 4.02-.999 6.469-5.067 5.471-9.087-3.908-15.733-.444-32.098 9.504-44.897l1.539-1.979c2.542-3.271 1.951-7.982-1.319-10.524-3.269-2.541-7.982-1.951-10.524 1.319l-1.539 1.979c-1.664 2.141-3.179 4.363-4.559 6.647h-30.361c6.883-31.351 28.342-58.14 58.517-71.379l4.281-1.878 20.152 75.113c1.901 7.089 6.763 13.024 13.338 16.285 3.571 1.771 7.464 2.662 11.365 2.662 3.281 0 6.569-.631 9.673-1.899l24.795-10.132h2.637v40.49c0 4.143 3.358 7.5 7.5 7.5 4.143 0 7.5-3.357 7.5-7.5v-40.49h2.634l24.796 10.132c3.104 1.269 6.391 1.899 9.673 1.899 3.899 0 7.793-.892 11.363-2.662 6.575-3.261 11.438-9.196 13.34-16.285l20.024-74.639 3.2 1.403c30.176 13.239 51.635 40.028 58.518 71.379h-29.152c-1.379-2.285-2.895-4.507-4.559-6.648l-1.539-1.979c-2.543-3.27-7.256-3.856-10.524-1.317-3.271 2.542-3.86 7.255-1.317 10.524l1.538 1.979c9.948 12.8 13.412 29.164 9.504 44.896-.999 4.021 1.45 8.089 5.47 9.087.607.151 1.216.224 1.814.224 3.364 0 6.425-2.281 7.272-5.693 3.011-12.121 2.593-24.527-.958-36.071h24.583c.152 2.262.239 4.536.239 6.825v27.438c0 4.143 3.357 7.5 7.5 7.5s7.5-3.357 7.5-7.5v-27.438c-.001-46.343-27.424-88.32-69.864-106.939zm-1.578-167.593v-27.985c7.222.575 12.927 6.625 12.927 13.992-.001 7.368-5.705 13.418-12.927 13.993zm12.145-76.061-.886 35.797c-3.439-1.627-7.246-2.596-11.259-2.75v-18.497c0-2.224-.986-4.332-2.693-5.757-11.211-9.361-19.747-21.573-24.684-35.318l-1.248-3.475c1.253.623 2.503 1.255 3.744 1.913 4.532 2.404 10.174.854 12.842-3.537l12.321-20.304c8.223 15.975 12.314 33.702 11.863 51.928zm-11.282-81.801-23.17 38.183c-15.118-7.467-31.05-12.565-47.28-15.31 6.879-7.127 11.121-16.812 11.121-27.477 0-7.979-2.378-15.409-6.452-21.634 14.432 2.897 28.527 7.688 41.901 14.348zm-74.329-4.604c0 13.573-11.042 24.615-24.615 24.615s-24.616-11.042-24.616-24.615 11.043-24.616 24.616-24.616 24.615 11.043 24.615 24.616zm-131.039 148.473c0-7.023 5.187-12.843 11.927-13.871v27.743c-6.741-1.028-11.927-6.848-11.927-13.872zm11.927-38.416v9.453c-3.646.265-7.108 1.2-10.26 2.692l-.886-35.797c-.41-16.585 2.972-32.863 9.819-47.743l9.781 16.118c1.816 2.995 5.016 4.671 8.307 4.671 1.536 0 3.091-.365 4.535-1.132 37.377-19.832 80.667-23.484 120.224-10.974l-27.486 26.51c-17.578 16.955-40.708 26.292-65.131 26.292h-38.992c-5.465 0-9.911 4.445-9.911 9.91zm150.85 193.29-2.946 6.42-4.413-1.936v-4.484zm-83.733-16.581 3.5 1.258c8.137 2.925 16.689 4.387 25.245 4.387 8.452 0 16.905-1.428 24.955-4.283l4.253-1.51c1.15-.408 2.289-.846 3.422-1.295v27.409c0 2.977 1.761 5.672 4.487 6.868l8.67 3.803-39.251 85.544h-13.592l-39.453-85.986 7.663-3.362c2.726-1.196 4.487-3.892 4.487-6.868v-28.196c1.843.79 3.709 1.546 5.614 2.231zm-20.616 16.581v4.484l-3.406 1.494-2.743-5.979h6.149zm8.497 116.847c-2.851 1.164-5.94 1.052-8.699-.316s-4.718-3.76-5.516-6.733l-24.79-92.397c-.457-1.703.074-3.493 1.386-4.672l8.714-7.835 47.821 104.224zm120.209-99.448-24.789 92.397c-.798 2.975-2.757 5.366-5.516 6.734-2.76 1.367-5.85 1.479-8.698.315l-18.918-7.73 47.822-104.224 8.715 7.835c1.311 1.18 1.842 2.97 1.384 4.673z"/><path d="m251.227 48.021h1.669v1.669c0 4.143 3.358 7.5 7.5 7.5 4.143 0 7.5-3.357 7.5-7.5v-1.669h1.669c4.143 0 7.5-3.357 7.5-7.5s-3.357-7.5-7.5-7.5h-1.669v-1.669c0-4.143-3.357-7.5-7.5-7.5-4.142 0-7.5 3.357-7.5 7.5v1.669h-1.669c-4.142 0-7.5 3.357-7.5 7.5s3.357 7.5 7.5 7.5z"/></g></svg>