<svg id="Capa_1" enable-background="new 0 0 506.793 506.793" height="512" viewBox="0 0 506.793 506.793" width="512" xmlns="http://www.w3.org/2000/svg"><g><path d="m23.874 427.825c-3.891-1.421-8.196.576-9.622 4.464-4.863 13.282-7.329 27.189-7.329 41.336v25.147c0 4.143 3.357 7.5 7.5 7.5s7.5-3.357 7.5-7.5v-25.147c0-12.382 2.158-24.554 6.415-36.178 1.424-3.889-.574-8.197-4.464-9.622z"/><path d="m434.498 267.409c-3.61-2.025-8.183-.741-10.211 2.871-2.026 3.612-.741 8.184 2.871 10.211 35.598 19.974 57.712 57.704 57.712 98.469 0 62.217-50.616 112.833-112.833 112.833s-112.834-50.616-112.834-112.833 50.617-112.834 112.834-112.834c9.201 0 18.372 1.117 27.259 3.321 4.021.994 8.088-1.453 9.085-5.474s-1.453-8.088-5.474-9.085c-10.067-2.497-20.453-3.763-30.87-3.763-61.326 0-112.695 43.409-125.016 101.112l-22.958-10.072v-30.508c29.342-18.14 48.016-50.458 48.164-85.865 16.956-2.881 29.912-17.66 29.912-35.423 0-3.783-.593-7.428-1.682-10.855l6.86-20.513.28-.383c9.144-12.488 8.705-29.737-.835-41.746l1.258-10.329c1.691-13.893-5.254-27.32-17.188-34.091l-1.23-8.44c-.784-5.38-2.876-10.572-6.048-15.016-2.406-3.371-7.091-4.153-10.462-1.747-3.371 2.407-4.153 7.091-1.747 10.462 1.792 2.51 2.972 5.437 3.413 8.466l1.803 12.358c.385 2.633 2.136 4.866 4.602 5.866 8.104 3.288 13.024 11.647 11.967 20.328l-1.659 13.624c-.261 2.14.413 4.288 1.848 5.897l1.004 1.127c6.053 6.788 6.545 17.041 1.172 24.38l-.971 1.326c-.458.625-.815 1.316-1.061 2.051l-3.46 10.346c-4.915-4.354-11.021-7.394-17.767-8.541v-22.859c0-5.206-2.662-9.92-7.121-12.609-4.459-2.69-9.87-2.845-14.475-.416l-4.307 2.271c-6.267 3.303-13.797 2.873-19.644-1.122l-8.041-5.493c-3.596-2.455-8.292-2.526-11.96-.187l-2.436 1.554c-6.688 4.266-15.429 3.915-21.755-.871-3.857-2.918-9.246-2.917-13.104.001-6.325 4.786-15.067 5.136-21.755.87l-2.434-1.553c-3.672-2.343-8.366-2.27-11.966.188l-8.036 5.491c-5.852 3.995-13.377 4.424-19.644 1.123l-4.307-2.271c-4.606-2.428-10.017-2.273-14.476.416s-7.121 7.403-7.121 12.609v22.923c-7.086 1.28-13.454 4.641-18.449 9.429l-3.778-11.297c-.245-.734-.603-1.426-1.061-2.051l-.972-1.327c-5.372-7.338-4.88-17.591 1.172-24.379l1.005-1.127c1.435-1.609 2.108-3.758 1.848-5.897l-1.659-13.623c-1.058-8.682 3.863-17.041 11.967-20.329 2.466-1 4.217-3.233 4.602-5.866l1.803-12.359c.934-6.407 4.979-11.902 10.817-14.701l13.063-6.258c1.561-.747 2.814-2.012 3.55-3.578l3.243-6.912c3.184-6.781 10.079-11.162 17.569-11.162h11.11c1.573 0 3.107-.495 4.384-1.415l4.838-3.485c6.291-4.531 14.652-4.887 21.307-.907l5.581 3.338c2.371 1.418 5.328 1.418 7.699 0l5.581-3.338c6.652-3.98 15.016-3.623 21.306.906l4.839 3.486c1.276.92 2.811 1.415 4.384 1.415h11.11c7.49 0 14.386 4.381 17.569 11.161l1.019 2.17c1.76 3.751 6.231 5.364 9.976 3.603 3.75-1.76 5.362-6.227 3.603-9.976l-1.019-2.171c-5.643-12.021-17.869-19.787-31.147-19.787h-8.69l-2.876-2.072c-11.149-8.03-25.978-8.663-37.771-1.608l-1.731 1.035-1.73-1.035c-11.797-7.055-26.622-6.425-37.773 1.609l-2.875 2.071h-8.69c-13.278 0-25.505 7.767-31.148 19.789l-2.107 4.491-10.651 5.103c-10.354 4.962-17.523 14.705-19.18 26.063l-1.23 8.441c-11.934 6.771-18.879 20.198-17.188 34.091l1.258 10.329c-9.54 12.008-9.979 29.258-.835 41.745l.28.384 7.596 22.712c-.689 2.774-1.06 5.672-1.06 8.656 0 17.637 12.77 32.337 29.547 35.367.027 35.348 18.583 67.718 47.792 85.969v30.46l-23.112 10.14c-2.019-.033-4.042.398-5.924 1.314l-32.386 15.763c-1.646.801-3.075 1.932-4.23 3.292-12.068 7.816-22.551 17.66-31.159 29.259-2.469 3.326-1.773 8.024 1.553 10.492 1.344.997 2.91 1.478 4.464 1.478 2.293 0 4.557-1.048 6.028-3.03 5.688-7.664 12.31-14.448 19.754-20.256l22.522 32.534-4.986 9.789c-1.345 2.64-1.01 5.823.854 8.125l50.985 62.948c1.461 1.804 3.622 2.779 5.831 2.779 1.085 0 2.181-.235 3.211-.724 3.128-1.483 4.834-4.914 4.129-8.303l-20.164-96.998 41.369 26.132c2.812 1.777 6.034 2.666 9.257 2.666 3.222 0 6.443-.889 9.254-2.665l42.087-26.585-20.258 97.451c-.705 3.389 1.001 6.819 4.129 8.303 1.03.488 2.126.725 3.211.724 2.208 0 4.37-.976 5.831-2.779l45.052-55.624c22.808 35.123 62.377 58.403 107.285 58.403 70.487 0 127.833-57.346 127.833-127.833-.002-46.185-25.051-88.928-65.374-111.553zm-199.934-46.763c1.922 19.589 1.918 39.705-.012 59.789-.224 2.332-2.033 4.202-4.303 4.447-.001.001-.001.001-.001.001-35.876 3.881-72.256 3.863-108.132-.055-2.206-.24-3.969-1.97-4.288-4.205-2.868-20.079-2.868-40.312 0-60.138.318-2.205 2.056-3.93 4.225-4.195 18.043-2.211 36.209-3.316 54.38-3.316 18.004 0 36.013 1.086 53.892 3.257 2.232.271 4.015 2.127 4.239 4.415zm-94.992 80.808c12.263.877 24.562 1.325 36.862 1.325 11.71 0 23.42-.4 35.098-1.195-3.768 2.015-7.711 3.774-11.822 5.232l-4.255 1.509c-12.94 4.592-27.187 4.562-40.109-.082l-3.5-1.258c-4.274-1.536-8.373-3.39-12.274-5.531zm111.341-43.707c.295-12.97-.175-25.871-1.421-38.565-.229-2.331-.843-4.535-1.777-6.549l9.52-16.651v29.391c-.001 11.321-2.228 22.278-6.322 32.374zm36.225-67.377c0 9.45-6.292 17.45-14.903 20.051v-40.101c8.611 2.602 14.903 10.601 14.903 20.05zm-188.574-55.775c11.198 5.901 24.647 5.135 35.101-2.007l5.777-3.947.13.083c11.091 7.075 25.347 7.044 36.373.165 11.028 6.879 25.284 6.908 36.373-.165l.13-.083 5.778 3.947c10.452 7.141 23.902 7.911 35.101 2.006l3.907-2.06v33.225l-20.908 36.571c-1.337-.466-2.734-.813-4.193-.99-37.13-4.509-74.779-4.488-111.903.062-1.623.199-3.185.599-4.665 1.167l-20.909-37.416v-32.618zm-33.454 55.775c0-9.318 6.118-17.227 14.546-19.939v39.879c-8.427-2.713-14.546-10.622-14.546-19.94zm29.546 5.531 9.744 17.436c-.675 1.573-1.163 3.248-1.417 5.001-1.874 12.955-2.599 26.069-2.188 39.206-3.975-9.965-6.14-20.75-6.14-31.884v-29.759zm.894 239.508 4.809-9.44c1.252-2.458 1.054-5.405-.516-7.673l-25.211-36.418 28.099-13.676 21.273 102.337zm81.138-21.188c-.754.477-1.729.478-2.485-.001l-53.627-33.875-3.578-17.211 20.967-9.199c2.726-1.196 4.486-3.892 4.486-6.868v-27.643c1.425.587 2.863 1.153 4.323 1.678l3.5 1.258c8.137 2.925 16.689 4.387 25.245 4.387 8.451 0 16.904-1.428 24.952-4.283l4.255-1.509c1.465-.52 2.907-1.081 4.337-1.663v27.775c0 2.977 1.761 5.672 4.487 6.868l20.967 9.199-3.484 16.759zm50.822 56.318 17.05-82.021c1.211 16.308 5.492 31.774 12.271 45.819z"/><path d="m405.299 441.157-21.069-4.667c-9.262-2.052-18.696-2.252-28.04-.597l-36.063 6.391c-3.093.545-6.242-.295-8.646-2.311-2.405-2.017-3.784-4.973-3.784-8.11 0-3.157 1.394-6.125 3.823-8.143 2.429-2.016 5.601-2.837 8.708-2.259l4.963.93c5.986 1.121 12.129-.443 16.851-4.295l19.839-16.187c4.605-3.757 7.247-9.321 7.247-15.267v-93.492c0-4.143-3.357-7.5-7.5-7.5s-7.5 3.357-7.5 7.5v93.493c0 1.419-.63 2.747-1.729 3.644l-19.838 16.187c-1.291 1.052-2.972 1.482-4.606 1.174l-4.964-.93c-7.503-1.403-15.177.584-21.051 5.462-5.873 4.876-9.242 12.05-9.242 19.684 0 7.586 3.334 14.731 9.146 19.604 4.65 3.898 10.454 5.981 16.414 5.981 1.491 0 2.992-.131 4.486-.396l36.063-6.391c7.393-1.312 14.854-1.15 22.179.472l21.069 4.667c16.407 3.637 33.592-3.388 42.759-17.476 10.994-16.896 7.79-39.586-7.452-52.779l-2.856-2.472v-77.107c0-4.143-3.357-7.5-7.5-7.5s-7.5 3.357-7.5 7.5v80.536c0 2.178.946 4.247 2.593 5.672l5.448 4.714c9.604 8.313 11.622 22.61 4.695 33.256-5.777 8.878-16.603 13.305-26.943 11.012z"/></g></svg>